<svg id="indeximg" xmlns="http://www.w3.org/2000/svg" viewBox="0 0 1395.1 1070.7"><defs><style>.cls-1{opacity:.15}.cls-2{fill:#fff}.cls-3{fill:none}</style></defs><g id="ulv"><g id="right" class="cls-1"><path class="cls-2" d="M1182.3 316.8c8.2 26.2-14.4 46.7-36.4 53.3s-47.6-4-51.7-17.7 12.2-39.1 34.2-45.8 46.5-13.6 54 10.2z" transform="translate(-262.2)"/><path class="cls-2" d="M959.7 653.5s21.1-8.9 28.5-8.3c40.4 2.7 64.7 45.9 64.7 45.9-27-17.8-47-28.9-63.8-28.4-7.4.2-29.4 4-29.4 4z" transform="translate(-262.2)"/><path class="cls-2" d="M1050.2 756.6a59.7 59.7 0 0 1-11.9 31.2c-17.2 21.7-40.6 36-40.6 36s27.6-24.9 39.1-58.8c0 0 13-3 13.4-8.4z" transform="translate(-262.2)"/><path class="cls-2" d="M1053.7 725.9l.3-5.6c.2-9.5-.1-17-1-20.2-4.2-14.1-50-28.5-50-28.5 20.3 11.9 31.4 25.9 36.6 40.4a61.1 61.1 0 0 1 2 6.8s8.7-1.1 12.1 7z" transform="translate(-262.2)"/><path class="cls-2" d="M990.3 671.6c-7.3-2.5-30.6 3.5-30.6 3.5v159.3c20.9 2.6 30.6-6.2 30.6-6.2s-16.3-52.9-15.3-71c2.8-51.5 39.7-69.6 39.7-69.6s-8.4-10.4-24.4-16z" transform="translate(-262.2)"/><path class="cls-2" d="M1035.8 719.8s-44.6 18.6-2.3 44.1c0 0-15.6 34.6-30.5 39-15.3 4.5-21.7-27.6-21.7-27.6s-14.6-76.6 54.5-55.5z" transform="translate(-262.2)"/><path class="cls-2" d="M1035.8 713.8c-4-10.9-11-20.5-18.1-20.4-8.1.2-23.2 20-23.2 20 20.2-7 41.3.4 41.3.4z" transform="translate(-262.2)"/><path class="cls-2" d="M959.7 868.8c30.8-3.8 71.8 5.6 71.8 5.6s-30-36.9-71.8-35.8z" transform="translate(-262.2)"/><path class="cls-2" d="M959.7 889.2v-16c20.3-5.3 67.3 3.5 67.3 3.5s-42.8 16.5-67.3 12.5z" transform="translate(-262.2)"/><path class="cls-2" d="M1098.6 0C1037.7 91.6 996 193 1003 298.1c31.5-128.5 96.2-220.2 167.9-298z" transform="translate(-262.2)"/><path class="cls-2" d="M1195.5 0c-69.7 62.6-132.9 138.4-162.6 232.4 57.4-97 154.3-168 242.6-232.4z" transform="translate(-262.2)"/><path class="cls-2" d="M1393 0c-83.9 27.8-214.8 64-307.6 172C1202.7 76 1354.6 65 1428.4 10a71.4 71.4 0 0 0 12.4-10z" transform="translate(-262.2)"/><path class="cls-2" d="M1177.5 129.1c111.9-67.7 228.6-34 272-48.7 0 0-12 14.2-29 18.4-59.3 20-147.2-6.7-243 30.3z" transform="translate(-262.2)"/><path class="cls-2" d="M1243.5 120.7c98.2-6 164.1 57.4 198.1 62.8 0 0-12.9 5.3-25.8 2-46.4-7.3-95.6-55.9-172.3-64.8z" transform="translate(-262.2)"/><path class="cls-2" d="M959.7 572.8v57s43.3 0 68.8 15.3c6.2 3.7 28.3-5.5 28.3-5.5s-62.3 5.5-97.1-66.8z" transform="translate(-262.2)"/><path class="cls-2" d="M1182.8 705.6c27.7 36.3-16 97.7-16 97.7 44-40.4 43-73 47.6-99 7.4-41.8-6.2-146.8-6.2-146.8s1.4 58.2-5 78c-20.3 64.4-20.4 70.1-20.4 70.1z" transform="translate(-262.2)"/><path class="cls-2" d="M1035.8 889.8c-23 5.6-50.4 11-76.1 8.2v34.3c41.8-2.7 45.5-5.6 59.8-11.1l12-4.7z" transform="translate(-262.2)"/><path class="cls-2" d="M1036 915.1c111.3-45 130.7-84.8 130.7-84.8-41 23.7-76.7 45.6-126.2 57.7z" transform="translate(-262.2)"/><path class="cls-2" d="M1169.3 737c-6.7-21.4-37.4 3.7-38.7 43.2-1.7 55.6-20.4 68-52.1 89 11-3.4 114.7-55 90.8-132.2z" transform="translate(-262.2)"/><path class="cls-2" d="M1034.3 876.4s19.7 4.3 39.3-5.6z" transform="translate(-262.2)"/><path class="cls-2" d="M985.6 837s29.3 5.6 50.2 29.8c7 8.2 47.3-6.3 47.3-6.3-26.3-21-52.4-42-73-39.3-7.2 1-9.7 9-24.5 15.8z" transform="translate(-262.2)"/><path class="cls-2" d="M1223.7 650.4s44.3 64.3 59 89.6c0 0-20.3-15.3-32.5-12.6a53.8 53.8 0 0 1 9.7 13.3h-16.6c3.1 4.7 5 12.1 5 12.1s-8-2.3-11.6-.8c4.8 6.8 4.3 10.8 4.3 10.8s-5-2.6-9.7-1.6c0 0 4 6.5 3.5 10.3 0 0-6.9-3.1-9-2.4l-11.2 12.5-16.6 15.3a24 24 0 0 1 1 12s-9.1-2.5-16.2 0 2.9 11 0 16.3c0 0-7.7-4.2-11-2.2-18.2 10.7-58.7 30.5-58.7 30.5 32.6-24.5 48-42.4 48-42.4s65.4-35.3 62.6-160.7z" transform="translate(-262.2)"/><path class="cls-2" d="M1037.4 496.7S989 566.5 1069.1 634c7.4 6.2-35.2 22-35.2 22 21.6 21.4 28.5 30.3 26.7 60.2-.8 12.6-2.6 32.9-4.2 45.9-2 18-12.1 29.3-27.9 42.9v9.7c32.6 21.4 58 40.1 58 40.1 44.4-16.2 29-82.5 45.7-106.4 2.6-3.6 1-17.6 1-17.6-20 11.3-38.7 34.7-38.7 34.7.2-36.4 10.7-56.8 13.6-79.2 14.2-112.9-51.4-144.3-70.7-189.6z" transform="translate(-262.2)"/><path class="cls-2" d="M917.1 710.5l-9.9 16.2"/><path class="cls-2" d="M1177.3 767.4c.3-32.5-4.7-38-10.6-42.3-7-5-17.6 1.6-27.4 15 0 0-1.1-11.8 0-14.6 2-4.9 22.3-16.6 22.3-16.6a14 14 0 0 1 15.2 1c9.7 6.8 6.3 32.4 5 39.2-1.5 7.5-4.5 18.3-4.5 18.3z" transform="translate(-262.2)"/><path class="cls-2" d="M1285 749c17 21.6 10.6 62.7 24 97 0 0-23-6.7-33.8-17.4 0 0 18.5 30 20.6 47.4 0 0-13-21.2-44.6-21.2 0 0 24.8 14.5 28.9 45.5 0 0-9.9-12.7-53.2-25.9-32-9.7-56.2-40.8-56.2-40.8 5.8-6.5 16-.4 16-.4s6.1-9.7 4.2-17.6c0 0 7-1.2 13 1.1 0 0 4.3-11.1 2.8-17.6l21.4-22.2a16 16 0 0 1 10.5 1.8 22.3 22.3 0 0 0 .7-11s2.8-.6 5.7 2.2c0 0 1.4-8.1-.3-12.9 0 0 2.3-.8 8.2 2.2 0 0 .5-10-1.7-13.4 0 0 9.5-.3 15.5.9a41.6 41.6 0 0 0-4-12.4s16.6 7.7 22.2 14.8z" transform="translate(-262.2)"/><path class="cls-2" d="M959.7 940c33.7 104.2 80.8 125.5 80.8 125.5-16.4-34.5-14.7-62.8-14.7-62.8 6.3 15.8 34.8 46 34.8 46-9.4-43.4 7.3-101.2-28.5-123.5 0 0-26.9 10.2-36.5 11.8-9 1.4-35.9 3-35.9 3z" transform="translate(-262.2)"/><path class="cls-2" d="M1040.8 922.6c28.9 31.7 17 60.4 50.4 76.3 0 0-4.5-22.5 5.1-33.3 0 0 5 38.6 28.8 59.9 0 0 5-93.2-20-133.3 0 0-19.3 11.2-30.3 17.2a405 405 0 0 1-34 13.2z" transform="translate(-262.2)"/><path class="cls-2" d="M1111.4 888s55.3 34.5 71 70.5c0 0 2.4-26.2-3.7-47.4 0 0 30.3 13.1 41.6 41.6 0 0-4.2-35.5-22.3-52.4 0 0 39.4-1.5 59.5 45.5 0 0 0-33-21.9-54.3-15.1-14.6-37-14-68.1-48 0 0-16 23.9-56.1 44.5z" transform="translate(-262.2)"/><path class="cls-2" d="M1333.6 1070.7h58c20.3-73.7 43.8-171.4 50-240.4 0 0-36.3 131.6-108 240.4z" transform="translate(-262.2)"/><path class="cls-2" d="M1022.6 1070.7c-22.4-27.7-48.8-59.2-63.2-103.4 6 42.4 23.5 76.1 42.4 103.4z" transform="translate(-262.2)"/><path class="cls-2" d="M1133.7 1028.6s19 13.6 41.7 42.1h40.5a333.5 333.5 0 0 0-18-62c-13.8-29.5-39.8-76.4-76.8-102.6 0 0 16.3 89.3 12.6 122.5z" transform="translate(-262.2)"/><path class="cls-2" d="M1245.7 889s22 38.5 21 75.2c5 4.2 54.5 61 60 92.3 0 0-2.6-82.3-14.7-108 0 0-34.6-50.7-66.3-59.4z" transform="translate(-262.2)"/><path class="cls-2" d="M987.8 1070.7c-10.6-19-20.7-38.9-27.7-56.7v56.7z" transform="translate(-262.2)"/><path class="cls-2" d="M1328.7 717.7s18 38.4 13.6 73c0 0 46.9 55.8 63.4 83.7 0 0-7.2-68.7-16.8-94.3 0 0-33.4-47.8-60.2-62.4z" transform="translate(-262.2)"/><path class="cls-2" d="M1320.3 1070.7l4-6.8-15.3 6.8z" transform="translate(-262.2)"/><path class="cls-2" d="M1359.1 936l-24.6 110.7c23.8-41.6 58.1-112.2 77-153.2z" transform="translate(-262.2)"/><path class="cls-2" d="M1411.8 838.7l24.6-11.2c-6.5 18.4-14 34.5-21.2 53.2z" transform="translate(-262.2)"/><path class="cls-2" d="M1139.7 1070.7c-8.4-25.4-15.3-36.5-15.3-36.5s-49-29.3-61.1-50.1c0 0-1.3 57.7 7.7 79 0 0-21.5-10.4-30.2-22a91 91 0 0 0 8.1 29.6z" transform="translate(-262.2)"/><path class="cls-2" d="M1036.6 1070.7a43 43 0 0 1-6.4-3.1 31 31 0 0 0 1 3.1z" transform="translate(-262.2)"/><ellipse class="cls-2" cx="1194" cy="938.8" rx="7.9" ry="7.4" transform="rotate(-77.9 1062.9 1100.9)"/><ellipse class="cls-2" cx="1215.2" cy="977.4" rx="6.4" ry="6" transform="rotate(-80.5 1084.1 1132.2)"/><ellipse class="cls-2" cx="1233.9" cy="1008.6" rx="4" ry="3.7" transform="rotate(-80.5 1102.8 1163.5)"/><ellipse class="cls-2" cx="1247.4" cy="1032.9" rx="3.1" ry="2.9" transform="rotate(-80.5 1116.3 1187.7)"/><ellipse class="cls-2" cx="1259.3" cy="1052.6" rx="2" ry="1.9" transform="rotate(-80.5 1128.2 1207.5)"/><path class="cls-2" d="M1203.8 946.2a10.8 10.8 0 0 1-10.1 6.5l9.5 17.4c3.5-7 10-6.5 10-6.5z" transform="translate(-262.2)"/><path class="cls-2" d="M1225.3 982.5a10.8 10.8 0 0 1-10 6.4l10.4 15.8c1.6-6.2 7-5.2 7-5.2z" transform="translate(-262.2)"/><path class="cls-2" d="M1241 1012.6a7.8 7.8 0 0 1-7.3 4.6l7.5 11.3c1.2-4.4 5-3.7 5-3.7z" transform="translate(-262.2)"/><path class="cls-2" d="M1253.7 1037.2a5.7 5.7 0 0 1-5.4 3.4l5.6 8.4c.8-3.3 3.6-2.8 3.6-2.8z" transform="translate(-262.2)"/><path class="cls-2" d="M1270 1070.7l-5.9-14.4a3.5 3.5 0 0 1-3.5 2.4l9 12z" transform="translate(-262.2)"/><circle id="_Path_" data-name="&lt;Path&gt;" class="cls-2" cx="735.5" cy="46.3" r="29.9"/><path class="cls-2" d="M959.7 52c8 27.2 20.6 26.4 20.6 26.4-13.3 7.9-20.6 33-20.6 33z" transform="translate(-262.2)"/><path class="cls-2" d="M960 195.2c12.6 50.6 25 70.6 25 70.6s-15.7 4.8-25 23.4z" transform="translate(-262.2)"/><path class="cls-2" d="M997.6 288.5S985.8 258.7 982 247l15.6-5.3c-2 16 0 46.8 0 46.8z" transform="translate(-262.2)"/><path class="cls-2" d="M980.2 241c-12.8-33.7-1.7-36.3 1.9-76l-.1 3.7c2.3 33 24.8 39.7 15.6 66.7z" transform="translate(-262.2)"/><path class="cls-2" d="M959.7 0v46.4s1.4-21.9 26.7-37.5L981 0z" transform="translate(-262.2)"/><path class="cls-2" d="M1001.6 0c-2.6 2.6-5.5 5.2-8.7 7.9a44 44 0 0 1 29.9 8.4A102 102 0 0 0 1039.6 0z" transform="translate(-262.2)"/><path class="cls-2" d="M1066 0c-12.8 13.7-25.2 23.8-37.4 21.6 8.8 17 6.6 24.8 6.6 24.8 29.5-6.2 38.3-23.6 50.5-46.4z" transform="translate(-262.2)"/><path class="cls-2" d="M1048.5 0a65.3 65.3 0 0 1-15.6 16.3A142 142 0 0 0 1056.6 0z" transform="translate(-262.2)"/><path class="cls-2" d="M1292.2 116.8s27.1 7 52.2 14c8.5 2.4 23.6-15.5 23.6-15.5l-75.8 1.5z" transform="translate(-262.2)"/><path class="cls-2" d="M1257 88.5s64.8-12.2 110.1-12.6c9.8-.1 19.3-31 19.3-31s-43.9 17.4-129.3 43.6z" transform="translate(-262.2)"/><path class="cls-2" d="M1289.7 0c-24.2 18-47 36-61.4 49.5 0 0 71.4-29.3 121.2-49.5z" transform="translate(-262.2)"/><path class="cls-2" d="M1453.6.3a124 124 0 0 1-56.8 40.4s-1.2 19.7-12.4 35c0 0 52.3 3 65-8.4 12-10.6 14-46.7 14-67a46.6 46.6 0 0 1-9.8 0z" transform="translate(-262.2)"/><path class="cls-2" d="M1381.2 115.3s-1.9 9.8-21.8 21c0 0 28.7 12.7 66.8 33.8 29.2 16.2 28-81.6 28-81.6s-20.6 31.8-73 26.8z" transform="translate(-262.2)"/><path class="cls-2" d="M1370.2 633.9c40.5 2.3 79.1 104.8 208.6 141.7 0 0-30.8 5.6-88.4-15.2 0 0 19.8 17.5 100.7 61.2-152-52.3-203.4-59.3-240-115.4 0 0 7.9-27.5 8.2-40.4l11.4 6c5.5-14.2-.5-38-.5-38z" transform="translate(-262.2)"/><ellipse class="cls-2" cx="1320.2" cy="775.8" rx="7" ry="6.5" transform="rotate(-84.6 1189.1 919.8)"/><ellipse class="cls-2" cx="1342.7" cy="807.3" rx="5.7" ry="5.3" transform="rotate(-87.2 1211.6 945)"/><ellipse class="cls-2" cx="1362.3" cy="832.7" rx="3.5" ry="3.3" transform="rotate(-87.2 1231.2 970.4)"/><ellipse class="cls-2" cx="1376.6" cy="852.5" rx="2.7" ry="2.5" transform="rotate(-87.2 1245.5 990.2)"/><ellipse class="cls-2" cx="1389" cy="868.6" rx="1.8" ry="1.7" transform="rotate(-87.2 1257.9 1006.3)"/><path class="cls-2" d="M1329.6 781.2a9.5 9.5 0 0 1-8.2 6.7l10 14.3c2.4-6.6 8.2-6.7 8.2-6.7z" transform="translate(-262.2)"/><path class="cls-2" d="M1352.1 810.7a9.5 9.5 0 0 1-8.2 6.7l10.8 12.7c.7-5.6 5.5-5.2 5.5-5.2z" transform="translate(-262.2)"/><path class="cls-2" d="M1368.9 835.4a6.8 6.8 0 0 1-5.9 4.9l7.7 9c.6-4 4-3.7 4-3.7z" transform="translate(-262.2)"/><path class="cls-2" d="M1382.5 855.7a5 5 0 0 1-4.3 3.5l5.7 6.8a2.8 2.8 0 0 1 2.9-2.8z" transform="translate(-262.2)"/><path class="cls-2" d="M1393.6 871.3a3 3 0 0 1-2.9 2.5l9.8 10.2z" transform="translate(-262.2)"/><path class="cls-2" d="M1152.5 1070.7a323 323 0 0 1-15.4-29.6c2.4 11 4.9 20.8 7.4 29.6z" transform="translate(-262.2)"/><path class="cls-2" d="M1167.3 1070.7a147.2 147.2 0 0 0-18.6-18c4.5 6.3 8.5 12.3 12.2 18z" transform="translate(-262.2)"/><path class="cls-2" d="M1255 1070.7l-63.3-103.4c18.4 30.1 30.6 68.4 38.5 103.4z" transform="translate(-262.2)"/><path class="cls-2" d="M1224 965.1l55.1 98.8 33-16.9s-31-9.7-88.2-81.9z" transform="translate(-262.2)"/><path class="cls-2" d="M1309 1036c-33.5-14.6-83-77.8-83-77.8a90.6 90.6 0 0 0-10.5-46s21.7 4.5 40.1 44.4c9.7 21 26.1 32.7 53.4 79.3z" transform="translate(-262.2)"/><path class="cls-2" d="M1299.5 883.1c8 80.3 33.7 53.4 32.4 143.5 0 0 5.8-20.8 7.4-35 2.4-57.9-26-61.7-39.8-108.5z" transform="translate(-262.2)"/><path class="cls-2" d="M1291.5 847.6c25.4 76.8 50 68.1 52.2 136.2 0 0 4.3-20.2 4.3-32.7-.6-51.9-37.7-74.3-56.5-103.5z" transform="translate(-262.2)"/><path class="cls-2" d="M1270 863.7s15.3 18.2 16.2 43.3l17.3 22.5c-8.3-21.3-9.3-46.4-9.3-46.4s-12.8-16.3-24.1-19.4z" transform="translate(-262.2)"/><path class="cls-2" d="M1299.5 849.4a46.9 46.9 0 0 0 18.2 4 84.6 84.6 0 0 1-7-24.2s39 18.4 68.4 83.7c0 0-8.1-6.8-23.1-1.8 0 0 .3 17.4-3 28.9 0 0 1.4-39-53.5-90.6z" transform="translate(-262.2)"/><path class="cls-2" d="M1312.2 789l-5 7.8s0 24 4.4 25.6c32.3 12.2 54.8 63.4 89 72.6z" transform="translate(-262.2)"/><path class="cls-2" d="M1389 759.7s16.7 23 22.6 69.5l30.9-13.8 39.1 8.4-23.7-29.3s-48.7-18.7-69-34.8z" transform="translate(-262.2)"/><path class="cls-2" d="M984.1 0a14.8 14.8 0 0 0 6 4.9s3-1 7.2-4.9z" transform="translate(-262.2)"/><path class="cls-2" d="M1063.3 46.4l-28.6 6.4c-6 33.6-41.8 29-41.8 29-19.5 6-33.3 53.4-33.3 53.4V178l9.6 21.4c9.3-23.7 12-51.4 12-51.4-.7 16.3 19.7 55.3 19.7 55.3s7.6-80.9 62.4-157z" transform="translate(-262.2)"/><path class="cls-2" d="M1199.9 452s8.5 8.5 12.7 25.5c6.6 26.3 11.8 99.4 11.8 99.4 9.5-33.4 1.5-82.4 1.5-82.4 21.8 55 4 147.7 4 147.7 41-105.1 15-156.3 15-156.3 11.1 6 17 22.6 17 22.6s-.8-16.2-2.5-21.6c-6.2-20-7.9-27.4-38.2-45.6z" transform="translate(-262.2)"/><path class="cls-2" d="M1256.2 511.5c82.3 53.7 118.7 108 118.7 108s-10.5-10-21.3-10.6c14.8 16.2 10.3 46.4 10.3 46.4-4.5-8-16.8-17-16.8-17 4.9 25.6-6.8 67-6.8 67-14.1-68.5-85-122.3-85-122.3 6.6-44.6 1-71.5 1-71.5z" transform="translate(-262.2)"/><path class="cls-2" d="M1252.7 589c67.4 47.3 84.7 124.3 84.7 124.3s-7.4-8-17.7-10.3c10.9 15.3 3.5 48 3.5 48a63.4 63.4 0 0 0-12.4-16c3.6 24-4.1 54-4.1 54-10.4-64.5-74-137-74-137 11.8-31 20-63 20-63z" transform="translate(-262.2)"/><path class="cls-2" d="M1215.6 298.1c-25.4-4.9-51.6-5-51.6-5 33.6 5.8 30 50 30 50l21.6-45z" transform="translate(-262.2)"/><path class="cls-2" d="M1154.1 293.1s-59 5.6-66.5 45.9c0 0 0-48.6 66.5-45.9z" transform="translate(-262.2)"/><path class="cls-2" d="M1085.9 350.8c1.7 43.5 46.7 29.9 46.7 29.9-28.5 19-54.5 16.4-54.5 16.4-1.7-19.8 7.8-46.3 7.8-46.3z" transform="translate(-262.2)"/><path class="cls-2" d="M1144.5 378.3c16.5-3.8 47.7-31.4 47.7-31.4-22.8 38.4-87 54.1-87 54.1 23.5-13 39.3-22.7 39.3-22.7z" transform="translate(-262.2)"/><path class="cls-2" d="M1082.8 343.2c-14 35.8-8.2 61-8.2 61l23.5-3.2c-15.1 15.7-40.6 36.4-40.6 36.4-4.5-59 25.3-94.2 25.3-94.2z" transform="translate(-262.2)"/><path class="cls-2" d="M1107.8 296c-13 4.1-13-40.1 0-55 0 0 1.6 7.4 5.5 7.6 0 0 1.2-29.8 25.6-48.2l6 8.8s20-15 52-12.5c0 0-12.4 7.5-7.6 12.5 0 0 23.4 2 43.4 14.3l-11.4 6c27.2 13.4 30.5 33 30.5 33-8.6-2.2-12.8-.6-12.8-.6 7 14-1 31.1 12.8 37.7-16.7 4.4-28.6-6.6-28.6-6.6s-46.5-19-115.4 3z" transform="translate(-262.2)"/><path class="cls-2" d="M1213.5 313.3c.7-4.2 20.6-1.5 20.6-1.5l-6.8 12.6 21.2-7c.7 18.2-22.7 31.8-14.3 37.1 6.1 3.9 17.6-1.2 17.6-1.2-14.7 50.2-85 70.3-161.4 61 0 0 110.7-23.8 123-101z" transform="translate(-262.2)"/><ellipse id="_Path_2" data-name="&lt;Path&gt;" class="cls-2" cx="983.1" cy="345.7" rx="5.1" ry="5.1"/><ellipse id="_Path_3" data-name="&lt;Path&gt;" class="cls-2" cx="998.3" cy="331.2" rx="5.1" ry="5.1"/><ellipse id="_Path_4" data-name="&lt;Path&gt;" class="cls-2" cx="1013.5" cy="314" rx="5.1" ry="5.1"/><path class="cls-2" d="M1090.4 422.8c65.3 6.7 97.3-8.2 97.3-8.2l-16.6 18.7c27.4-3.2 42.4 4.1 42.4 4.1s-24.7 10-21.7 14.6c16.2 24.5 20 63.5 20 63.5-48.2-60-121.4-92.7-121.4-92.7z" transform="translate(-262.2)"/><path class="cls-2" d="M1050.6 400.8S993 317.6 1023 295.9c0 0 11.7-12 8-34.9 0 0 18.2-7 28.7-3.5 0 0-12.2-13.6-17.1-26.7 0 0 26.6-4.7 21.8-30.1l23.2 5.4a317.3 317.3 0 0 1-3.5-27.6c22.8 1.2 27-17.5 27-17.5l12 7.6c6.6-19 10.4-24.1 10.4-24.1 19 15.9 30.5-4.8 30.5-4.8 4.4 4.8 11 14.3 11 14.3a61.6 61.6 0 0 0 16.8-18.7c15.6 17.1 30.1 3 30.1 3l5 11.3c35.9-8 79.3-.7 79.3-.7-79.2 22.4-95.6 44.8-109.4 43-25.7-3.3-48.8 7.8-48.8 7.8l-7.8-8.2c-17.1 6-30 40.4-30 40.4l-6.4-2.6c-20.8 42.9-5.7 74.7-5.7 74.7s-39 24.3-47.5 96.8z" transform="translate(-262.2)"/><path class="cls-2" d="M961.8 300.4C986.8 507.3 1122 427.6 1122 613c-39.8-153.3-179.2-148-160.2-312.5z" transform="translate(-262.2)"/><path class="cls-2" d="M1260.4 357.1c1.7-3.7 15.2-6.3 15.2-6.3l-5 20.6c17-9.2 32.4-5.2 32.4-5.2l-11.6 18.5a94.2 94.2 0 0 1 37.3 5.8l-33.6 6.6c18.7 0 36 10.3 36 10.3-56.6 15.2-115.5-1.7-115.5-1.7s29.6-15.2 44.8-48.6z" transform="translate(-262.2)"/><path class="cls-2" d="M1207.6 408.4l-9.8 4c-.2.6-11.2 13.8-11.2 13.8a71.4 71.4 0 0 1 32.2 6.5s61.6 28 87.4 74.2a150.2 150.2 0 0 0-3.2-29.2h25.7c-9.2-12.7-25.7-25.4-25.7-25.4s15.9 1.5 25.7-6.3l-22.5-8.6c12.4-7.3 26.8-25 26.8-25s-77.6 18.8-125.4-4z" transform="translate(-262.2)"/><path class="cls-2" d="M1214.8 196.1c47-26.4 88.2-51 138.6-32 0 0-25.4 3-40.6 10.7 0 0 53 4.7 83.2 19.2 0 0-105.4 32.2-151.4 21.3-9-2.2-29.8-19.2-29.8-19.2z" transform="translate(-262.2)"/><path class="cls-2" d="M1201.3 199.8c-3.1-.6-7.3 5.6-7.3 5.6s18.8 3.3 27.8 7.6c0 0-14.7-12-20.5-13.2z" transform="translate(-262.2)"/><path class="cls-2" d="M1221.7 298.7c-3.5.6-4.4 9.2-4.4 9.2 17.3-3.1 24.9-1 24.9-1z" transform="translate(-262.2)"/><path class="cls-2" d="M1245.2 225.6s76.4 4.4 181.7-32.3c0 0 11.5-4 29.5 3.1 0 0-106.6 65-211.2 29.2z" transform="translate(-262.2)"/><path class="cls-2" d="M1265.5 300.4c37.5 10.8 92.4-59.4 92.4-59.4-70 13.5-120.6-9-120.6-9 23.1 16.5 23.1 38.9 23.1 38.9s-6.8-2.8-12.2-2.8c0 0-.6 27.1 17.3 32.3z" transform="translate(-262.2)"/><path class="cls-2" d="M1366.6 239.8c-48.7 64-80.1 66.7-80.1 66.7 6.4 21-23.4 41.6-23.4 41.6s13.5-2.9 17.6-5c58.2-29 85.9-103.3 85.9-103.3z" transform="translate(-262.2)"/><path class="cls-2" d="M1321.4 511.6c-19.2 25.6 40.5 81 40.5 81s-15.1-135 11.2-199.6c18.3-45-30-97-30-97S1325 333 1285 349.1c0 0-4 3.2-4.3 10.8 0 0 21.9-3 31.4 2.4 0 0-7.5 9-10.2 16.3 0 0 24.8-2.9 36.5 7.1 16 13.6 17.4 80-17 125.8z" transform="translate(-262.2)"/><path class="cls-2" d="M1330 470.8s-6.2-8.4-12.4-13.4a52.9 52.9 0 0 0 19.8-11.7s-2 15.2-7.4 25z" transform="translate(-262.2)"/><path class="cls-2" d="M1317.6 436.7s16.5 6.4 20 2.7c4-4.3 4.8-21.6 2.7-29.5 0 0-10.6 19-22.7 26.8z" transform="translate(-262.2)"/><path class="cls-2" d="M1334 394.8c-3.3-1.9-15.6 2-15.6 2s16.4 5.3 20.6 6.8c0 0-2.5-7.4-5-8.8z" transform="translate(-262.2)"/><path class="cls-2" d="M1374.2 235.5a247 247 0 0 0 88-35.7c41.8-15.3 96.6-3.4 96.6-3.4-76.7-1.9-114.7 58.2-195.8 66.7 3.6-6.9 11.2-27.6 11.2-27.6z" transform="translate(-262.2)"/><path class="cls-2" d="M1360.7 268.1c60.4 4.2 85-7.6 113.3-10 47.7-4.3 113.6 24.2 113.6 24.2-89-24.6-143.1 22.2-240.2 8.4 5.9-8.5 13.3-22.6 13.3-22.6z" transform="translate(-262.2)"/><path class="cls-2" d="M1061.1 445.7c102 64.8 42.7 130.7 104.6 182.6-31.6-37-6.2-170.6-104.6-182.6z" transform="translate(-262.2)"/><path class="cls-2" d="M1077 429l-14.2 11.5c94.8 14.7 53.4 90.2 135.6 151.5-33.3-33.3-36.3-135.8-121.4-163z" transform="translate(-262.2)"/><path class="cls-2" d="M1108 438.3c63.1 45.5 53.5 83 103.7 102.6-25.2-17.4-43.9-77.6-103.7-102.6z" transform="translate(-262.2)"/><path class="cls-2" d="M1358.7 301.5s23.6 32.5 27.5 62l47.4-64.8s-53.9 5.3-75 2.8z" transform="translate(-262.2)"/><ellipse id="_Path_5" data-name="&lt;Path&gt;" class="cls-2" cx="1173.1" cy="346.2" rx="14.4" ry="14.5"/><ellipse id="_Path_6" data-name="&lt;Path&gt;" class="cls-2" cx="1225.5" cy="378.3" rx="9.4" ry="9.4"/><ellipse id="_Path_7" data-name="&lt;Path&gt;" class="cls-2" cx="1266.2" cy="402.1" rx="5.8" ry="5.8"/><ellipse id="_Path_8" data-name="&lt;Path&gt;" class="cls-2" cx="1295.6" cy="419.2" rx="4.5" ry="4.5"/><ellipse id="_Path_9" data-name="&lt;Path&gt;" class="cls-2" cx="1318.4" cy="434" rx="3" ry="3"/><path class="cls-2" d="M1370.5 465.4s-4 38.7-2.4 65.4c77.6 4.7 171.4 176.3 171.4 176.3s-51.6-174.4-169-241.7z" transform="translate(-262.2)"/><path class="cls-2" d="M1367.7 539.5a239.5 239.5 0 0 0 0 38.7l1.8.6c77.6 4.1 169 172.7 169 172.7s-82.2-201.4-170.8-212z" transform="translate(-262.2)"/><path class="cls-2" d="M1391.6 389c71.2 69.1 131.9 33.7 263.8 187.4-79.7-152.9-231.5-173-240.7-223.2z" transform="translate(-262.2)"/><path class="cls-2" d="M1456.3 349.5a16.8 16.8 0 0 1-9.4 15.7l25.4 15.4a17 17 0 0 1 9.5-15.7z" transform="translate(-262.2)"/><path class="cls-2" d="M1501 375.7a16.8 16.8 0 0 1-9.4 15.7l25.6 12.6c-2.2-9.2 6-11.7 6-11.7z" transform="translate(-262.2)"/><path class="cls-2" d="M1538.6 400.4a12 12 0 0 1-6.8 11.3l18.4 9a6.7 6.7 0 0 1 4.2-8.4z" transform="translate(-262.2)"/><path class="cls-2" d="M1565.8 419.3a8.9 8.9 0 0 1-5 8.3l13.6 6.7a5 5 0 0 1 3.2-6.2z" transform="translate(-262.2)"/><path class="cls-2" d="M1586.7 433.6a5.4 5.4 0 0 1-3.2 5.7l22.6 9.4z" transform="translate(-262.2)"/><ellipse id="_Path_10" data-name="&lt;Path&gt;" class="cls-2" cx="1275.9" cy="543" rx="8.6" ry="8.6"/><ellipse id="_Path_11" data-name="&lt;Path&gt;" class="cls-2" cx="1307.7" cy="570.4" rx="7" ry="7"/><ellipse id="_Path_12" data-name="&lt;Path&gt;" class="cls-2" cx="1334" cy="593.8" rx="4.3" ry="4.3"/><path class="cls-2" d="M1551.3 544.7a12.5 12.5 0 0 1-9.3 10l17 13c1.6-8.5 7.3-9.1 7.3-9.1z" transform="translate(-262.2)"/><path class="cls-2" d="M1581 571.4a12.2 12.2 0 0 1-9 10l15.7 12.1a7 7 0 0 1 6.1-7.6z" transform="translate(-262.2)"/><path class="cls-2" d="M1604.4 594.5a9 9 0 0 1-6.6 7.3l12.1 9.3a5 5 0 0 1 4.4-5.5z" transform="translate(-262.2)"/><ellipse id="_Path_13" data-name="&lt;Path&gt;" class="cls-2" cx="1129.5" cy="429.3" rx="17.4" ry="17.4"/><ellipse id="_Path_14" data-name="&lt;Path&gt;" class="cls-2" cx="1193.7" cy="480" rx="11.3" ry="11.4"/><ellipse id="_Path_15" data-name="&lt;Path&gt;" class="cls-2" cx="1238.7" cy="513.2" rx="8.8" ry="8.8"/><path class="cls-2" d="M1416.7 432.2a25.2 25.2 0 0 1-16.8 21.8l35.4 27.3a25.5 25.5 0 0 1 16.8-21.8z" transform="translate(-262.2)"/><path class="cls-2" d="M1472.3 478.6a20.2 20.2 0 0 1-13.4 17.5l29 18.6c-1.4-11.3 8.6-13.2 8.6-13.2z" transform="translate(-262.2)"/><path class="cls-2" d="M1513.6 513.5c-1.3 10.7-9.9 12.3-9.9 12.3l22 16.3c-.8-8.7 8-11.3 8-11.3z" transform="translate(-262.2)"/><path class="cls-2" d="M1444.1 323.5l9.5-15.6c29.2-14.3 81.3 6.5 125.3-.7-29 16.3-68-.1-83.9 16.3 41.9-9.7 41 5 96.9 13.4-46.4 1.3-61.4-9-75.4 5.7 32-12.4 48.9 13.9 88.2 23.7-19.6 4.8-38.9-11.8-61.1-2 45.2 4 39.4 30.3 87.3 39-24.7 2.7-51-16.2-63-14 0 0 5.9 11.2 28.6 22.3 31.1 15.2 43 14.8 43 14.8s-38.1 4-78.4-23c0 0-29-20.2-117-80z" transform="translate(-262.2)"/><path class="cls-2" d="M1448.7 384.4s106.9 54.8 208.6 158.4c0 0-44-65.6-95-102.5-21.8-15.8-62.6-32.9-113.6-56z" transform="translate(-262.2)"/><path class="cls-2" d="M1467 448.9l180.4 168.9s-47.8-113.6-180.4-169z" transform="translate(-262.2)"/><path class="cls-2" d="M1450.7 501.8l189.8 157s-121-47.9-189.8-157z" transform="translate(-262.2)"/><path class="cls-2" d="M1026.6 487.2s-50.2 84.8 24 141.7c0 0-61.8-15.9-87.4-83.9V398.6c19.2 53.3 51.2 55.5 63.4 88.6z" transform="translate(-262.2)"/><path class="cls-2" d="M987.4 274.5S965.8 285 964 296.2c0 0 24.8 59.8 67.4 94 0 0-49-70.4-44-115.7z" transform="translate(-262.2)"/><path class="cls-2" d="M1031.4 402.9c-3.4-3.5-17.2-15.5-21.3-19.2a144.2 144.2 0 0 1-40-61.9c4.7 30.5 26.2 84.6 46.4 102.4z" transform="translate(-262.2)"/><path class="cls-2" d="M1035.7 407.2l-15 21.3s6.5 12.8 38.4 34.1c0 0-2-34.1-23.4-55.4z" transform="translate(-262.2)"/><path d="M1140.6 354.4c-30 6.8-46-9.5-42.5-20.4 10.9-33.6 68.2-33.2 68.2-33.2s23.5 42.4-25.7 53.6z" transform="translate(-262.2)"/><ellipse id="_Path_16" data-name="&lt;Path&gt;" class="cls-3" cx="1354.2" cy="612.1" rx="3.4" ry="3.4"/><circle id="_Path_17" data-name="&lt;Path&gt;" class="cls-3" cx="1374.4" cy="649" r="2.2"/><path class="cls-3" d="M1627 635.3a6.6 6.6 0 0 1-4.8 5.3l9 7a3.7 3.7 0 0 1 3.2-4.1z" transform="translate(-262.2)"/><ellipse id="_Path_18" data-name="&lt;Path&gt;" class="cls-2" cx="885.3" cy="312" rx="3.9" ry="3.9"/><ellipse id="_Path_19" data-name="&lt;Path&gt;" class="cls-2" cx="896.6" cy="316.8" rx="2.6" ry="2.6"/><circle id="_Path_20" data-name="&lt;Path&gt;" cx="1173.7" cy="799.1" r="5.4"/><circle id="_Path_21" data-name="&lt;Path&gt;" cx="1184.3" cy="38.4" r="7.3"/><circle id="_Path_22" data-name="&lt;Path&gt;" cx="1174" cy="138.9" r="7.9"/><path d="M1222.9 0l-24 15.9s9.8 4.4 14.6 17l25-32.9z" transform="translate(-262.2)"/><path d="M1243.2 63.6a21.2 21.2 0 0 1 5.5 14l38-25.4z" transform="translate(-262.2)"/><path d="M1264.9 98.1a7 7 0 0 1 .9 6.1l17.8-4.8z" transform="translate(-262.2)"/><path d="M1090.4 302c-7.4 6-14.9 17.4-14.9 17.4 0-29.9 12-48.5 12-48.5a82.4 82.4 0 0 0 3 31z" transform="translate(-262.2)"/></g><g id="left" class="cls-1"><path class="cls-2" d="M959.7 653.5s-21-8.9-28.5-8.4c-40.4 2.8-64.7 46-64.7 46 27.1-17.8 47-29 63.8-28.4 7.4.2 29.4 4 29.4 4z" transform="translate(-262.2)"/><path class="cls-2" d="M869.3 756.6a59.7 59.7 0 0 0 11.8 31.2c17.2 21.7 40.6 36 40.6 36s-27.5-24.9-39.1-58.9c0 0-13-2.9-13.3-8.3z" transform="translate(-262.2)"/><path class="cls-2" d="M865.7 725.9l-.2-5.6c-.3-9.5 0-17.1 1-20.2 4.1-14.1 49.9-28.5 49.9-28.5-20.2 11.9-31.4 25.8-36.6 40.4a61.1 61.1 0 0 0-2 6.8s-8.7-1.1-12 7z" transform="translate(-262.2)"/><path class="cls-2" d="M929.1 671.6c7.3-2.5 30.6 3.5 30.6 3.5v159.3c-20.8 2.6-30.6-6.3-30.6-6.3s16.3-52.8 15.3-71c-2.8-51.4-39.6-69.5-39.6-69.5s8.3-10.5 24.3-16z" transform="translate(-262.2)"/><path class="cls-2" d="M883.7 719.8s44.5 18.6 2.3 44.1c0 0 15.5 34.6 30.4 39 15.3 4.5 21.8-27.6 21.8-27.6s14.6-76.6-54.5-55.5z" transform="translate(-262.2)"/><path class="cls-2" d="M883.7 713.8c4-10.9 10.9-20.6 18-20.4 8.2.1 23.2 20 23.2 20-20.1-7-41.2.4-41.2.4z" transform="translate(-262.2)"/><path class="cls-2" d="M959.7 868.7c-30.7-3.7-71.8 5.7-71.8 5.7s30-37 71.8-35.8z" transform="translate(-262.2)"/><path class="cls-2" d="M959.7 889.2v-16c-20.2-5.3-67.3 3.5-67.3 3.5s42.8 16.5 67.3 12.5z" transform="translate(-262.2)"/><path class="cls-2" d="M821.2.6a48.1 48.1 0 0 1-8.5-.6h-64c71.6 78 136.4 169.5 167.8 298.1 7-105-34.6-206.1-95.3-297.5z" transform="translate(-262.2)"/><path class="cls-2" d="M724 0h-80c88.3 64.4 185.2 135.4 242.6 232.4-29.8-94-93-169.8-162.7-232.4z" transform="translate(-262.2)"/><path class="cls-2" d="M526.5 0h-47.8A71.2 71.2 0 0 0 491 10C564.9 65 716.8 76 834 171.9 741.2 63.9 610.4 27.9 526.5 0z" transform="translate(-262.2)"/><path class="cls-2" d="M742 129.1c-112-67.7-228.7-34-272-48.7 0 0 11.9 14.1 29 18.4 59.3 20 147.1-6.7 243 30.3z" transform="translate(-262.2)"/><path class="cls-2" d="M676 120.7c-98.2-6-164.2 57.4-198.2 62.8 0 0 12.9 5.2 25.8 2 46.5-7.4 95.6-56 172.4-64.8z" transform="translate(-262.2)"/><path class="cls-2" d="M959.7 572.8v57s-43.3 0-68.8 15.3c-6.2 3.7-28.2-5.5-28.2-5.5s62.2 5.5 97-66.8z" transform="translate(-262.2)"/><path class="cls-2" d="M736.6 705.6c-27.7 36.3 16.1 97.7 16.1 97.7-44-40.4-43.1-73-47.7-99-7.4-41.8 6.2-146.9 6.2-146.9s-1.3 58.2 5 78.1c20.4 64.3 20.4 70.1 20.4 70.1z" transform="translate(-262.2)"/><path class="cls-2" d="M883.7 889.8c22.9 5.6 50.3 11 76 8.2v34.3c-41.7-2.8-45.4-5.6-59.8-11.1l-12-4.7z" transform="translate(-262.2)"/><path class="cls-2" d="M883.4 915c-111.3-44.9-130.7-84.8-130.7-84.8C793.7 854 829.5 876 879 888z" transform="translate(-262.2)"/><path class="cls-2" d="M750.2 737c6.6-21.4 37.3 3.6 38.6 43.1 1.8 55.7 20.4 68 52.2 89.1-11.1-3.4-114.7-55-90.8-132.2z" transform="translate(-262.2)"/><path class="cls-2" d="M885.1 876.4s-19.7 4.3-39.3-5.6z" transform="translate(-262.2)"/><path class="cls-2" d="M933.8 837s-29.3 5.6-50.1 29.8c-7.1 8.2-47.3-6.3-47.3-6.3 26.3-21 52.4-42 73-39.3 7.1 1 9.6 9 24.4 15.8z" transform="translate(-262.2)"/><path class="cls-2" d="M695.8 650.4s-44.3 64.3-59.1 89.5c0 0 20.3-15.3 32.5-12.6a53.8 53.8 0 0 0-9.6 13.4h16.6c-3.2 4.6-5 12.1-5 12.1s8-2.3 11.6-.8c-4.9 6.7-4.4 10.7-4.4 10.7s5-2.5 9.8-1.5c0 0-4.1 6.5-3.6 10.3 0 0 7-3.1 9-2.4l11.3 12.4 16.6 15.3a24 24 0 0 0-1.1 12.1s9.2-2.5 16.2 0-2.8 10.9 0 16.2c0 0 7.8-4.1 11-2.2 18.2 10.8 58.7 30.5 58.7 30.5-32.5-24.4-48-42.3-48-42.3s-65.4-35.4-62.5-160.7z" transform="translate(-262.2)"/><path class="cls-2" d="M882 496.7s48.5 69.8-31.7 137.3c-7.3 6.2 35.2 22 35.2 22-21.6 21.4-28.5 30.2-26.6 60.1.8 12.6 2.6 33 4 46 2.2 18 12.3 29.3 28 42.9v9.7c-32.5 21.3-58 40.1-58 40.1-44.3-16.2-29-82.6-45.7-106.4-2.5-3.6-1-17.7-1-17.7 20 11.4 38.8 34.8 38.8 34.8-.3-36.5-10.8-56.8-13.6-79.2C797 573.3 862.7 542 882 496.7z" transform="translate(-262.2)"/><path class="cls-2" d="M478 710.5l9.9 16.2"/><path class="cls-2" d="M742.1 767.4c-.2-32.5 4.8-38.1 10.6-42.3 7-5.1 17.7 1.6 27.4 15 0 0 1.2-11.8 0-14.6-1.9-5-22.2-16.6-22.2-16.6a14 14 0 0 0-15.3 1c-9.7 6.8-6.3 32.4-5 39.2a355 355 0 0 0 4.5 18.3z" transform="translate(-262.2)"/><path class="cls-2" d="M634.5 749c-17 21.6-10.6 62.7-24 97 0 0 22.9-6.7 33.8-17.4 0 0-18.6 30-20.7 47.4 0 0 13-21.2 44.6-21.2 0 0-24.7 14.5-28.8 45.5 0 0 9.8-12.8 53.1-25.9 32-9.7 56.2-40.9 56.2-40.9-5.8-6.4-16-.3-16-.3s-6-9.7-4.2-17.6c0 0-7-1.2-13 1.1 0 0-4.2-11.2-2.8-17.6l-21.4-22.3c-5.2-1.2-10.5 2-10.5 2a22.3 22.3 0 0 1-.7-11s-2.8-.7-5.7 2c0 0-1.4-8 .4-12.8 0 0-2.4-.8-8.3 2.2 0 0-.4-10 1.7-13.4 0 0-9.4-.4-15.5.8a41.6 41.6 0 0 1 4-12.3S640 742 634.5 749z" transform="translate(-262.2)"/><path class="cls-2" d="M959.7 940c-33.6 104.2-80.8 125.4-80.8 125.4 16.5-34.4 14.7-62.7 14.7-62.7-6.2 15.8-34.7 46-34.7 46 9.3-43.4-7.4-101.2 28.5-123.5 0 0 26.8 10.1 36.4 11.7 9 1.5 36 3 36 3z" transform="translate(-262.2)"/><path class="cls-2" d="M878.6 922.6c-28.8 31.7-17 60.4-50.4 76.3 0 0 4.5-22.5-5.1-33.3 0 0-5 38.6-28.8 59.8 0 0-5-93.1 20-133.2 0 0 19.4 11.2 30.4 17.1a405 405 0 0 0 34 13.3z" transform="translate(-262.2)"/><path class="cls-2" d="M808 888s-55.3 34.4-71 70.5c0 0-2.4-26.2 3.8-47.4 0 0-30.3 13-41.7 41.6 0 0 4.2-35.5 22.4-52.4 0 0-39.4-1.5-59.6 45.5 0 0 0-33.1 22-54.3 15-14.7 36.8-14 68-48 0 0 16.1 23.9 56.1 44.5z" transform="translate(-262.2)"/><path class="cls-2" d="M585.9 1070.7C514.2 962 477.8 830.2 477.8 830.2c6.2 69.1 29.7 166.8 50 240.5z" transform="translate(-262.2)"/><path class="cls-2" d="M917.6 1070.7c19-27.3 36.5-61 42.4-103.4-14.4 44.2-40.8 75.7-63.2 103.4z" transform="translate(-262.2)"/><path class="cls-2" d="M744 1070.7c22.8-28.5 41.7-42.1 41.7-42.1C782 995.3 798.3 906 798.3 906c-37 26.2-63 73-76.8 102.5a333.6 333.6 0 0 0-18 62.1z" transform="translate(-262.2)"/><path class="cls-2" d="M673.7 889s-21.9 38.5-21 75.2c-5 4.1-54.4 61-59.9 92.3 0 0 2.6-82.3 14.7-108.1 0 0 34.5-50.7 66.2-59.4z" transform="translate(-262.2)"/><path class="cls-2" d="M959.4 1070.7V1014a511 511 0 0 1-27.7 56.8z" transform="translate(-262.2)"/><path class="cls-2" d="M590.8 717.6s-18.2 38.5-13.7 73c0 0-46.8 55.9-63.4 83.8 0 0 7.3-68.8 16.8-94.3 0 0 33.4-47.9 60.3-62.5z" transform="translate(-262.2)"/><path class="cls-2" d="M610.5 1070.7L595 1064l4 6.8z" transform="translate(-262.2)"/><path class="cls-2" d="M560.3 935.9l24.6 110.8c-23.7-41.6-58-112.2-77-153.3z" transform="translate(-262.2)"/><path class="cls-2" d="M507.6 838.6l-24.5-11.1c6.4 18.3 14 34.5 21.2 53.2z" transform="translate(-262.2)"/><path class="cls-2" d="M888.2 1070.7a31.1 31.1 0 0 0 1-3.2 43.3 43.3 0 0 1-6.4 3.2z" transform="translate(-262.2)"/><path class="cls-2" d="M870.5 1070.7c6.9-13.4 8.1-29.6 8.1-29.6-8.6 11.6-30.2 22-30.2 22 9-21.3 7.8-79 7.8-79-12.2 20.8-61.1 50-61.1 50s-7 11.2-15.3 36.6z" transform="translate(-262.2)"/><ellipse class="cls-2" cx="725.5" cy="938.8" rx="7.4" ry="7.9" transform="rotate(-12.1 594.2 2177.8)"/><ellipse class="cls-2" cx="704.2" cy="977.3" rx="6" ry="6.4" transform="rotate(-9.5 573 2552.1)"/><ellipse class="cls-2" cx="685.6" cy="1008.6" rx="3.7" ry="4" transform="rotate(-9.5 554.3 2583.4)"/><ellipse class="cls-2" cx="672" cy="1032.8" rx="2.9" ry="3.1" transform="rotate(-9.5 540.8 2607.6)"/><ellipse class="cls-2" cx="660.2" cy="1052.6" rx="1.9" ry="2" transform="rotate(-9.5 528.9 2627.4)"/><path class="cls-2" d="M715.6 946.2a10.8 10.8 0 0 0 10.2 6.5l-9.5 17.3c-3.6-7-10.2-6.4-10.2-6.4z" transform="translate(-262.2)"/><path class="cls-2" d="M694 982.4a10.8 10.8 0 0 0 10.2 6.5l-10.4 15.7c-1.6-6.2-7-5.1-7-5.1z" transform="translate(-262.2)"/><path class="cls-2" d="M678.4 1012.5a7.8 7.8 0 0 0 7.3 4.7l-7.5 11.3c-1.2-4.5-5-3.7-5-3.7z" transform="translate(-262.2)"/><path class="cls-2" d="M665.8 1037.2a5.7 5.7 0 0 0 5.3 3.4l-5.5 8.3c-.9-3.3-3.7-2.7-3.7-2.7z" transform="translate(-262.2)"/><path class="cls-2" d="M649.7 1070.7l9.1-12a3.5 3.5 0 0 1-3.5-2.5l-5.8 14.5z" transform="translate(-262.2)"/><circle id="_Path_23" data-name="&lt;Path&gt;" class="cls-2" cx="659.6" cy="46.3" r="29.9"/><path class="cls-2" d="M959.7 52c-8 27.2-20.5 26.4-20.5 26.4 13.3 7.9 20.5 33 20.5 33z" transform="translate(-262.2)"/><path class="cls-2" d="M959.4 195.1c-12.5 50.6-25 70.7-25 70.7s15.7 4.8 25 23.3z" transform="translate(-262.2)"/><path class="cls-2" d="M921.8 288.5s11.8-29.8 15.7-41.5l-15.7-5.3c2.1 16 0 46.8 0 46.8z" transform="translate(-262.2)"/><path class="cls-2" d="M939.3 241c12.8-33.8 1.6-36.3-2-76l.2 3.7c-2.3 33-24.8 39.7-15.7 66.7z" transform="translate(-262.2)"/><path class="cls-2" d="M938.5 0L933 9c25.4 15.6 26.7 37.4 26.7 37.4V0z" transform="translate(-262.2)"/><path class="cls-2" d="M879.9 0a102.1 102.1 0 0 0 16.7 16.3s10.3-9.2 30-8.4c-3.2-2.7-6.1-5.3-8.7-7.9z" transform="translate(-262.2)"/><path class="cls-2" d="M853.4 0h-19.6c12.1 22.8 21 40.1 50.4 46.3 0 0-2.2-7.7 6.6-24.7-12.2 2.2-24.6-7.9-37.4-21.6z" transform="translate(-262.2)"/><path class="cls-2" d="M871 0h-8.2a142 142 0 0 0 23.8 16.3A65.2 65.2 0 0 1 871 0z" transform="translate(-262.2)"/><path class="cls-2" d="M627.3 116.8s-27.2 6.9-52.2 14c-8.6 2.3-23.6-15.6-23.6-15.6l75.8 1.6z" transform="translate(-262.2)"/><path class="cls-2" d="M662.4 88.4s-64.7-12.1-110-12.6c-9.9 0-19.4-31-19.4-31s43.9 17.5 129.4 43.6z" transform="translate(-262.2)"/><path class="cls-2" d="M570 0c49.8 20.2 121.1 49.5 121.1 49.5A782 782 0 0 0 629.8 0z" transform="translate(-262.2)"/><path class="cls-2" d="M465.6 0H456c0 20.3 2 56.6 14 67.3 12.8 11.4 65 8.4 65 8.4-11.1-15.3-12.4-35-12.4-35a124 124 0 0 1-57-40.7z" transform="translate(-262.2)"/><path class="cls-2" d="M538.3 115.2s1.8 9.9 21.8 21c0 0-28.8 12.8-66.8 33.9-29.2 16.2-28.1-81.7-28.1-81.7s20.6 31.9 73 26.8z" transform="translate(-262.2)"/><path class="cls-2" d="M549.2 633.8c-40.5 2.4-79 104.8-208.5 141.8 0 0 30.8 5.5 88.4-15.2 0 0-19.9 17.5-100.7 61.2 152-52.3 203.3-59.3 240-115.5 0 0-8-27.4-8.2-40.3l-11.5 6c-5.5-14.3.5-38 .5-38z" transform="translate(-262.2)"/><ellipse class="cls-2" cx="599.2" cy="775.7" rx="6.5" ry="7" transform="rotate(-5.4 467.8 3557.9)"/><ellipse class="cls-2" cx="576.7" cy="807.3" rx="5.3" ry="5.7" transform="rotate(-2.8 445 6108.2)"/><ellipse class="cls-2" cx="557.2" cy="832.7" rx="3.3" ry="3.5" transform="rotate(-2.8 425.5 6133.7)"/><ellipse class="cls-2" cx="542.9" cy="852.5" rx="2.5" ry="2.7" transform="rotate(-2.8 411.2 6153.5)"/><ellipse class="cls-2" cx="530.5" cy="868.6" rx="1.7" ry="1.8" transform="rotate(-2.8 399 6170)"/><path class="cls-2" d="M589.9 781.2a9.5 9.5 0 0 0 8.2 6.7L588 802.1a9.6 9.6 0 0 0-8.2-6.7z" transform="translate(-262.2)"/><path class="cls-2" d="M567.3 810.7a9.5 9.5 0 0 0 8.2 6.7l-10.7 12.7c-.8-5.6-5.6-5.2-5.6-5.2z" transform="translate(-262.2)"/><path class="cls-2" d="M550.5 835.4a6.8 6.8 0 0 0 6 4.8l-7.8 9.1c-.5-4-4-3.7-4-3.7z" transform="translate(-262.2)"/><path class="cls-2" d="M537 855.7a5 5 0 0 0 4.3 3.5l-5.7 6.7a2.8 2.8 0 0 0-3-2.7z" transform="translate(-262.2)"/><path class="cls-2" d="M525.8 871.3a3 3 0 0 0 2.9 2.5l-9.8 10.2z" transform="translate(-262.2)"/><path class="cls-2" d="M774.9 1070.7c2.6-8.9 5-18.7 7.4-29.6a323.5 323.5 0 0 1-15.4 29.6z" transform="translate(-262.2)"/><path class="cls-2" d="M758.5 1070.7c3.7-5.7 7.8-11.7 12.2-18.1a147.3 147.3 0 0 0-18.6 18.1z" transform="translate(-262.2)"/><path class="cls-2" d="M689.2 1070.7c8-35 20.1-73.3 38.5-103.4l-63.2 103.4z" transform="translate(-262.2)"/><path class="cls-2" d="M695.5 965l-55.2 98.9-33-16.9s31-9.8 88.2-82z" transform="translate(-262.2)"/><path class="cls-2" d="M610.4 1036c33.6-14.6 83-77.9 83-77.9a90.6 90.6 0 0 1 10.6-46s-21.7 4.6-40.2 44.4c-9.7 21-26 32.7-53.4 79.4z" transform="translate(-262.2)"/><path class="cls-2" d="M620 883c-8 80.4-33.7 53.5-32.5 143.6 0 0-5.8-20.9-7.3-35.1-2.5-57.8 26-61.6 39.7-108.4z" transform="translate(-262.2)"/><path class="cls-2" d="M628 847.6c-25.5 76.8-50 68-52.2 136.1 0 0-4.4-20.2-4.4-32.6.6-52 37.8-74.3 56.6-103.5z" transform="translate(-262.2)"/><path class="cls-2" d="M649.4 863.6s-15.2 18.2-16.1 43.4L616 929.5c8.2-21.3 9.3-46.4 9.3-46.4s12.7-16.3 24-19.5z" transform="translate(-262.2)"/><path class="cls-2" d="M620 849.3a46.9 46.9 0 0 1-18.3 4.1 84.6 84.6 0 0 0 7-24.2s-39 18.4-68.4 83.7c0 0 8.2-6.8 23.1-1.8 0 0-.2 17.3 3 28.8 0 0-1.4-39 53.5-90.6z" transform="translate(-262.2)"/><path class="cls-2" d="M607.3 788.9l4.8 7.9s.1 24-4.2 25.6c-32.4 12.2-54.9 63.3-89 72.6z" transform="translate(-262.2)"/><path class="cls-2" d="M530.5 759.7s-16.8 23-22.6 69.5l-31-13.8-39 8.4 23.6-29.3s48.7-18.8 69-34.8z" transform="translate(-262.2)"/><path class="cls-2" d="M922.2 0c4.2 3.9 7.2 4.8 7.2 4.8a14.8 14.8 0 0 0 6-4.8z" transform="translate(-262.2)"/><path class="cls-2" d="M856.2 46.3l28.5 6.5c6.1 33.6 41.9 29 41.9 29 19.5 5.9 33.2 53.4 33.2 53.4V178l-9.5 21.4c-9.4-23.7-12-51.4-12-51.4.7 16.3-19.7 55.2-19.7 55.2s-7.7-80.8-62.4-156.9z" transform="translate(-262.2)"/><path class="cls-2" d="M719.6 452s-8.5 8.4-12.8 25.5c-6.6 26.3-11.7 99.4-11.7 99.4-9.5-33.4-1.6-82.4-1.6-82.4-21.8 55-4 147.7-4 147.7C648.6 537 674.7 486 674.7 486c-11.2 6-17 22.6-17 22.6s.7-16.2 2.4-21.7c6.3-20 8-27.4 38.3-45.5z" transform="translate(-262.2)"/><path class="cls-2" d="M663.2 511.5c-82.3 53.7-118.6 108-118.6 108s10.4-10.1 21.3-10.7c-14.9 16.3-10.4 46.4-10.4 46.4 4.5-8 16.8-16.9 16.8-16.9-4.8 25.6 6.9 67 6.9 67 14-68.6 85-122.3 85-122.3-6.7-44.7-1-71.5-1-71.5z" transform="translate(-262.2)"/><path class="cls-2" d="M666.7 589C599.4 636.3 582 713.3 582 713.3s7.5-8 17.7-10.3c-10.9 15.2-3.4 48-3.4 48a63.4 63.4 0 0 1 12.3-16c-3.5 24 4.1 53.9 4.1 53.9 10.4-64.4 74-137 74-137-11.8-31-20-63-20-63z" transform="translate(-262.2)"/><path class="cls-2" d="M737.1 316.8c-8.2 26.1 14.4 46.6 36.4 53.3s47.6-4.1 51.7-17.7-12.2-39.2-34.1-45.8-46.6-13.6-54 10.2z" transform="translate(-262.2)"/><path class="cls-2" d="M703.9 298c25.3-4.8 51.6-5 51.6-5-33.6 5.9-30.1 50.1-30.1 50.1-9.5-19.6-21.5-45-21.5-45z" transform="translate(-262.2)"/><path class="cls-2" d="M765.3 293.1s59 5.6 66.6 45.8c0 0 0-48.5-66.6-45.8z" transform="translate(-262.2)"/><path class="cls-2" d="M833.5 350.8c-1.6 43.5-46.7 29.8-46.7 29.8 28.6 19 54.6 16.5 54.6 16.5 1.6-19.8-7.9-46.3-7.9-46.3z" transform="translate(-262.2)"/><path class="cls-2" d="M774.9 378.3c-16.5-3.8-47.7-31.5-47.7-31.5 22.8 38.4 87 54.2 87 54.2-23.5-13-39.3-22.7-39.3-22.7z" transform="translate(-262.2)"/><path class="cls-2" d="M836.6 343.1c14 36 8.3 61 8.3 61l-23.5-3c15 15.5 40.6 36.3 40.6 36.3 4.4-59-25.4-94.3-25.4-94.3z" transform="translate(-262.2)"/><path class="cls-2" d="M811.6 296c13 4 13-40.1 0-55 0 0-1.6 7.4-5.5 7.6 0 0-1.2-29.9-25.6-48.3l-6 9s-20-15-51.9-12.7c0 0 12.3 7.5 7.6 12.6 0 0-23.5 2-43.5 14.3l11.5 6c-27.3 13.4-30.5 33-30.5 33 8.5-2.2 12.7-.6 12.7-.6-7 14 1 31-12.7 37.7 16.7 4.4 28.5-6.6 28.5-6.6s46.5-19 115.4 3z" transform="translate(-262.2)"/><path class="cls-2" d="M706 313.3c-.7-4.3-20.7-1.6-20.7-1.6l6.8 12.7-21.2-7c-.6 18.1 22.7 31.8 14.3 37.1-6 3.9-17.5-1.2-17.5-1.2 14.6 50.1 85 70.3 161.3 61 0 0-110.6-23.9-123-101z" transform="translate(-262.2)"/><ellipse id="_Path_24" data-name="&lt;Path&gt;" class="cls-2" cx="412.1" cy="345.7" rx="5.1" ry="5.1"/><ellipse id="_Path_25" data-name="&lt;Path&gt;" class="cls-2" cx="396.9" cy="331.2" rx="5.1" ry="5.1"/><ellipse id="_Path_26" data-name="&lt;Path&gt;" class="cls-2" cx="381.7" cy="314" rx="5.1" ry="5.1"/><path class="cls-2" d="M829 422.8c-65.3 6.7-97.3-8.2-97.3-8.2l16.6 18.7c-27.3-3.2-42.3 4.1-42.3 4.1s24.7 10 21.6 14.6c-16.1 24.4-20 63.5-20 63.5 48.2-60 121.4-92.7 121.4-92.7z" transform="translate(-262.2)"/><path class="cls-2" d="M868.8 400.7s57.6-83.1 27.7-104.8c0 0-11.8-12.1-8.1-34.9 0 0-18.2-7-28.6-3.5 0 0 12.1-13.6 17-26.7 0 0-26.5-4.8-21.8-30.2L832 206c2.2-11.7 3.5-27.6 3.5-27.6-22.9 1.3-27-17.4-27-17.4l-12 7.6c-6.7-19-10.5-24.1-10.5-24.1-19 15.8-30.4-4.8-30.4-4.8-4.4 4.8-11 14.3-11 14.3a61.6 61.6 0 0 1-16.9-18.7c-15.6 17.1-30 3-30 3l-5.2 11.2c-35.8-7.9-79.2-.6-79.2-.6 79.2 22.3 95.7 44.8 109.4 43 25.7-3.3 48.8 7.8 48.8 7.8l7.8-8.3c17.2 6 30 40.5 30 40.5l6.4-2.6c20.9 42.8 5.8 74.7 5.8 74.7s38.9 24.3 47.4 96.7z" transform="translate(-262.2)"/><path class="cls-2" d="M957.7 300.4c-25 206.9-160.3 127.2-160.3 312.5 39.8-153.3 179.2-148 160.3-312.5z" transform="translate(-262.2)"/><path class="cls-2" d="M659 357.1c-1.7-3.7-15.2-6.3-15.2-6.3l5 20.6c-16.9-9.2-32.3-5.2-32.3-5.2l11.5 18.5a94.2 94.2 0 0 0-37.3 5.7l33.6 6.7c-18.7 0-36 10.2-36 10.2 56.6 15.3 115.6-1.6 115.6-1.6S674.2 390.4 659 357z" transform="translate(-262.2)"/><path class="cls-2" d="M711.8 408.4l9.8 4c.2.6 11.3 13.7 11.3 13.7a71.4 71.4 0 0 0-32.2 6.5S639 460.7 613.2 507a150.2 150.2 0 0 1 3.3-29.2h-25.8c9.2-12.7 25.8-25.4 25.8-25.4s-16 1.5-25.8-6.3l22.5-8.6c-12.3-7.3-26.8-25-26.8-25s77.7 18.7 125.4-4z" transform="translate(-262.2)"/><path class="cls-2" d="M704.7 196c-47-26.3-88.2-51-138.6-32 0 0 25.4 3.1 40.5 10.8 0 0-53 4.7-83.2 19.1 0 0 105.4 32.3 151.4 21.4 9-2.2 29.9-19.2 29.9-19.2z" transform="translate(-262.2)"/><path class="cls-2" d="M718.1 199.8c3.1-.6 7.3 5.6 7.3 5.6s-18.8 3.3-27.7 7.6c0 0 14.6-12.1 20.4-13.2z" transform="translate(-262.2)"/><path class="cls-2" d="M697.7 298.7c3.6.6 6.2 9.3 6.2 9.3-17.3-3.2-26.7-1-26.7-1z" transform="translate(-262.2)"/><path class="cls-2" d="M674.2 225.6S598 230 492.5 193.3c0 0-11.4-4-29.5 3 0 0 106.7 65.1 211.2 29.3z" transform="translate(-262.2)"/><path class="cls-2" d="M654 300.4c-37.5 10.8-92.5-59.4-92.5-59.4 70.1 13.5 120.6-9 120.6-9-23 16.5-23 38.8-23 38.8s6.7-2.7 12.1-2.7c0 0 .7 27.1-17.3 32.3z" transform="translate(-262.2)"/><path class="cls-2" d="M552.9 239.8c48.6 64 80 66.6 80 66.6-6.4 21 23.4 41.7 23.4 41.7s-13.5-3-17.6-5c-58.2-29-85.8-103.3-85.8-103.3z" transform="translate(-262.2)"/><path class="cls-2" d="M598 511.6c19.2 25.6-40.4 81-40.4 81s15-135-11.2-199.6c-18.3-45 29.8-97 29.8-97s18.4 37.1 58.3 53.2c0 0 3.9 3.2 4.2 10.8 0 0-21.8-3-31.3 2.3 0 0 7.4 9 10.1 16.4 0 0-24.8-2.9-36.5 7.1-15.9 13.6-17.4 79.9 17 125.8z" transform="translate(-262.2)"/><path class="cls-2" d="M589.4 470.8s6.2-8.4 12.4-13.4a52.9 52.9 0 0 1-19.7-11.7s2 15.2 7.3 25z" transform="translate(-262.2)"/><path class="cls-2" d="M601.8 436.7s-16.5 6.4-20 2.6c-4-4.3-4.7-21.5-2.7-29.4 0 0 10.7 19 22.7 26.8z" transform="translate(-262.2)"/><path class="cls-2" d="M585.4 394.8c3.3-1.9 15.6 2 15.6 2s-16.4 5.2-20.6 6.8c0 0 2.5-7.4 5-8.8z" transform="translate(-262.2)"/><path class="cls-2" d="M545.2 235.5a247 247 0 0 1-88-35.8c-41.7-15.2-96.5-3.3-96.5-3.3 76.7-1.9 114.7 58.2 195.7 66.6-3.5-6.8-11.2-27.5-11.2-27.5z" transform="translate(-262.2)"/><path class="cls-2" d="M558.7 268.1c-60.4 4.2-85-7.6-113.2-10-47.8-4.3-113.6 24.2-113.6 24.2 89-24.6 143 22.2 240.1 8.4-5.9-8.5-13.3-22.6-13.3-22.6z" transform="translate(-262.2)"/><path class="cls-2" d="M858.3 445.7c-102 64.8-42.7 130.7-104.5 182.5 31.6-36.9 6.1-170.6 104.5-182.5z" transform="translate(-262.2)"/><path class="cls-2" d="M842.4 429l14.3 11.5C761.8 455.2 803.2 530.6 721 592c33.4-33.3 36.3-135.9 121.4-163z" transform="translate(-262.2)"/><path class="cls-2" d="M811.4 438.3c-63 45.4-53.5 83-103.6 102.6 25-17.4 43.8-77.6 103.6-102.6z" transform="translate(-262.2)"/><path class="cls-2" d="M560.8 301.5s-23.6 32.4-27.6 61.9l-47.4-64.7s53.9 5.3 75 2.8z" transform="translate(-262.2)"/><ellipse id="_Path_27" data-name="&lt;Path&gt;" class="cls-2" cx="222" cy="346.2" rx="14.4" ry="14.5"/><ellipse id="_Path_28" data-name="&lt;Path&gt;" class="cls-2" cx="169.7" cy="378.3" rx="9.4" ry="9.4"/><ellipse id="_Path_29" data-name="&lt;Path&gt;" class="cls-2" cx="129" cy="402.1" rx="5.8" ry="5.8"/><ellipse id="_Path_30" data-name="&lt;Path&gt;" class="cls-2" cx="99.5" cy="419.1" rx="4.5" ry="4.5"/><ellipse id="_Path_31" data-name="&lt;Path&gt;" class="cls-2" cx="76.7" cy="434" rx="3" ry="3"/><path class="cls-2" d="M548.9 465.4s4 38.7 2.4 65.4C473.7 535.4 380 707 380 707s51.7-174.4 169-241.7z" transform="translate(-262.2)"/><path class="cls-2" d="M551.7 539.5a239.5 239.5 0 0 1 0 38.7l-1.7.6c-77.6 4-169 172.7-169 172.7s82.2-201.4 170.7-212z" transform="translate(-262.2)"/><path class="cls-2" d="M527.9 389c-71.2 69.1-132 33.7-263.8 187.4 79.6-152.9 231.5-173 240.6-223.2z" transform="translate(-262.2)"/><path class="cls-2" d="M463.1 349.5a16.8 16.8 0 0 0 9.5 15.6L447 380.6a17 17 0 0 0-9.4-15.7z" transform="translate(-262.2)"/><path class="cls-2" d="M418.4 375.7a16.8 16.8 0 0 0 9.5 15.6L402.3 404c2.1-9.2-6-11.7-6-11.7z" transform="translate(-262.2)"/><path class="cls-2" d="M380.9 400.4a12 12 0 0 0 6.8 11.2l-18.4 9a6.7 6.7 0 0 0-4.3-8.3z" transform="translate(-262.2)"/><path class="cls-2" d="M353.6 419.3a8.9 8.9 0 0 0 5 8.3l-13.6 6.7a5 5 0 0 0-3.1-6.2z" transform="translate(-262.2)"/><path class="cls-2" d="M332.7 433.6a5.4 5.4 0 0 0 3.2 5.7l-22.5 9.4z" transform="translate(-262.2)"/><ellipse id="_Path_32" data-name="&lt;Path&gt;" class="cls-2" cx="119.2" cy="543" rx="8.6" ry="8.6"/><ellipse id="_Path_33" data-name="&lt;Path&gt;" class="cls-2" cx="87.4" cy="570.4" rx="7" ry="7"/><ellipse id="_Path_34" data-name="&lt;Path&gt;" class="cls-2" cx="61.1" cy="593.8" rx="4.3" ry="4.3"/><ellipse id="_Path_35" data-name="&lt;Path&gt;" class="cls-2" cx="41" cy="612.1" rx="3.4" ry="3.4"/><circle id="_Path_36" data-name="&lt;Path&gt;" class="cls-2" cx="22.9" cy="627.2" r="2.2"/><path class="cls-2" d="M368.2 544.7a12.5 12.5 0 0 0 9.2 10l-17 13c-1.6-8.5-7.3-9.1-7.3-9.1z" transform="translate(-262.2)"/><path class="cls-2" d="M338.5 571.4a12.2 12.2 0 0 0 8.9 10l-15.7 12.1a7 7 0 0 0-6-7.6z" transform="translate(-262.2)"/><path class="cls-2" d="M315 594.5a9 9 0 0 0 6.6 7.2l-12 9.4a5 5 0 0 0-4.4-5.5z" transform="translate(-262.2)"/><path class="cls-2" d="M294.9 612.8a6.6 6.6 0 0 0 4.8 5.3l-8.9 7a3.7 3.7 0 0 0-3.2-4.1z" transform="translate(-262.2)"/><ellipse id="_Path_37" data-name="&lt;Path&gt;" class="cls-2" cx="265.7" cy="429.3" rx="17.4" ry="17.4"/><ellipse id="_Path_38" data-name="&lt;Path&gt;" class="cls-2" cx="201.4" cy="480" rx="11.3" ry="11.4"/><ellipse id="_Path_39" data-name="&lt;Path&gt;" class="cls-2" cx="156.4" cy="513.2" rx="8.8" ry="8.8"/><path class="cls-2" d="M502.7 432.2a25.2 25.2 0 0 0 16.8 21.8l-35.4 27.3a25.5 25.5 0 0 0-16.8-21.8z" transform="translate(-262.2)"/><path class="cls-2" d="M447.1 478.6a20.2 20.2 0 0 0 13.5 17.5l-29 18.5c1.4-11.2-8.7-13.1-8.7-13.1z" transform="translate(-262.2)"/><path class="cls-2" d="M405.8 513.4c1.3 10.8 10 12.4 10 12.4L393.6 542c.8-8.7-8-11.3-8-11.3z" transform="translate(-262.2)"/><path class="cls-2" d="M475.3 323.5l-9.5-15.6c-29.1-14.3-81.3 6.4-125.3-.7 29 16.3 68.1-.1 83.9 16.3-41.9-9.7-40.9 4.9-96.8 13.4 46.3 1.3 61.3-9 75.3 5.7-31.9-12.4-48.9 13.9-88.1 23.7 19.5 4.8 38.8-11.8 61-2-45.2 4-39.3 30.2-87.3 39 24.8 2.7 51.1-16.2 63-14.1 0 0-5.8 11.3-28.5 22.4-31.2 15.2-43.1 14.8-43.1 14.8s38.1 4 78.4-23.1c0 0 29-20.1 117-79.8z" transform="translate(-262.2)"/><path class="cls-2" d="M470.7 384.3S364 439.2 262.2 542.8c0 0 43.9-65.6 95-102.5 21.7-15.8 62.6-33 113.5-56z" transform="translate(-262.2)"/><path class="cls-2" d="M452.4 448.8l-180.3 169s47.7-113.7 180.3-169z" transform="translate(-262.2)"/><path class="cls-2" d="M468.7 501.8L279 658.8s121-48 189.7-157z" transform="translate(-262.2)"/><path class="cls-2" d="M892.9 487.2s50.1 84.7-24 141.7c0 0 61.7-15.9 87.3-83.9V398.6C937 452 905.1 454 893 487.2z" transform="translate(-262.2)"/><path class="cls-2" d="M932 274.4s21.6 10.6 23.4 21.8c0 0-24.7 59.8-67.4 93.9 0 0 49-70.4 44-115.7z" transform="translate(-262.2)"/><path class="cls-2" d="M888 402.9c3.4-3.5 17.3-15.5 21.3-19.2 31.3-28.8 40.1-61.9 40.1-61.9-4.8 30.5-26.3 84.5-46.5 102.4z" transform="translate(-262.2)"/><path class="cls-2" d="M883.7 407.1l15 21.4s-6.4 12.8-38.4 34c0 0 2.1-34 23.4-55.4z" transform="translate(-262.2)"/><path d="M778.8 354.4c30 6.8 46.1-9.5 42.6-20.4-11-33.7-68.3-33.2-68.3-33.2s-23.4 42.3 25.7 53.6z" transform="translate(-262.2)"/><ellipse id="_Path_40" data-name="&lt;Path&gt;" class="cls-2" cx="509.9" cy="312" rx="3.9" ry="3.9"/><ellipse id="_Path_41" data-name="&lt;Path&gt;" class="cls-2" cx="498.5" cy="316.7" rx="2.6" ry="2.6"/><circle id="_Path_42" data-name="&lt;Path&gt;" cx="221.5" cy="799.1" r="5.4"/><circle id="_Path_43" data-name="&lt;Path&gt;" cx="210.8" cy="38.4" r="7.3"/><circle id="_Path_44" data-name="&lt;Path&gt;" cx="221.1" cy="138.8" r="7.9"/><path d="M681 0l25 33c4.7-12.7 14.5-17.2 14.5-17.2L696.5 0z" transform="translate(-262.2)"/><path d="M676.3 63.6a21.2 21.2 0 0 0-5.6 14l-37.9-25.4z" transform="translate(-262.2)"/><path d="M654.5 98.1a7 7 0 0 0-.9 6.1L636 99.4z" transform="translate(-262.2)"/><path d="M829 301.9c7.5 6 15 17.4 15 17.4 0-29.8-12.1-48.5-12.1-48.5 2.2 14.3-3 31-3 31z" transform="translate(-262.2)"/></g></g><text transform="translate(68 582.4)" font-family="CenturyGothic,Century Gothic" font-size="141.6" fill="#fff"><tspan>DESIGN STORM</tspan></text><text transform="matrix(1.01259 0 0 1 74.3 661)" font-size="49.9" letter-spacing="0em" font-family="CenturyGothic,Century Gothic" fill="#fff">PORTFOLIO SITE FOR MIA MUNCH SVEJGAARD</text></svg>