<svg id="Layer_1" data-name="Layer 1" xmlns="http://www.w3.org/2000/svg" xmlns:xlink="http://www.w3.org/1999/xlink" viewBox="0 0 488.34909 337.19885">
  <defs>
    <style>
      .cls-1 {
        fill: url(#linear-gradient);
      }

      .cls-2 {
        fill: url(#linear-gradient-2);
      }

      .cls-3 {
        fill: url(#linear-gradient-3);
      }

      .cls-4 {
        fill: url(#linear-gradient-4);
      }

      .cls-5 {
        fill: url(#linear-gradient-5);
      }
    </style>
    <linearGradient id="linear-gradient" x1="217.43331" y1="229.46312" x2="278.33195" y2="123.98359" gradientUnits="userSpaceOnUse">
      <stop offset="0" stop-color="#b36735"/>
      <stop offset="1" stop-color="#321f0c"/>
    </linearGradient>
    <linearGradient id="linear-gradient-2" x1="97.27232" y1="276.01848" x2="150.61538" y2="183.62559" xlink:href="#linear-gradient"/>
    <linearGradient id="linear-gradient-3" x1="160.99879" y1="284.23878" x2="199.20345" y2="218.06638" xlink:href="#linear-gradient"/>
    <linearGradient id="linear-gradient-4" x1="234.16682" y1="310.87967" x2="294.1821" y2="206.93016" xlink:href="#linear-gradient"/>
    <linearGradient id="linear-gradient-5" x1="328.77615" y1="270.61779" x2="348.81941" y2="235.90185" xlink:href="#linear-gradient"/>
  </defs>
  <title>gallery_img_logo</title>
  <path class="cls-1" d="M70.2328,91.08868s-1.43223-5.78006,8.64451-9.05372,18.94153-4.79214,25.16625-6.70077c.90876-.27864,3.01791-1.17647.35806-3.78517a24.29872,24.29872,0,0,1-5.88236-8.69565A33.30067,33.30067,0,0,1,97.39394,55.948s4.91049,2.8133,16.41945.35806c2.75548-.58784-5.98394-1.17781-5.83712-16.52284a11.13941,11.13941,0,0,1,4.14914-8.89917,17.54736,17.54736,0,0,0,10.63939,8.74681,34.00989,34.00989,0,0,1,10.79284,6.54731,18.07236,18.07236,0,0,0,0-5.78c3.94251,4.26119,10.38364,14.0665,8.80435,23.88852-.26093,1.62274,11.40027.30587,13.59976-1.79132,0,0,.56266,6.18926-4.70589,9.30947a80.51965,80.51965,0,0,1,12.71953,2.21654c8.078,2.32479,16.43447,6.13024,25.43906,8.32055,0,0-7.06584,1.06614-5.7289,1.73913,10.09378,5.081,17.05031,13.12874,25.91647,16.8116,0,0-10.67349,5.4561-7.451,7.22933,8.58856,4.726,20.13642,16.2319,26.68374,22.23361,0,0-24.42772,10.10377-19.3235,12.98753,16.18624,9.14485,54.19212-.37334,71.97485-.98412,30.28135-1.04007,38.2219,14.52067,49.17309,22.30181,7.05634,5.01373,17.66154-1.69019,33.214,9.07076,26.56438,18.38023,34.44162,76.99919,74.20294,69.29245,0,0-19.81246,23.25662-63.29075,8.72976-29.77747-9.94918-27.14957-44.226-28.13474-58.35455-.3753-5.38228-2.283-11.21071-4.5965-14.357-2.51564-3.42127-12.5673-5.70937-9.29379,1.06429,7.0378,14.56287,4.85536,32.568,4.85536,32.568-1.705-28.71272-50.17444-50.32035-74.27114-52.17394a162.9518,162.9518,0,0,0-52.65135,4.77409c-35.32824,8.86616-53.879,29.19012-53.879,29.19012s6.82012-21.14238,14.86786-39.55671c10.02021-22.9276.95482-40.10233-12.41262-50.87812-7.68192-6.19257-23.77111-13.01314-24.48424-14.18586C129.41442,81.01194,125.1,76.52545,119.8492,76.613c-2.046.0341-5.37252,1.17219-4.04093,2.14834,12.83889,9.41177,3.51047,15.136-2.711,14.79967-5.67775-.30691-8.09591-2.16176-12.99233-3.34186C90.93352,88.00868,79.44,85.51322,70.2328,91.08868Z"/>
  <path class="cls-2" d="M130.76139,172.16289s3.95568,19.36915,24.00684,23.32482c0,0-10.037,5.24924-9.75278,13.09464.341,9.41177,12.549,15.68628,12.549,15.68628s-8.33316.96905-11.32141.75022c-3.25413-.2383-9.94067-2.23861-13.29924-2.728-10.179-1.48338-17.95682-.99458-23.63172,2.14834-24.7381,13.70062-4.80819,55.7545-4.80819,55.7545-14.32226-19.33505-15.64917-28.24036-15.77209-32.05447-.12653-3.92594.71594-11.11189,2.6263-14.544,2.60951-4.68821,7.90709-12.24283,10.48594-16.41945,4.70589-7.62148,10.03146-7.06076,13.295-7.00189,3.74216.06749,12.68968-.97765,12.68968-.97765,0-4.80819-.03554-11.6282.47741-15.48168C129.01944,188.35594,130.284,186.34875,130.76139,172.16289Z"/>
  <path class="cls-3" d="M158.5875,195.55591c27.14409,18.14153,19.00891,41.25665,19.5646,41.89929,20.06031,23.19879,20.3521,32.28243,24.54647,44.25175,1.20753,3.44586.86106,12.12162.21973,15.878a27.74159,27.74159,0,0,1-3.68287,8.72976s3.90233.12341,6.95653-8.32055c3.47826-9.61638,2.00647-22.69483.64183-28.62349-6.26843-27.23332-14.45512-27.91518-17.62394-36.33819C176.09917,198.18309,158.5875,195.55591,158.5875,195.55591Z"/>
  <path class="cls-4" d="M282.98655,200.4664s-11.38961,10.09378-13.36745,18.00513c-2.34074,9.363-.2046,25.02985-2.45524,36.82866-2.219,11.6328-18.54126,30.59348-26.87129,39.01111-3.374,3.40946-15.68628,11.0486-15.68628,11.0486s14.73147,1.15942,22.2336-4.36488c12.18465-8.97233,13.42557-17.42425,18.27793-22.91561,4.14323-4.68884,12.28634-10.70393,15.45677-15.40055C284.25746,257.22313,272.79046,231.498,282.98655,200.4664Z"/>
  <path class="cls-5" d="M285.7828,204.49028c2.96675,9.20716,18.50526,22.93563,26.39387,28.64451,9.41477,6.81335,32.51859,19.37748,37.91989,29.66754,10.7607,20.50031,4.02387,25.71186,21.61979,31.509,5.82987,1.92069,24.55244,0,24.55244,0-23.22252-4.80819-27.7895-11.34216-30.58825-18.72124-2.11543-5.57747-4.48671-13.34487-6.64962-17.49362-2.05941-3.95023-8.35113-10.6033-10.02558-14.73146-.71784-1.76975-.04765-6.36983-1.27422-7.83367-2.90064-3.46177-14.27566-1.98731-21.9483-5.05637C294.001,217.76223,285.7828,204.49028,285.7828,204.49028Z"/>
</svg>
