<svg id="Layer_1" data-name="Layer 1" xmlns="http://www.w3.org/2000/svg" viewBox="0 0 488.34909 337.19885">
  <defs>
    <style>
      .cls-1 {
        fill: #231f20;
      }
    </style>
  </defs>
  <title>gallery_img_logo</title>
  <path class="cls-1" d="M284.77231,185.7261c7.77539,8.025,15.05323,16.39928,22.24854,24.81389l10.69726,12.65617c1.78467,2.09741,3.53809,4.21744,5.33741,6.27834l.66748.78033.17822.216.26953.3691c.17676.24871.34815.50247.51221.75906.2666.47214.44629.89578.66064,1.35235.186.43731.29834.82746.44678,1.24549a29.03368,29.03368,0,0,1,1.01611,4.6185,87.423,87.423,0,0,1,.28321,17.24158c-.394,5.63637-1.08155,11.21-2.01075,16.73082l-.34814,2.06943c-.03809.19451-.04346.29464-.10791.56662l-.19336.76393a7.77443,7.77443,0,0,1-.53711,1.36758,14.88416,14.88416,0,0,1-2.98242,3.8979,64.4376,64.4376,0,0,1-6.63721,5.43544l-3.31933,2.4758-1.63135,1.25321-.8003.64107-.40478.31762a5.557,5.557,0,0,1-.59912.40425,8.6112,8.6112,0,0,1-2.18945.7437c-.709.162-1.41016.27708-2.11231.36791a39.16616,39.16616,0,0,1-4.20312.27481c1.33789-.407,2.66748-.8108,3.95312-1.3036.64356-.23712,1.28223-.48026,1.88477-.76331a6.97449,6.97449,0,0,0,1.59814-.93893c.09815-.085.13965-.16254.21826-.23456l.33936-.40727.68847-.80872,1.41358-1.57362c.95312-1.03634,1.9331-2.0373,2.89941-3.03761,1.92823-1.98491,3.90869-3.93079,5.48242-5.92481a11.22835,11.22835,0,0,0,1.75977-2.88257,2.68184,2.68184,0,0,0,.14746-.58855,2.3177,2.3177,0,0,1,.03223-.25011c.01709-.065.02392-.31361.03662-.46137l.147-2.05634c.38281-5.48126.71924-10.94855.84326-16.38172.06739-2.7161.09278-5.4208.00537-8.09771a64.4878,64.4878,0,0,0-.58251-7.84689,22.44359,22.44359,0,0,0-.7168-3.4979c-.084-.2339-.15625-.51468-.24121-.71369l-.23877-.51866a.34112.34112,0,0,1-.07129-.10029l-.02246-.0606c-.02051-.03507-.102-.12591-.1499-.18613l-.66553-.81341c-1.77051-2.17668-3.51758-4.35157-5.2124-6.56555q-5.10132-6.626-9.87745-13.45451A331.96027,331.96027,0,0,1,284.77231,185.7261Z"/>
  <path class="cls-1" d="M326.23716,167.29731c1.83056.222,3.6289.58051,5.41894.97892,1.79492.38864,3.563.87387,5.32617,1.39952a59.22686,59.22686,0,0,1,10.37842,4.15858,25.40084,25.40084,0,0,1,5.01367,3.39105,11.09655,11.09655,0,0,1,2.34668,2.89339c.16944.33385.3208.71681.46289,1.08206a7.61509,7.61509,0,0,1,.29688,1.28524,6.5317,6.5317,0,0,1,.01221,1.43809l-.04834.47855-.03907.32844c-.189,1.752-.50488,3.49311-.65136,5.23854l-.30616,2.61067-.22753,2.6065c-.30909,3.47392-.47413,6.91549-.5,10.407-.03663,1.75249.02246,3.512-.04444,5.42626a20.09159,20.09159,0,0,1-.94678,6.163,14.07686,14.07686,0,0,1-1.40332,2.93153c-.29345.44008-.55859.85655-.87744,1.30475a7.79168,7.79168,0,0,1-1.3208,1.35414,21.62526,21.62526,0,0,1-5.16992,2.93422,53.81513,53.81513,0,0,1-10.60059,3.15844c3.03321-2.07184,6.0835-4.03415,8.89307-6.145a22.175,22.175,0,0,0,3.66455-3.2407,3.586,3.586,0,0,0,.44678-.68055l.46289-1.04a10.99349,10.99349,0,0,0,.60693-2.06961c.48535-2.63451-.16845-6.19567-.34814-9.92215-.06885-.92546-.09326-1.85547-.10889-2.79152-.03027-.93424-.0293-1.86888-.01611-2.80411.00635-.93626.0459-1.86929.106-2.79939.05615-.93035.08544-1.86609.18408-2.78861a99.42168,99.42168,0,0,1,1.62793-10.968l.06738-.33856c.02344-.11266.05225-.26438.03125-.1913-.02783.02987.03662.09906.02246.09268-.02-.007.0376.018.01758-.03284a.84612.84612,0,0,1-.03955-.1708,5.799,5.799,0,0,0-.92871-1.37552,25.03,25.03,0,0,0-3.59033-3.11274c-2.73291-2.01049-5.78028-3.84922-8.84815-5.67709C332.53257,170.97361,329.38706,169.1936,326.23716,167.29731Z"/>
  <path class="cls-1" d="M142.787,239.54654a13.74233,13.74233,0,0,1-.55176,5.51046c-.44384,1.79429-1.02588,3.52109-1.57275,5.22535-.55713,1.69538-1.10449,3.37378-1.50586,4.97608a15.2786,15.2786,0,0,0-.39795,2.265,2.27056,2.27056,0,0,0,.15723,1.34933c-.66455-.63382,1.77051.94951,3.1792,1.83834a27.04479,27.04479,0,0,1,2.30273,1.615c.74658.57213,1.51758,1.11306,2.24512,1.7156a51.99529,51.99529,0,0,1,7.92334,8.19068,54.2246,54.2246,0,0,1,5.80322,9.70042c1.58936,3.33644,2.85693,6.66385,4.33887,9.61329l.56494,1.10285c.19678.35531.40918.69007.61328,1.03977a22.15969,22.15969,0,0,0,1.33838,1.984l.17285.24645c.05908.0837.05762.06439.08594.10694a.48092.48092,0,0,0,.18359.20462,3.61771,3.61771,0,0,0,.7666.46975,22.74727,22.74727,0,0,0,2.34766.87575,17.57224,17.57224,0,0,1,5.18848,2.49767,9.81,9.81,0,0,1,2.04492,2.07982c.27246.39473.48389.829.71484,1.22784.18555.432.34424.86912.4961,1.2941a9.53762,9.53762,0,0,0-4.19532-2.90374,19.8257,19.8257,0,0,0-4.96142-.83,24.00844,24.00844,0,0,1-2.86572-.3753,7.30334,7.30334,0,0,1-1.69532-.57676,6.28808,6.28808,0,0,1-1.60937-1.13837,20.29263,20.29263,0,0,1-2.09033-2.13335c-.31739-.37613-.65039-.75106-.95557-1.13482l-.84717-1.17722c-2.23144-3.16973-3.81738-6.42451-5.53515-9.42564-.85059-1.507-1.70411-2.97843-2.61573-4.397l-1.37939-2.1039-1.48242-2.01508a49.81934,49.81934,0,0,0-3.20606-3.83531c-1.07178-1.28427-2.33252-2.402-3.51074-3.60744-.606-.58718-1.26514-1.12444-1.89551-1.69173-.645-.55152-1.24853-1.15478-1.9375-1.66591l-2.01025-1.60564c-.375-.32322-.49854-.38023-1.36475-1.143a5.35385,5.35385,0,0,1-1.37207-2.3562,7.45978,7.45978,0,0,1,.08692-3.95637,16.38308,16.38308,0,0,1,1.06152-2.89012,46.27747,46.27747,0,0,1,2.71777-4.88062l2.896-4.52622c.47851-.74943.92431-1.5093,1.3291-2.29094A10.2408,10.2408,0,0,0,142.787,239.54654Z"/>
  <path class="cls-1" d="M193.04722,280.38307a98.29846,98.29846,0,0,1,12.27343,7.78482c3.84815,2.78291,7.56543,5.7518,11.17969,8.46542l.66943.50291c.09668.07059.25586.19886.30079.22219.0122-.00557.01855-.00464.02148.00454l.00293.01985.06641.01639a.65285.65285,0,0,1,.12548.05247c.11084.03841.29541.05966.437.1098a18.03563,18.03563,0,0,0,2.956.222,35.53848,35.53848,0,0,1,7.647.737,14.85712,14.85712,0,0,1,2.03516.66391,7.683,7.683,0,0,1,.99707.44562l.48828.25409a4.95666,4.95666,0,0,1,.56494.33729,5.35858,5.35858,0,0,1,.6294.4734l.45215.45769a9.25036,9.25036,0,0,1,.7041.89418,17.51565,17.51565,0,0,1,1.00341,1.74992,24.32165,24.32165,0,0,1,1.38331,3.528,25.31191,25.31191,0,0,1,.87793,3.63357c-1.75928-1.76773-3.375-3.58929-5.04639-5.14209a15.90853,15.90853,0,0,0-1.228-1.04872c-.19922-.12027-.396-.28485-.56543-.36673l-.2373-.11336c-.07715-.03757-.09229.00876-.12793-.00089a2.16329,2.16329,0,0,1-.24463-.03841l-.34668-.06838a4.10365,4.10365,0,0,0-.70264-.11133c-.46582-.07235-.97265-.06825-1.459-.10542-2.02344-.02336-4.17871.25013-6.65381.458a21.00682,21.00682,0,0,1-4.1919-.02809c-.44043-.08151-.84912-.14857-1.31-.27739l-.71924-.24361-.356-.13164-.38769-.19887c-.25684-.13711-.51075-.28246-.75879-.43431-.2085-.13293-.28028-.19629-.42676-.29791l-.77295-.55784a75.16609,75.16609,0,0,1-10.69238-10.02048A66.9637,66.9637,0,0,1,193.04722,280.38307Z"/>
  <path class="cls-1" d="M173.7811,172.57408a46.12634,46.12634,0,0,0,9.65625,7.94038,66.77172,66.77172,0,0,0,10.90283,5.54624,86.57876,86.57876,0,0,0,11.59717,3.70454,120.348,120.348,0,0,0,12.02246,2.21851,183.81364,183.81364,0,0,0,24.71924,1.29759c8.34668-.06537,16.74756-.57012,25.33985-.85387a107.80492,107.80492,0,0,1-24.9502,6.34418,101.4241,101.4241,0,0,1-26.022.15019,85.00174,85.00174,0,0,1-12.88135-2.77447,64.37306,64.37306,0,0,1-12.19873-5.14161A50.50188,50.50188,0,0,1,181.307,183.193a39.19046,39.19046,0,0,1-4.32519-4.9565A24.50264,24.50264,0,0,1,173.7811,172.57408Z"/>
  <path class="cls-1" d="M183.83286,274.9382c-3.04541-1.007-6.16846-1.67508-9.27734-2.53577a41.21379,41.21379,0,0,1-4.6294-1.55327,16.051,16.051,0,0,1-2.25683-1.13995,7.16369,7.16369,0,0,1-2.05079-1.80335,4.45452,4.45452,0,0,1-.69287-1.37277,4.59083,4.59083,0,0,1-.14648-.78978c-.01367-.26423-.021-.56-.01172-.73037l.06787-2.39656c.04492-1.59614.08057-3.19037.09473-4.78277.03076-3.18434.00586-6.36365-.14063-9.52342-.14258-3.15756-.35986-6.3021-.79394-9.37984a35.89932,35.89932,0,0,0-2.17383-8.75313l-.4292-.96653a8.3843,8.3843,0,0,0-.50293-.86869,5.60417,5.60417,0,0,0-.53027-.81408l-.59082-.69933a18.24365,18.24365,0,0,0-3.29492-2.57847,66.86923,66.86923,0,0,0-8.1919-4.22653c-2.87793-1.3002-5.83057-2.53546-8.814-3.92926a49.64244,49.64244,0,0,1-4.501-2.36377l-1.13916-.71964c-.37842-.235-.772-.56618-1.15479-.84941l-.5708-.44483-.48388-.44421-.96631-.89139a50.4025,50.4025,0,0,1-6.53125-7.86741,67.35231,67.35231,0,0,1-5.04834-8.72479,64.9989,64.9989,0,0,1-5.877-19.29355,47.45916,47.45916,0,0,1,1.48194-20.4978,38.02912,38.02912,0,0,1,4.48681-9.47745,40.76475,40.76475,0,0,1,3.11084-4.22278c.543-.68478,1.18213-1.27747,1.771-1.91837a23.76842,23.76842,0,0,1,1.84668-1.83447,55.83077,55.83077,0,0,1,17.36963-10.54678c.78223-.3006,1.55469-.63568,2.34424-.90581l2.38086-.76021,2.38037-.75688c.79736-.23093,1.605-.41139,2.40625-.61894,1.6167-.37712,3.186-.86142,4.84424-1.13458l2.46-.4695,2.45654-.35643c3.27588-.4715,6.52783-.7413,9.76758-.97071,3.23291-.18174,6.45264-.32284,9.64844-.45254,12.76709-.51822,25.39892-1.23406,37.668-4.30783l2.30323-.55246c.76367-.19873,1.51562-.43517,2.27539-.651a43.5994,43.5994,0,0,0,4.395-1.40572,61.87784,61.87784,0,0,0,8.1001-4.72977c2.646-1.763,5.23437-3.63729,7.793-5.55491,2.57325-1.90143,5.09864-3.87111,7.61817-5.85636a178.46,178.46,0,0,1-14.26172,12.975,56.37688,56.37688,0,0,1-8.06543,5.60643,44.55714,44.55714,0,0,1-4.62061,1.8869c-.7622.28029-1.519.58148-2.28759.84484l-2.3208.74636a130.57745,130.57745,0,0,1-18.99854,4.35378c-6.41553,1.01549-12.87061,1.54828-19.25439,2.09637-6.38233.55622-12.72022,1.03112-18.83545,2.03469a70.0249,70.0249,0,0,0-9.01026,2.05436c-.74267.21285-1.4956.39928-2.22949.63269l-2.17725.75762-2.17675.75427c-.71778.266-1.40674.591-2.11182.88251a50.856,50.856,0,0,0-15.19824,9.4091,18.40079,18.40079,0,0,0-1.54248,1.56232c-.48633.54355-1.03125,1.04129-1.47412,1.61813a33.85892,33.85892,0,0,0-2.54737,3.527,31.573,31.573,0,0,0-3.644,7.85181,40.55975,40.55975,0,0,0-1.37695,17.50062A57.512,57.512,0,0,0,121.85,182.4505a72.23815,72.23815,0,0,0,3.20508,8.53009,60.86,60.86,0,0,0,4.35937,8.00235,44.33193,44.33193,0,0,0,5.5293,7.03924l.78027.757.38916.38.37256.29763c.25879.19443.46436.40111.76221.59435l.87744.58479c.59717.38755,1.26172.7553,1.90381,1.1296l2.03271,1.08706c2.76123,1.43678,5.66309,2.79987,8.56348,4.26009a71.47046,71.47046,0,0,1,8.65869,4.96075,22.84516,22.84516,0,0,1,4.08154,3.53033l.90479,1.17932a9.446,9.446,0,0,1,.7124,1.23486,12.82482,12.82482,0,0,1,.62012,1.25075l.47607,1.2574a39.9353,39.9353,0,0,1,1.89307,9.96372,94.65854,94.65854,0,0,1,.23584,9.79413c-.09277,3.24412-.31006,6.46814-.582,9.67971-.13526,1.60586-.29151,3.20788-.45654,4.80657l-.26026,2.3949c-.03125.22847-.02637.33329-.04.46924a2.56022,2.56022,0,0,0,.03125.39443,2.45183,2.45183,0,0,0,.314.79275,8.7268,8.7268,0,0,0,3.34912,2.67671,42.14282,42.14282,0,0,0,4.32519,1.90613C177.847,272.58691,180.93247,273.55311,183.83286,274.9382Z"/>
  <path class="cls-1" d="M157.02768,75.991a40.86342,40.86342,0,0,1,.64844,6.09724,36.89357,36.89357,0,0,1-.27539,6.21866,31.44616,31.44616,0,0,1-4.08642,12.14215,29.67178,29.67178,0,0,1-9.15967,9.47293,42.9793,42.9793,0,0,1-11.7749,5.30591c-.99366.30464-2.0752.56082-3.00977.80529-.91113.24159-1.83154.46609-2.71875.75561a41.89942,41.89942,0,0,0-5.22315,1.87505,24.87282,24.87282,0,0,0-8.74267,5.84085,14.84983,14.84983,0,0,0-3.87988,9.40823,20.69323,20.69323,0,0,0,.55468,5.58724,30.66238,30.66238,0,0,0,2.01416,5.59881,19.84385,19.84385,0,0,1-6.04638-10.9324,17.33374,17.33374,0,0,1,.166-6.74854,18.49613,18.49613,0,0,1,2.80274-6.31776c5.41162-7.67923,14.65185-10.74912,22.13086-12.58191,7.26318-2.06586,13.90088-5.38181,18.39306-11.1359a34.00361,34.00361,0,0,0,5.28955-9.85083A75.07694,75.07694,0,0,0,157.02768,75.991Z"/>
  <path class="cls-1" d="M107.60483,160.17709a27.60668,27.60668,0,0,1-19.687-9.78142,34.59269,34.59269,0,0,1-8.07568-21.417,38.76421,38.76421,0,0,1,6.35986-22.388,45.00282,45.00282,0,0,1,7.65967-8.915c.749-.6417,1.43994-1.29339,2.25488-1.907l1.2168-.9147,1.24951-.841a46.92536,46.92536,0,0,1,5.14844-2.87046c7.00244-3.29183,14.08008-5.21979,20.78418-7.63082,6.71582-2.35449,13.11279-5.16562,18.6416-9.24107a44.1542,44.1542,0,0,0,7.47656-7.05539l1.61084-2.03665c.48633-.7059,1.02539-1.43112,1.4751-2.12595a22.991,22.991,0,0,0,2.12549-4.55935,51.014,51.014,0,0,0,2.54834-10.30973,36.34529,36.34529,0,0,0,.43652-5.35067,19.60142,19.60142,0,0,0-.5459-5.37464,18.28427,18.28427,0,0,1,1.60156,5.29215,36.75647,36.75647,0,0,1,.44434,5.55816,49.04434,49.04434,0,0,1-1.18945,11.162,25.387,25.387,0,0,1-1.9209,5.55829c-.4502.88589-.92188,1.67743-1.38526,2.52344L154.2977,69.976a44.97863,44.97863,0,0,1-7.71826,8.55217,53.1952,53.1952,0,0,1-4.56933,3.52814c-1.59717,1.0607-3.23047,2.07005-4.90625,2.969a87.5561,87.5561,0,0,1-10.26172,4.70486c-3.46094,1.36759-6.93213,2.54816-10.313,3.78673a100.32569,100.32569,0,0,0-9.77295,3.936,40.0134,40.0134,0,0,0-4.40283,2.40607l-1.021.67477-.96972.71923c-.64747.47038-1.28028,1.0756-1.93116,1.59585a40.38906,40.38906,0,0,0-6.72607,7.42719,35.55217,35.55217,0,0,0-6.42188,18.70945,34.441,34.441,0,0,0,1.13428,10.03644,29.594,29.594,0,0,0,4.21045,9.29117A28.56152,28.56152,0,0,0,107.60483,160.17709Z"/>
  <path class="cls-1" d="M317.302,168.69344a87.09334,87.09334,0,0,0,2.08985-13.4189,52.68987,52.68987,0,0,0-.49024-13.04692,29.035,29.035,0,0,0-4.41455-11.42609c-2.46875-3.55992-5.28662-7.31732-7.77978-11.26093a66.43406,66.43406,0,0,1-6.502-12.76379c-1.62011-4.582-2.68457-9.716-1.81592-14.89909a20.07775,20.07775,0,0,1,2.66211-7.26967,21.80363,21.80363,0,0,1,4.94776-5.6212,28.47567,28.47567,0,0,1,6.10986-3.75913,35.79949,35.79949,0,0,1,6.58887-2.30816,45.64789,45.64789,0,0,0-10.24463,8.57521,18.20842,18.20842,0,0,0-4.52051,11.0151,27.66356,27.66356,0,0,0,2.52344,11.85111,79.43673,79.43673,0,0,0,6.15381,11.45269c1.166,1.886,2.42041,3.73928,3.6499,5.64219,1.24512,1.90779,2.51318,3.77319,3.74316,5.87a31.369,31.369,0,0,1,4.22315,14.2975,45.49912,45.49912,0,0,1-1.57373,14.20863,51.1095,51.1095,0,0,1-2.24707,6.64255A42.49658,42.49658,0,0,1,317.302,168.69344Z"/>
  <path class="cls-1" d="M304.35679,182.65463a46.01366,46.01366,0,0,0,.18652-13.86273,36.63428,36.63428,0,0,0-4.46-12.86858c-4.459-7.99548-11.31836-14.33229-17.71973-21.15445-6.45947-6.76526-12.82226-14.09611-17.21533-22.78087a60.54958,60.54958,0,0,1-5.14258-13.68519,44.172,44.172,0,0,1-1.0083-14.86028,42.18544,42.18544,0,0,1,4.28223-14.38914,50.61721,50.61721,0,0,1,8.63281-12.13913,62.20865,62.20865,0,0,1,5.4126-5.04379,68.86161,68.86161,0,0,1,19.10107-10.9744,45.191,45.191,0,0,1,7.2876-2.0759,53.59171,53.59171,0,0,1,14.91894-.63833,55.43,55.43,0,0,1,7.35108,1.25756,62.61387,62.61387,0,0,1,13.86084,5.149,67.33433,67.33433,0,0,1,6.37793,3.70175c1.02832.67774,2.043,1.37641,3.03662,2.1189,1.01416.76062,1.92773,1.46991,2.99658,2.42047l-5.66455,2.692A26.4779,26.4779,0,0,1,348.45,44.64073a33.28893,33.28893,0,0,1,2.34521-4.82538q.67457-1.15151,1.43408-2.252c.25293-.36786.51514-.73126.78809-1.09375.28711-.3779.52539-.68878.90918-1.13806l4.33105-5.07431,1.31739,6.50354c1.15674,5.71148,2.148,11.36764,2.99707,17.10522a154.55535,154.55535,0,0,1,1.74365,17.41077c.0415,1.48254.04395,2.97885-.01514,4.499-.03613.763-.08545,1.53162-.16748,2.31458l-.25488,2.179c-.35693,2.87228-.75635,5.71648-1.15283,8.55432-.78565,5.67125-1.603,11.3234-2.1875,16.92861-.1416,1.40036-.25879,2.79744-.32666,4.17567-.04981.69537-.043,1.36844-.0669,2.04807a10.77612,10.77612,0,0,0,.19629,1.77383c.47559,2.66707,1.27686,5.50131,1.62891,8.54835a11.191,11.191,0,0,1-.35938,5.07149,4.79129,4.79129,0,0,1-.33545.71776c-.13232.24254-.21044.33812-.31835.51425l-.61036.93927c-.42187.61862-.85449,1.22988-1.31494,1.82514a23.38224,23.38224,0,0,1-6.72558,6.13618,13.46792,13.46792,0,0,1-4.42823,1.612,9.76746,9.76746,0,0,1-4.77246-.35028,8.93921,8.93921,0,0,1-3.939-2.65565c-.25928-.27821-.50781-.65564-.7041-.90588a8.02512,8.02512,0,0,0-.6167-.76967,14.51384,14.51384,0,0,0-1.47119-1.41649c-2.08887-1.79857-4.75342-3.35774-6.27735-6.01462a4.173,4.173,0,0,1-.25146-2.31663,16.80959,16.80959,0,0,1,.39892-2.14365,36.87051,36.87051,0,0,1,1.29834-4.10829,36.69929,36.69929,0,0,0-.92431,4.1829,16.33857,16.33857,0,0,0-.20166,2.10556,3.66887,3.66887,0,0,0,.32959,1.87969c1.5913,2.26511,4.17187,3.54277,6.5288,5.27574a16.02977,16.02977,0,0,1,1.731,1.43919,9.58426,9.58426,0,0,1,.79053.85c.26562.29652.42383.51283.66992.74336a7.00726,7.00726,0,0,0,3.24414,1.85907,9.13859,9.13859,0,0,0,7.23486-1.51744,20.58334,20.58334,0,0,0,5.53272-5.735c.38232-.5625.74219-1.143,1.09277-1.73033l.50586-.89467c.07129-.13351.1958-.33459.22315-.41238a1.55879,1.55879,0,0,0,.09716-.26314,8.69791,8.69791,0,0,0-.0332-3.43489c-.42676-2.6346-1.31152-5.29819-1.99316-8.23671a14.50783,14.50783,0,0,1-.376-2.47725c-.01221-.75162-.05273-1.51083-.03564-2.24591.00244-1.48392.05566-2.946.13232-4.4.2959-5.8145.937-11.52643,1.53076-17.22251.29834-2.84576.59766-5.6851.8501-8.50643l.17188-2.0942c.04541-.64329.06494-1.30439.07373-1.97242.00537-1.3422-.042-2.70981-.12793-4.08744-.38965-5.52166-1.16211-11.13528-2.1001-16.71319-.94238-5.57334-2.04688-11.1803-3.27783-16.669l5.64843,1.4292c-.13671.16931-.39013.50082-.584.77231-.20752.28757-.4126.58429-.61084.88678-.39844.60422-.77783,1.22748-1.13184,1.86252a28.766,28.766,0,0,0-1.81933,3.92413,19.77266,19.77266,0,0,0-1.3628,8.10471l.47852,8.07138-6.14307-5.37934c-.68017-.59558-1.60839-1.3251-2.46875-1.95447-.88086-.64913-1.79394-1.26815-2.71875-1.86874a60.52817,60.52817,0,0,0-5.752-3.28534,54.04271,54.04271,0,0,0-18.81348-5.58493,46.65435,46.65435,0,0,0-12.98046.46491,38.48039,38.48039,0,0,0-6.17579,1.72345A61.91838,61.91838,0,0,0,276.6185,61.4716a44.237,44.237,0,0,0-7.769,10.44125,36.05973,36.05973,0,0,0-3.92334,12.23552,40.18156,40.18156,0,0,0,.48633,12.98082,55.19791,55.19791,0,0,0,4.26807,12.62422,78.02739,78.02739,0,0,0,6.90234,11.66059c2.63867,3.72024,5.5791,7.26871,8.61816,10.78244,3.043,3.5112,6.17481,7.00773,9.10352,10.7288a64.5979,64.5979,0,0,1,7.75977,11.97419,38.27305,38.27305,0,0,1,3.68164,13.76184A45.42934,45.42934,0,0,1,304.35679,182.65463Z"/>
</svg>
