<svg id="Layer_1" data-name="Layer 1" xmlns="http://www.w3.org/2000/svg" viewBox="0 0 488.34909 337.19885">
  <defs>
    <style>
      .cls-1, .cls-2, .cls-3 {
        fill: #231f20;
      }

      .cls-2 {
        font-size: 85.25064px;
      }

      .cls-2, .cls-3 {
        font-family: FelixTitlingMT, Felix Titling;
      }

      .cls-3 {
        font-size: 14.99329px;
      }

      .cls-4 {
        fill: #fff;
      }
    </style>
  </defs>
  <title>gallery_img_logo</title>
  <g>
    <path class="cls-1" d="M232.61571,199.18046v1.5602h-61.776q-17.78358,0-31.14791-3.84779-13.36461-3.847-27.248-14.61243a83.039,83.039,0,0,1-22.46391-26.78,68.60759,68.60759,0,0,1-8.58-32.75972q0-18.30347,10.76409-36.50374,10.764-18.19834,30.62776-29.588,19.86354-11.38855,45.03185-11.38828c15.04456,0,23.47389,9.94448,40.25359,16.60084l4.93637,6.21165h0c-5.33623-6.79433-5.2667-7.57642-14.51639-12.0484a70.12024,70.12024,0,0,0-30.92192-6.70769q-29.62292,0-48.53884,22.308-18.91732,22.30773-18.91635,55.37954A88.046,88.046,0,0,0,103.24,151.4965a59.99132,59.99132,0,0,0,11.70009,21.21636q8.5797,10.45143,18.40779,15.39169a74.57583,74.57583,0,0,0,21.99618,6.86388,110.072,110.072,0,0,0,19.34406,1.71638l8.21546-.20807q13.93581-.519,17.41989-2.6,3.48354-2.07952,3.48465-10.6079V160.07675q0-6.75929-2.808-9.10013-2.808-2.33948-8.00794-2.02765v-1.5602h39.62359v1.5602q-6.65664,0-8.89207,2.595-2.23681,2.59362-2.23572,9.96274v24.07737q0,7.26675,1.9239,10.43129,1.92306,3.16566,7.02006,3.1651Z"/>
    <path class="cls-1" d="M329.0234,45.26073q32.23845,0,52.72769,19.60429,20.48731,19.60483,20.48842,48.93178,0,37.75185-23.712,63.54367-23.71173,25.79375-62.92,25.79208-31.82371,0-52.10351-20.79968-20.28035-20.79941-20.28035-49.92022,0-19.65617,9.77565-40.35209A81.95561,81.95561,0,0,1,282.43163,58.313Q302.08778,45.26212,329.0234,45.26073Zm-.62364,149.76013q15.80671,0,31.19952-8.476a63.00549,63.00549,0,0,0,24.23244-23.34832q8.838-14.87125,8.83965-30.57588a72.3254,72.3254,0,0,0-11.90816-40.45584,84.61751,84.61751,0,0,0-30.8877-28.4958Q330.89486,53.37243,314.77577,53.373q-22.77628,0-41.34,17.16-18.56424,17.16022-18.56452,42.63967,0,32.553,22.67225,57.20023Q300.21467,195.02086,328.39976,195.02086Z"/>
  </g>
  <text class="cls-2" transform="translate(77.56061 293.63488)">Horses</text>
  <rect class="cls-1" x="80.48908" y="209.72471" width="322.73213" height="13.18652"/>
  <path class="cls-1" d="M191.96822,71.8806s-24.0603,12.97707-5.09888,28.87034c.59012.49463-1.11537,8.52987,4.46152,18.95527.45657.85351-5.8159,2.33295.63736,8.82149.75373.75785-.31868,3.49943,3.50547,2.55167,1.47969-.36672,1.27472,2.92161,5.57689,2.33295,1.78815-.24466,4.85986,1.74972,7.144-1.02971.67943-.82674,7.99322,1.90457,7.03718-6.844-.45748-4.18633,3.58515-12.83126,3.9835-18.73656.246-3.64749,4.30217-13.92483,4.30217-13.92483s4.06316-1.89553,2.86811-8.01954c-.41-2.101,2.46746-4.12808,1.59944-15.11672-.10878-1.37711-5.6626-9.0148-5.6626-9.0148a25.33642,25.33642,0,0,1,.33326-5.84534c.11023-.89335-3.20137-1.88258-6.86619,1.90848h0C148.59389,20.45847,83.81288,78.5326,86.14564,113.14021,92.939,213.92293,203.794,198.61036,203.794,198.61036c-130.0793,11.20606-98.809-124.77272-23.23655-106.202h0c-4.03518-7.51823,5.31566-17.18112,11.41077-20.52772"/>
  <text class="cls-3" transform="translate(376.87604 310.79894)">Aps</text>
  <path class="cls-1" d="M241.08,60.70224c-1.9796-.54541-5.31823,1.09109-7.37631,1.45244-2.08975.36687-7.77376,1.71-8.44645.95767a18.75555,18.75555,0,0,0-3.21408-2.05207,23.76428,23.76428,0,0,1,.31263-5.48415c.10343-.83818-3.0036-1.76633-6.442,1.79055q-2.07143-1.12-4.14271-2.13293a2.37356,2.37356,0,0,1-.05888.30044c-1.38585,4.65244-4.56232,8.92339-4.61479,13.86213-.03279,3.09045-.00128,6.36041-1.2736,9.17533a58.406,58.406,0,0,1,20.0371,5.16763c-.00257-.01338-.00317-.025-.00581-.03849-.38463-1.97122,1.62984-.78821,1.18128-11.11672-.05043-1.16194,5.84841-5.01962,7.48945-6.39376C241.08,60.70224,243.86924,61.47068,241.08,60.70224Z"/>
  <path class="cls-4" d="M188.34,75.99933a42.92977,42.92977,0,0,0-3.98792,5.39706A19.059,19.059,0,0,0,181.89,87.2953a12.277,12.277,0,0,0,.23169,6.20008,22.6635,22.6635,0,0,0,3.01563,5.88391,13.33113,13.33113,0,0,1-4.47693-5.33571,11.79478,11.79478,0,0,1-.93921-3.51328,12.164,12.164,0,0,1,.21375-3.65107,15.57676,15.57676,0,0,1,3.14538-6.37694A17.93268,17.93268,0,0,1,188.34,75.99933Z"/>
</svg>
