<svg id="Layer_1" data-name="Layer 1" xmlns="http://www.w3.org/2000/svg" viewBox="0 0 488.34909 337.19885">
  <defs>
    <style>
      .cls-1 {
        font-size: 84.45142px;
      }

      .cls-1, .cls-2, .cls-4, .cls-5 {
        fill: #231f20;
      }

      .cls-1, .cls-4, .cls-5 {
        font-family: FelixTitlingMT, Felix Titling;
      }

      .cls-3 {
        fill: #fff;
      }

      .cls-4 {
        font-size: 128.71164px;
      }

      .cls-5 {
        font-size: 28.58459px;
      }
    </style>
  </defs>
  <title>gallery_img_logo</title>
  <text class="cls-1" transform="translate(271.57578 241.18469) scale(0.5643 1)">Horses</text>
  <rect class="cls-2" x="39.81848" y="177.1329" width="228.18029" height="97.72205"/>
  <g>
    <g>
      <path class="cls-3" d="M131.72978,114.673c-7.26363,6.35462-14.35773,14.47915-15.27868,20.88188-2.62993,18.28432-18.53479,30.80783-18.53479,30.80783L87.647,177.1329s-8.2507-15.306-3.00564-36.0677c6.01128-23.79466,3.078-31.6246-6.01129-48.59121C59.84486,57.40818,144.60482,103.4092,131.72978,114.673Z"/>
      <path class="cls-3" d="M131.72983,114.673a73.38386,73.38386,0,0,0-10.75733,11.46369,28.16332,28.16332,0,0,0-3.81359,6.84977,14.559,14.559,0,0,0-.53418,1.88682l-.32923,1.94018c-.22314,1.296-.53137,2.57562-.88049,3.84326a48.36534,48.36534,0,0,1-6.854,14.13594,60.10853,60.10853,0,0,1-10.56738,11.66812l.01306-.01181-10.2478,10.79042-.15173.1597-.09607-.193a45.36706,45.36706,0,0,1-3.47156-10.13792,56.20316,56.20316,0,0,1-.58923-21.32912c.5498-3.54735,1.60205-6.96777,2.29065-10.45569,1.441-6.9404,2.46984-14.10765,1.3363-21.14662-1.09229-7.05094-4.34937-13.52141-7.63513-19.81226-.82666-1.57478-1.70142-3.14047-2.385-4.79924a14.62113,14.62113,0,0,1-1.28626-5.21248,5.00582,5.00582,0,0,1,.63013-2.63505,4.15231,4.15231,0,0,1,2.09058-1.71558,11.49217,11.49217,0,0,1,5.33606-.447A44.56412,44.56412,0,0,1,94.16818,82.252a97.81094,97.81094,0,0,1,9.775,4.3541A115.38428,115.38428,0,0,1,122.046,97.96858a52.41239,52.41239,0,0,1,7.81982,7.2789,15.9623,15.9623,0,0,1,2.81556,4.522,5.34135,5.34135,0,0,1,.34179,2.62666A3.76631,3.76631,0,0,1,131.72983,114.673Zm0,0a3.76046,3.76046,0,0,0,1.28393-2.27823,5.32584,5.32584,0,0,0-.35022-2.6188,15.93444,15.93444,0,0,0-2.82666-4.50418,52.36282,52.36282,0,0,0-7.83728-7.24349A115.27161,115.27161,0,0,0,103.875,86.741a97.64012,97.64012,0,0,0-9.773-4.312,44.373,44.373,0,0,0-10.29822-2.6884,11.27707,11.27707,0,0,0-5.21924.44885,3.89991,3.89991,0,0,0-1.96435,1.61871,4.7481,4.7481,0,0,0-.58484,2.50217,14.37352,14.37352,0,0,0,1.2832,5.10564c.682,1.639,1.55457,3.18968,2.39331,4.76583,3.31726,6.27831,6.62842,12.7618,7.77076,19.88947,1.16674,7.11163.20666,14.35246-1.26832,21.31239-.71142,3.505-1.77893,6.92076-2.334,10.42659a55.812,55.812,0,0,0,.50195,21.18176,45.09174,45.09174,0,0,0,3.40064,10.06753l-.24756-.03328L97.8259,166.27657l.00476-.005.00842-.00708A59.91169,59.91169,0,0,0,108.4072,154.6857a48.211,48.211,0,0,0,6.88769-14.06339c.353-1.26226.66541-2.53682.89295-3.82812l.33752-1.94154a14.659,14.659,0,0,1,.54529-1.89774,28.23632,28.23632,0,0,1,3.85144-6.855A73.41012,73.41012,0,0,1,131.72983,114.673Z"/>
    </g>
    <g>
      <path class="cls-3" d="M71.116,154.59058l-2.142-2.35623s-.15924,38.22534,2.142,47.9418c6.76269,28.55359-10.77021,54.85295,8.76646,50.094,2.02283-.49274-2.78321,6.43693-.82672,8.28679,4.87614,4.61037,25.42789,3.046,27.627.98061,2.93963-2.76093-4.50846-10.77022-8.01505-16.531-1.16482-1.91364-7.49615-1.82817-8.015-4.00752-1.25235-5.25988-4.52253-8.63413-5.25987-11.7721-2.22918-9.48685,3.25611-48.5912,3.25611-48.5912Z"/>
      <path class="cls-3" d="M71.11606,154.59059l-2.1521-2.347.02356-.00905c.01172,9.75116.14673,19.50412.54016,29.24668.21374,4.8689.4574,9.74316,1.02258,14.58142.1438,1.20845.31629,2.41485.56677,3.60184.25928,1.18634.54053,2.38042.74866,3.5827a63.45872,63.45872,0,0,1,.87976,7.2704,91.30219,91.30219,0,0,1-.35608,14.62956c-.44873,4.86094-1.23413,9.68331-1.70434,14.5259a23.52549,23.52549,0,0,0,.15442,7.2171,4.771,4.771,0,0,0,1.82336,2.9077,5.78193,5.78193,0,0,0,3.37659.82319,17.38086,17.38086,0,0,0,3.56872-.50733,1.93024,1.93024,0,0,1,.51661-.079.49694.49694,0,0,1,.34619.17231.6163.6163,0,0,1,.12646.32217,2.77634,2.77634,0,0,1-.15149.98366c-.17859.59931-.40112,1.16741-.61194,1.73926a16.047,16.047,0,0,0-1.00085,3.45126,2.161,2.161,0,0,0,.28393,1.58025,5.41757,5.41757,0,0,0,1.4032,1.00584,20.73036,20.73036,0,0,0,6.97132,1.73968,57.46209,57.46209,0,0,0,7.27136.26383,58.30792,58.30792,0,0,0,7.254-.60206,20.77559,20.77559,0,0,0,3.52014-.79864,4.33311,4.33311,0,0,0,.78784-.35918,1.65969,1.65969,0,0,0,.54358-.58491,2.47784,2.47784,0,0,0,.22571-1.63586,10.59752,10.59752,0,0,0-1.29444-3.31857c-.58337-1.05851-1.24536-2.07809-1.9259-3.085-1.36438-2.01333-2.82434-3.96719-4.19275-5.99284-.34094-.50729-.678-1.01782-.99927-1.53971a2.46559,2.46559,0,0,0-1.26391-1.1213,24.49835,24.49835,0,0,0-3.452-1.09822,15.79651,15.79651,0,0,1-1.75354-.5837,3.26729,3.26729,0,0,1-1.54358-1.1129,3.65379,3.65379,0,0,1-.306-.9087c-.07373-.293-.155-.58389-.25281-.87009-.178-.57752-.39147-1.14432-.624-1.70284-.91431-2.2492-2.259-4.28691-3.37073-6.474a12.26081,12.26081,0,0,1-.70984-1.7069,11.94226,11.94226,0,0,1-.3739-1.81127,35.23119,35.23119,0,0,1-.27356-3.66c-.10693-4.88665.20887-9.76105.57727-14.62338.78858-9.72369,1.93433-19.41244,3.2605-29.07449l.00977.03894Zm0,0L88.69223,178.604l.01282.01744-.00293.02187c-1.2909,9.66389-2.40161,19.35621-3.15442,29.07594-.35071,4.85913-.64819,9.73281-.52393,14.59887a34.9421,34.9421,0,0,0,.28418,3.6288,11.684,11.684,0,0,0,.36988,1.76442,11.99,11.99,0,0,0,.69946,1.66317c1.10339,2.1533,2.468,4.20577,3.40332,6.48083.23779.56535.45679,1.14022.64,1.72683.10035.29059.18421.58623.26038.88422a3.4339,3.4339,0,0,0,.271.81886,2.97513,2.97513,0,0,0,1.39123.97446,15.48319,15.48319,0,0,0,1.71643.56371,24.63993,24.63993,0,0,1,3.51245,1.10653,3.9889,3.9889,0,0,1,.81629.49881,2.63475,2.63475,0,0,1,.60473.75409c.31958.51507.65613,1.02087.997,1.524,1.36853,2.01017,2.83582,3.95877,4.21448,5.977.688,1.01,1.35925,2.035,1.957,3.10988a10.96766,10.96766,0,0,1,1.355,3.45752,2.89866,2.89866,0,0,1-.272,1.91248,2.08951,2.08951,0,0,1-.68775.73949,4.73263,4.73263,0,0,1-.87048.40318,21.15768,21.15768,0,0,1-3.59949.83271,58.76337,58.76337,0,0,1-7.31164.63417,54.17751,54.17751,0,0,1-7.33655-.25425,21.14605,21.14605,0,0,1-7.13586-1.81733,5.73144,5.73144,0,0,1-1.54309-1.12933,2.58065,2.58065,0,0,1-.37647-1.9201,16.38705,16.38705,0,0,1,1.03918-3.55428c.213-.57067.43689-1.13843.6084-1.70724A2.48808,2.48808,0,0,0,80.171,250.58c-.02942-.12017-.01611-.10373-.08362-.1192a1.78583,1.78583,0,0,0-.3822.06772,17.781,17.781,0,0,1-3.66028.50517,6.17545,6.17545,0,0,1-3.60791-.90649,5.16147,5.16147,0,0,1-1.972-3.14353,23.82479,23.82479,0,0,1-.1377-7.34393c.49023-4.86278,1.29211-9.6723,1.75757-14.5224a91.02031,91.02031,0,0,0,.40857-14.584,63.27366,63.27366,0,0,0-.8501-7.2463c-.20349-1.20145-.47754-2.38221-.73413-3.5784-.24817-1.19945-.41626-2.41014-.55566-3.62252-.54761-4.85189-.772-9.72733-.96692-14.59934-.35547-9.7471-.45252-19.50064-.42615-29.25241l.00012-.03528.02356.02619Z"/>
    </g>
    <g>
      <path class="cls-3" d="M208.87458,113.63872,18.76775,54.653s1.9,27.14525,22.16661,47.33886c4.62826,4.61156,1.12712,11.02068,9.89357,22.29184,6.361,8.17839,10.77022,22.79278,18.28432,37.44528,2.50927,4.89308,1.10521,16.18346,2.22616,21.88291,1.18423,6.02121,4.01426,10.1542,14.30487,21.32319,5.53228,6.0045,11.27795,22.03008,12.774,30.05641.70987,3.80852-.3757,11.27116,7.88981,13.33754,4.03414,1.00853.59968,5.78758,1.12712,8.07766.5861,2.5448,3.94325,7.34484,6.387,8.26551,4.85177,1.8279,16.04412,3.07434,22.918-.56355,2.48467-1.315-3.5692-7.702-5.63557-11.97846-1.69387-3.50556-10.54836-7.24957-10.89545-11.12741-.073-.816-6.27307-13.53548-9.76834-15.77962-6.01147-3.8596-9.72577-19.159-12.02257-25.92366a69.05919,69.05919,0,0,1-2.62993-15.02821c-.37571-12.21041-7.88981-14.55775-7.88981-19.91237,0-34.18917-5.50114-32.1095-4.50846-42.83039A80.219,80.219,0,0,0,77.37776,84.2823S108.937,132.424,208.87458,113.63872Z"/>
      <path class="cls-3" d="M208.8746,113.63872,18.73093,54.77187l.16089-.12746a75.98536,75.98536,0,0,0,2.8341,13.94524,86.68514,86.68514,0,0,0,5.15015,13.27616,78.09286,78.09286,0,0,0,7.38244,12.16787c1.4386,1.889,2.92566,3.74382,4.5387,5.48762.792.88828,1.64,1.70847,2.46,2.5838a8.99337,8.99337,0,0,1,1.88306,3.07659c.828,2.27328,1.09167,4.657,1.7146,6.94285a29.856,29.856,0,0,0,2.55078,6.60866,41.34333,41.34333,0,0,0,3.913,5.92906,45.19328,45.19328,0,0,1,3.77576,6.08226c2.23877,4.21518,4.111,8.60192,6.00146,12.969,1.885,4.37071,3.751,8.74848,5.79432,13.04265.51562,1.071,1.01892,2.14821,1.55981,3.20651a21.16473,21.16473,0,0,1,1.4729,3.28241,30.76867,30.76867,0,0,1,.9596,7.10828c.10717,2.38386.10974,4.766.16955,7.14157a33.38223,33.38223,0,0,0,.7085,7.04576,22.1686,22.1686,0,0,0,1.09472,3.35521,26.07748,26.07748,0,0,0,1.6355,3.13357,53.28,53.28,0,0,0,4.21265,5.7193c1.5144,1.82894,3.08557,3.61369,4.68359,5.37471l2.4054,2.63476A23.34161,23.34161,0,0,1,87.99,207.61294a69.96662,69.96662,0,0,1,6.30322,12.84125,93.78678,93.78678,0,0,1,4.2074,13.67285c.53455,2.36816.40686,4.78071.97107,7.06064a8.54909,8.54909,0,0,0,3.75464,5.62067,11.4481,11.4481,0,0,0,3.228,1.31467,2.86152,2.86152,0,0,1,1.6173,1.0129,2.91739,2.91739,0,0,1,.458,1.85075,21.65462,21.65462,0,0,1-.73059,3.53139,5.0183,5.0183,0,0,0-.16321,1.683,7.39522,7.39522,0,0,0,.556,1.62069,17.9391,17.9391,0,0,0,4.1471,5.63039,5.61957,5.61957,0,0,0,1.42456.94346,15.19685,15.19685,0,0,0,1.6626.56007,31.64779,31.64779,0,0,0,3.46191.75071,35.17143,35.17143,0,0,0,14.084-.38558,17.47449,17.47449,0,0,0,3.304-1.21878,1.76588,1.76588,0,0,0,.66284-.42517,1.035,1.035,0,0,0,.174-.70534,4.7139,4.7139,0,0,0-.50927-1.61408,63.42253,63.42253,0,0,0-3.81666-5.99315,28.76917,28.76917,0,0,1-1.83825-3.08854,8.7998,8.7998,0,0,0-2.27735-2.60751c-1.80554-1.52454-3.80542-2.8327-5.63452-4.3826a11.64751,11.64751,0,0,1-2.45056-2.66172,4.92361,4.92361,0,0,1-.40234-.83949,4.62574,4.62574,0,0,1-.12061-.45751,3.2569,3.2569,0,0,0-.07776-.41815c-.183-.53387-.442-1.08322-.68591-1.61827-1.00623-2.14791-2.11365-4.254-3.29053-6.31559a44.85183,44.85183,0,0,0-3.92224-5.91823,11.48534,11.48534,0,0,0-1.21057-1.26786c-.41687-.37692-.96753-.66587-1.41675-1.08061a13.66862,13.66862,0,0,1-2.37048-2.71782,36.12194,36.12194,0,0,1-3.32092-6.34753c-.92469-2.20059-1.72742-4.44746-2.47535-6.7094-.74975-2.26163-1.4403-4.54116-2.14331-6.8137l-1.08825-3.4006c-.34888-1.14577-.62561-2.30723-.8794-3.47267q-.75128-3.49842-1.20324-7.04965c-.14747-1.18345-.27247-2.37049-.3285-3.56632a31.88051,31.88051,0,0,0-.2976-3.53916,20.55244,20.55244,0,0,0-2.19593-6.70357,63.62165,63.62165,0,0,0-3.95886-5.91925,8.17707,8.17707,0,0,1-1.382-3.325c-.11291-1.22276-.051-2.3879-.08508-3.58469-.00281-2.37921-.07092-4.7566-.15881-7.13351a129.12923,129.12923,0,0,0-1.23609-14.20288,66.65364,66.65364,0,0,0-1.42151-6.98081,55.03444,55.03444,0,0,1-1.61755-6.96272,40.33693,40.33693,0,0,1,.13513-7.146c.10315-1.1845.102-2.37308.11365-3.56122.03662-1.18837-.01245-2.37567-.06384-3.563a80.93316,80.93316,0,0,0-6.18433-27.68875l-.30273-.71675.45764.63057A61.14468,61.14468,0,0,0,89.98959,96.52034a93.41553,93.41553,0,0,0,15.0647,9.11212,122.03367,122.03367,0,0,0,33.62,10.26731,177.72411,177.72411,0,0,0,35.1781,1.86749A247.98991,247.98991,0,0,0,208.8746,113.63872Zm0,0a248.01875,248.01875,0,0,1-35.02038,4.17291,177.789,177.789,0,0,1-35.19409-1.82416,122.14488,122.14488,0,0,1-33.66394-10.23506,93.56073,93.56073,0,0,1-15.1-9.1078A61.27187,61.27187,0,0,1,77.30356,84.33109l.15478-.08617a81.11514,81.11514,0,0,1,6.23658,27.75448c.053,1.19065.10376,2.38137.0686,3.57346-.01013,1.19179-.00769,2.38408-.10962,3.57265a40.155,40.155,0,0,0-.12732,7.106,54.89433,54.89433,0,0,0,1.62061,6.93009,66.90055,66.90055,0,0,1,1.43505,7.00261,129.3648,129.3648,0,0,1,1.25684,14.23041c.09094,2.3799.16211,4.76015.168,7.14142.03442,1.18054-.02222,2.40323.087,3.54919a7.89841,7.89841,0,0,0,1.343,3.2078,63.65809,63.65809,0,0,1,3.97925,5.93611,20.85754,20.85754,0,0,1,2.23609,6.79652,32.20727,32.20727,0,0,1,.30517,3.57106c.05689,1.18165.18262,2.36332.33081,3.54091q.45154,3.53314,1.2074,7.02042c.25378,1.15922.531,2.31473.877,3.44566l1.09217,3.39789c.70654,2.27373,1.39892,4.54926,2.1499,6.80495.749,2.25579,1.552,4.49392,2.47424,6.68086a35.78486,35.78486,0,0,0,3.29419,6.28027,13.31818,13.31818,0,0,0,2.31043,2.64466c.42663.396.94958.66288,1.42065,1.08093a11.84244,11.84244,0,0,1,1.254,1.309,45.17161,45.17161,0,0,1,3.96606,5.96568c1.1853,2.07033,2.29785,4.17939,3.31372,6.34053.249.54707.50281,1.07486.70691,1.66679a3.55878,3.55878,0,0,1,.08814.45759c.0205.137.07287.26932.10693.40447a4.5317,4.5317,0,0,0,.36939.76635,11.29623,11.29623,0,0,0,2.3717,2.56206c1.80579,1.52726,3.80481,2.831,5.64038,4.37581a9.15959,9.15959,0,0,1,2.38245,2.73545,28.4319,28.4319,0,0,0,1.81543,3.03988,63.35966,63.35966,0,0,1,3.8529,6.03886,5.07881,5.07881,0,0,1,.55225,1.77214,1.45288,1.45288,0,0,1-.2594.98649,2.10562,2.10562,0,0,1-.811.54839,17.89787,17.89787,0,0,1-3.38122,1.25264,35.59232,35.59232,0,0,1-14.2666.41239,32.09413,32.09413,0,0,1-3.51282-.75738,15.57643,15.57643,0,0,1-1.71814-.57731,6.05033,6.05033,0,0,1-1.54273-1.014,18.36844,18.36844,0,0,1-4.2738-5.7838,7.7291,7.7291,0,0,1-.5957-1.74781,5.41816,5.41816,0,0,1,.1676-1.85229,21.608,21.608,0,0,0,.71509-3.44852,2.45336,2.45336,0,0,0-.37061-1.552,2.39424,2.39424,0,0,0-1.35669-.82977,11.9287,11.9287,0,0,1-3.3584-1.36678,8.319,8.319,0,0,1-2.604-2.552,10.61294,10.61294,0,0,1-1.37366-3.3658c-.58081-2.35988-.45959-4.78688-.98034-7.072a93.33652,93.33652,0,0,0-4.16773-13.60089,69.53355,69.53355,0,0,0-6.24023-12.75821,43.221,43.221,0,0,0-4.55445-5.44139c-1.59826-1.76565-3.171-3.55663-4.68994-5.3958a53.69529,53.69529,0,0,1-4.24121-5.77453,26.48523,26.48523,0,0,1-1.66089-3.19278,22.5965,22.5965,0,0,1-1.11316-3.4254,33.77338,33.77338,0,0,1-.71093-7.134c-.057-2.38267-.05677-4.76192-.1604-7.13379a30.42662,30.42662,0,0,0-.93384-7.01037,20.82456,20.82456,0,0,0-1.44409-3.2219c-.541-1.0618-1.04395-2.14169-1.55933-3.21562-2.04211-4.30545-3.90442-8.69-5.78369-13.06238C58.86777,139.49281,57.003,135.10982,54.78,130.912a44.83161,44.83161,0,0,0-3.73938-6.04155,41.68161,41.68161,0,0,1-3.93408-5.97928,30.19235,30.19235,0,0,1-2.57044-6.68408c-.62353-2.30606-.89038-4.70021-1.69568-6.91241A8.66934,8.66934,0,0,0,41.0267,102.321c-.80566-.86271-1.6687-1.70051-2.45947-2.58979-1.61792-1.75371-3.10913-3.61835-4.55139-5.51711a78.38618,78.38618,0,0,1-7.39539-12.22352,86.96012,86.96012,0,0,1-5.15027-13.32538,76.209,76.209,0,0,1-2.82653-14.00342l-.01746-.18311.17859.05553Z"/>
    </g>
  </g>
  <text class="cls-4" transform="translate(36.95663 165.61047) scale(0.93875 1)">Go</text>
  <rect class="cls-2" x="228.03708" y="69.12071" width="228.18029" height="97.72205"/>
  <g>
    <path class="cls-3" d="M418.40573,81.04474s5.072-23.29376-7.514-40.95191c-1.80774-2.53613-2.75488-19.27966-5.136-34.42492-11.04834-.38953-22.084-1.15088-33.14234-1.23535-.27856-.00214-1.17749.01117-2.02746.02307-.47168.02978-1.09851.0661-1.71253.10107a77.94863,77.94863,0,0,0,5.95056,6.23114,57.55134,57.55134,0,0,1-6.10266-6.22247c-.89477.0509-1.73047.09778-1.97253.11633q-5.296.4065-10.59265.80335C349.0975,6.0094,342.03659,6.507,334.971,6.92877c-4.90076.29254-9.79834.652-14.69507,1.01386,9.439,6.83123,34.68408,7.78131,37.64124,17.49774a59.93985,59.93985,0,0,0,8.2655,16.15533s1.71911,16.89832,0,22.16657c-5.82349,17.846-.25635,15.78589,0,21.03949.37573,7.702-4.855,7.49182-6.7627,9.76837-2.85156,3.40259-4.91992,14.50415-1.87854,17.65814,15.21607,15.7796,24.79651,8.07764,24.79651,8.07764,2.00757-2.83685,1.01-14.71057.594-15.85095-2.6482-7.25708-4.25977-10.85431-3.22388-14.39331,4.50854-15.40394.91663-20.98645.37573-24.04511-1.24707-7.05121-.61792-25.14532.56348-28.36578q.80676-2.19882,1.34045-4.1388l-.0011.00458s13.86841,15.73621,14.816,16.9082c2.285,2.82624,5.072,20.85163,8.26551,30.24427,1.87451,5.51349,1.085,17.57226,0,23.29376-.81079,4.27515-4.50855,11.459-2.06641,17.28241.81592,1.94555-1.03809,6.50293-2.44214,8.07763-1.13232,1.27027-4.67041,2.0196-6.01123,3.19355-2.62646,2.29937-5.35364,7.32672-5.33227,10.81744.03845,6.30414,11.3435,22.80817,20.92407,15.29407,2.73218-2.143,3.01587-10.63965,3.56921-14.2768.65442-4.30188.74951-13.13513,2.06629-17.28247,1.60424-5.05224,6.19922-11.459,2.63-21.03949C416.22519,100.176,418.40573,81.04474,418.40573,81.04474ZM382.93246,29.05817a27.62667,27.62667,0,0,1-.59765,3.11163C382.599,31.07257,382.79355,30.03992,382.93246,29.05817Z"/>
    <g>
      <path class="cls-3" d="M418.40573,81.04474a59.51257,59.51257,0,0,0,.968-9.6369,62.0347,62.0347,0,0,0-.48242-9.67334,49.78906,49.78906,0,0,0-5.91223-18.3291l-1.30823-2.039a12.21913,12.21913,0,0,1-1.20618-2.10342,28.97613,28.97613,0,0,1-1.04248-4.73535c-.50305-3.19483-.86218-6.4086-1.243-9.61844-.74341-6.42178-1.48145-12.8458-2.48084-19.23212l.05518.04889c-6.1488-.21344-12.29236-.53891-18.438-.801-3.07275-.13144-6.14624-.24442-9.22046-.31964-3.07409-.04871-6.15149-.18695-9.21667.03689l.05993-.14136a77.82807,77.82807,0,0,0,5.94812,6.2194l-.12243.13757a57.83294,57.83294,0,0,1-6.11756-6.22815l.08033.03418c-4.03565.24264-8.07056.59973-12.10584.894l-12.11267.8381L320.286,8.07721l.06921-.24387a29.14551,29.14551,0,0,0,6.75647,3.318c2.37415.85565,4.79566,1.5809,7.22705,2.27139,4.85767,1.39145,9.78284,2.61365,14.50879,4.47684a23.34434,23.34434,0,0,1,6.625,3.73532,8.68569,8.68569,0,0,1,2.32874,3.04278c.48205,1.21118.79358,2.40277,1.27331,3.57981A61.18578,61.18578,0,0,0,366.327,41.4874l.03064.043.00451.04712c.41077,4.312.69519,8.63278.76648,12.96624a55.84969,55.84969,0,0,1-.233,6.50382c-.05042.54171-.1582,1.08041-.23486,1.62079-.13746.53042-.25513,1.082-.4242,1.58859-.31018,1.03323-.65063,2.0585-.93616,3.09814a47.55168,47.55168,0,0,0-1.37512,6.30451c-.07434.53122-.09717,1.06631-.14856,1.59921-.04016.53339-.00647,1.06592-.014,1.59888a9.08832,9.08832,0,0,0,.71143,3.06793c.42029.96564,1.08826,1.83746,1.49744,2.88573a8.33533,8.33533,0,0,1,.43188,3.27649,9.96381,9.96381,0,0,1-.6466,3.24116,6.43621,6.43621,0,0,1-2.03785,2.618,25.239,25.239,0,0,1-2.78637,1.70684,5.50226,5.50226,0,0,0-1.23.94684,7.03428,7.03428,0,0,0-.88745,1.29012,21.41768,21.41768,0,0,0-2.04871,6.05243,22.41332,22.41332,0,0,0-.40442,6.38292,8.04007,8.04007,0,0,0,.8302,3.0132,5.2569,5.2569,0,0,0,.99927,1.18679l1.16223,1.12085a33.39152,33.39152,0,0,0,10.60791,7.1453,17.20214,17.20214,0,0,0,6.24841,1.12018,11.11159,11.11159,0,0,0,5.97632-1.79506l-.04578.04866a6.978,6.978,0,0,0,.82435-2.50383,24.02991,24.02991,0,0,0,.282-2.71758,53.92793,53.92793,0,0,0-.01441-5.49492c-.04663-.91581-.10864-1.83142-.19946-2.74251a9.57364,9.57364,0,0,0-.49048-2.64733l-1.88989-5.19283a26.66733,26.66733,0,0,1-1.4126-5.37854,8.90683,8.90683,0,0,1,.09265-2.81706c.2201-.9339.4762-1.7842.71253-2.68042a46.68454,46.68454,0,0,0,1.67883-10.83933,27.46319,27.46319,0,0,0-.39416-5.4573,26.81127,26.81127,0,0,0-.6178-2.66916c-.24646-.883-.54627-1.74945-.75769-2.66773a69.05123,69.05123,0,0,1-.73877-11.04745q-.033-5.52993.34082-11.0517a52.6255,52.6255,0,0,1,.63269-5.50613,23.42783,23.42783,0,0,1,.77942-2.66937l.8501-2.61759.33666.09833-.00109.00439-.036-.16735L391.708,44.36115l4.79468,5.48013a5.26289,5.26289,0,0,1,1.01745,1.5412,16.22719,16.22719,0,0,1,.65869,1.71414c.3855,1.15723.70545,2.33044,1.01575,3.50534,1.205,4.70785,2.195,9.45962,3.32031,14.17822.55664,2.36048,1.14417,4.71378,1.81592,7.04144.31213,1.17557.734,2.29831,1.06116,3.48215a21.97591,21.97591,0,0,1,.65344,3.59773,71.67228,71.67228,0,0,1-.21753,14.55887,35.73106,35.73106,0,0,1-1.33447,7.16458,59.02018,59.02018,0,0,0-1.89319,7.00954,17.00231,17.00231,0,0,0-.29614,3.59827,10.52672,10.52672,0,0,0,.63891,3.5301c.09827.27822.20227.56768.28589.8786a4.77127,4.77127,0,0,1,.07337.92954,9.02768,9.02768,0,0,1-.27881,1.81747,15.47275,15.47275,0,0,1-1.33069,3.40473,8.76932,8.76932,0,0,1-1.0116,1.53447,4.78,4.78,0,0,1-1.51465,1.05383c-1.09741.53934-2.25036.93141-3.3363,1.45506a7.581,7.581,0,0,0-2.7041,2.3201,19.815,19.815,0,0,0-1.9801,3.02748,12.623,12.623,0,0,0-1.792,6.89432,18.778,18.778,0,0,0,2.64429,6.695,26.79707,26.79707,0,0,0,4.50049,5.66689,14.79844,14.79844,0,0,0,6.12891,3.72474,8.28126,8.28126,0,0,0,3.57531.20028,8.461,8.461,0,0,0,3.30982-1.36979,5.22313,5.22313,0,0,0,2.12622-2.81611,20.71167,20.71167,0,0,0,.93188-3.50208c.45191-2.382.65869-4.80232.94287-7.21261.36255-2.40189.55457-4.81749.73523-7.2383.18677-2.419.36975-4.84061.69348-7.24768a27.08319,27.08319,0,0,1,.70179-3.57355,34.46189,34.46189,0,0,1,1.27258-3.41172,38.20259,38.20259,0,0,0,2.34778-6.87227,19.22592,19.22592,0,0,0,.15967-7.22272c-.33057-2.40842-1.55506-4.60748-1.70765-7.06076a57.26317,57.26317,0,0,1-.28015-7.2706C417.53268,90.71431,417.89047,85.86969,418.40573,81.04474Zm0,0c-.50793,4.82567-.85852,9.67074-.94739,14.52275a57.27114,57.27114,0,0,0,.2909,7.26627c.155,2.44676,1.38183,4.64,1.71838,7.0574a19.276,19.276,0,0,1-.14941,7.24136,38.25982,38.25982,0,0,1-2.34058,6.88619,34.39592,34.39592,0,0,0-1.26489,3.40629,27.04327,27.04327,0,0,0-.69434,3.5642c-.31958,2.40406-.4989,4.82476-.682,7.24391-.17664,2.41824-.36609,4.8443-.72474,7.24344-.28027,2.408-.48352,4.83137-.9331,7.221a20.812,20.812,0,0,1-.93213,3.52332,5.34824,5.34824,0,0,1-2.16614,2.87451,8.5847,8.5847,0,0,1-3.35608,1.39418,8.41016,8.41016,0,0,1-3.63073-.19751,14.9308,14.9308,0,0,1-6.19263-3.74819,26.94751,26.94751,0,0,1-4.53418-5.6914,18.9186,18.9186,0,0,1-2.6759-6.75417,12.77488,12.77488,0,0,1,1.80041-6.99658,19.97658,19.97658,0,0,1,1.994-3.05847,7.77125,7.77125,0,0,1,2.7633-2.37424c1.09986-.53193,2.252-.92575,3.33252-1.45933a4.60539,4.60539,0,0,0,1.453-1.00936,8.58376,8.58376,0,0,0,.98474-1.50049,15.27069,15.27069,0,0,0,1.308-3.3607,5.13473,5.13473,0,0,0-.07947-3.505,10.7407,10.7407,0,0,1-.657-3.59515,17.2246,17.2246,0,0,1,.29382-3.64226,59.223,59.223,0,0,1,1.8888-7.03813,35.49322,35.49322,0,0,0,1.31518-7.124,71.44723,71.44723,0,0,0,.19581-14.50377,21.71833,21.71833,0,0,0-.6504-3.554c-.32019-1.15527-.75366-2.30832-1.06591-3.47885-.67737-2.334-1.26929-4.69006-1.83-7.05182-1.1333-4.72064-2.131-9.47265-3.34-14.16672-.311-1.17038-.63183-2.339-1.015-3.4833a8.08925,8.08925,0,0,0-1.62695-3.15476l-4.8003-5.46972-9.60022-10.93915-.05993-.06824.0238-.09946.0011-.00439.33667.09833-.85156,2.63632a22.93808,22.93808,0,0,0-.764,2.62756,52.37761,52.37761,0,0,0-.61816,5.46155q-.35815,5.50149-.32337,11.02356a68.86053,68.86053,0,0,0,.74634,10.96487c.20239.87574.50537,1.75284.75561,2.64194a27.22242,27.22242,0,0,1,.63086,2.70758,27.8747,27.8747,0,0,1,.40882,5.53791,47.101,47.101,0,0,1-1.67615,10.94055c-.23193.88394-.50293,1.79861-.703,2.65733a8.46313,8.46313,0,0,0-.08265,2.68071,26.272,26.272,0,0,0,1.39869,5.28011l1.89526,5.1833a5.45534,5.45534,0,0,1,.35718,1.37761c.06323.46109.11975.9214.16308,1.3817.09314.92062.157,1.84208.20533,2.76457a54.40629,54.40629,0,0,1,.0227,5.54481,24.50532,24.50532,0,0,1-.28406,2.77247,7.34045,7.34045,0,0,1-.90222,2.7023l-.02051.03112-.02551.01784a11.54322,11.54322,0,0,1-6.264,1.91133,17.50706,17.50706,0,0,1-6.43847-1.14863,33.85879,33.85879,0,0,1-10.76209-7.26427l-1.1709-1.13289a5.69831,5.69831,0,0,1-1.07275-1.28786,8.475,8.475,0,0,1-.88416-3.19737,22.86048,22.86048,0,0,1,.42017-6.5199,21.83272,21.83272,0,0,1,2.10779-6.18435,7.43938,7.43938,0,0,1,.94946-1.37157,5.92518,5.92518,0,0,1,1.3302-1.02536,25.10719,25.10719,0,0,0,2.74463-1.67227,5.994,5.994,0,0,0,1.9082-2.44127,9.546,9.546,0,0,0,.61756-3.08844,7.91286,7.91286,0,0,0-.39856-3.10683c-.374-.97435-1.03894-1.84985-1.485-2.86837a9.50611,9.50611,0,0,1-.74231-3.21622c.00745-.54761-.02527-1.09888.01636-1.64334.05273-.543.07764-1.09061.15381-1.62967a47.91319,47.91319,0,0,1,1.39648-6.36041c.2887-1.04511.63172-2.07315.945-3.11051.17395-.51977.27881-1.02881.415-1.54385.07532-.52988.18176-1.05362.2323-1.5885a55.49907,55.49907,0,0,0,.24035-6.45557c-.06433-4.3165-.34216-8.63513-.74523-12.93436l.035.08982a61.52,61.52,0,0,1-7.27918-13.32495c-.47473-1.16782-.8092-2.42978-1.26293-3.56922a8.35873,8.35873,0,0,0-2.23926-2.92929,23.04514,23.04514,0,0,0-6.52686-3.6882c-4.6925-1.85861-9.61206-3.08865-14.47156-4.48807-2.43286-.69488-4.85925-1.42532-7.24328-2.2886A29.39854,29.39854,0,0,1,320.19687,8.052l-.30884-.21829.378-.0257,24.22669-1.6452L356.60495,5.343c4.03735-.2883,8.06677-.639,12.1106-.87607l.0487-.00287.032.03717a57.64192,57.64192,0,0,0,6.08741,6.21652l-.12244.13758a77.99325,77.99325,0,0,1-5.95264-6.24262l-.11132-.12927.17138-.01224c3.07434-.21969,6.15735-.0766,9.23035-.02331,3.07556.07983,6.14966.19744,9.22278.33352,6.14611.2713,12.28882.60593,18.43591.82849l.0481.00174.00732.04737c.99023,6.39114,1.71875,12.81747,2.45251,19.24014.376,3.21008.73035,6.42425,1.22828,9.61713a28.93585,28.93585,0,0,0,1.032,4.72375,12.155,12.155,0,0,0,1.19641,2.09244l1.30713,2.044a49.832,49.832,0,0,1,5.89075,18.35444,62.04214,62.04214,0,0,1,.46814,9.67733A59.52368,59.52368,0,0,1,418.40573,81.04474Z"/>
      <path class="cls-3" d="M382.93246,29.05817a8.28555,8.28555,0,0,0-.19592,1.48584,9.54377,9.54377,0,0,1-.1593,1.68579l-.48523-.11856a10.48654,10.48654,0,0,1,.4707-1.601A8.91717,8.91717,0,0,0,382.93246,29.05817Zm0,0a11.54259,11.54259,0,0,0-.2279,1.65942,10.17429,10.17429,0,0,1-.127,1.51059l-.48523-.11856a8.36506,8.36506,0,0,1,.43835-1.42578A10.64244,10.64244,0,0,0,382.93246,29.05817Z"/>
    </g>
  </g>
  <text class="cls-5" transform="translate(396.75449 274.85461) scale(1.22153 1)">APS</text>
  <rect class="cls-2" x="227.58404" y="257.32973" width="165.23718" height="17.52516"/>
</svg>
