<?xml version="1.0" encoding="utf-8"?>
<!-- Generator: Adobe Illustrator 22.1.0, SVG Export Plug-In . SVG Version: 6.00 Build 0)  -->
<svg version="1.1" xmlns="http://www.w3.org/2000/svg" xmlns:xlink="http://www.w3.org/1999/xlink" x="0px" y="0px"
	 viewBox="0 0 488.3 337.2" style="enable-background:new 0 0 488.3 337.2;" xml:space="preserve">
<style type="text/css">
	.st0{opacity:0.6;fill:url(#SVGID_1_);enable-background:new    ;}
	.st1{opacity:0.6;fill:#333351;enable-background:new    ;}
	.st2{opacity:0.6;fill:#173A7F;enable-background:new    ;}
	.st3{opacity:0.6;fill:#091A35;enable-background:new    ;}
	.st4{fill:url(#SVGID_2_);}
	.st5{fill:url(#SVGID_3_);}
	.st6{fill:url(#SVGID_4_);}
	.st7{fill:url(#SVGID_5_);}
	.st8{fill:url(#SVGID_6_);}
	.st9{fill:#231F20;}
	.st10{fill:#FFFFFF;}
	.st11{fill:#FFFFFF;stroke:#FFFFFF;stroke-width:2;stroke-miterlimit:10;}
</style>
<g id="Layer_1">
	<title>photo_port</title>
	<linearGradient id="SVGID_1_" gradientUnits="userSpaceOnUse" x1="-5775.9634" y1="-2422.126" x2="-5287.7393" y2="-2422.126">
		<stop  offset="3.954259e-07" style="stop-color:#D0D0D0"/>
		<stop  offset="1" style="stop-color:#000000"/>
	</linearGradient>
	<rect x="-5776" y="-2590.3" class="st0" width="488.2" height="336.4"/>
	<rect x="-5904.1" y="-1919.2" class="st1" width="488.2" height="336.4"/>
	<rect x="-5395.8" y="-1919.2" class="st2" width="488.2" height="336.4"/>
	<rect x="-4887.4" y="-1919.2" class="st3" width="488.2" height="336.4"/>
	
		<image style="overflow:visible;" width="1909" height="1224" xlink:href="2CBAEE67.jpg"  transform="matrix(0.2522 0 0 0.2522 3.4869 14.2769)">
	</image>
	
		<image style="overflow:visible;" width="960" height="639" xlink:href="D:\10357237_10152636065998888_6863413506649981819_n.jpg"  transform="matrix(0.4835 0 0 0.4835 2045.4673 14.1054)">
	</image>
	
		<image style="overflow:visible;" width="913" height="960" xlink:href="D:\10361062_277647729083818_5655148602224553362_n.jpg"  transform="matrix(0.3059 0 0 0.3059 1639.5923 18.793)">
	</image>
	
		<image style="overflow:visible;" width="628" height="512" xlink:href="D:\11954547_475310799317509_5702788019258713636_n.png"  transform="matrix(1 0 0 1 -5515.4106 -1154.8977)">
	</image>
	
		<image style="overflow:visible;" width="996" height="400" xlink:href="D:\10827880_10153094796278888_2028708825856108150_o.jpg"  transform="matrix(0.4903 0 0 0.4903 508.3491 62.4884)">
	</image>
	
		<image style="overflow:visible;" width="601" height="485" xlink:href="D:\10404137_10153224071923888_5663177570872316280_n.jpg"  transform="matrix(0.619 0 0 0.619 1068.8654 18.4934)">
	</image>
	<linearGradient id="SVGID_2_" gradientUnits="userSpaceOnUse" x1="-1815.963" y1="229.4631" x2="-1755.0645" y2="123.9836">
		<stop  offset="0" style="stop-color:#B36735"/>
		<stop  offset="1" style="stop-color:#321F0C"/>
	</linearGradient>
	<path class="st4" d="M-1963.2,91.1c0,0-1.4-5.8,8.6-9.1c10.1-3.3,18.9-4.8,25.2-6.7c0.9-0.3,3-1.2,0.4-3.8
		c-2.7-2.6-5.1-6.1-5.9-8.7c-0.9-2.9-1.1-6.9-1.1-6.9s4.9,2.8,16.4,0.4c2.8-0.6-6-1.2-5.8-16.5c0.1-6.1,4.1-8.9,4.1-8.9
		c3.1,5.9,7.6,7.7,10.6,8.7c6.3,2.3,10.8,6.5,10.8,6.5c0.5-2.6,0-5.8,0-5.8c3.9,4.3,10.4,14.1,8.8,23.9c-0.3,1.6,11.4,0.3,13.6-1.8
		c0,0,0.6,6.2-4.7,9.3c0,0,7.2,0.6,12.7,2.2c8.1,2.3,16.4,6.1,25.4,8.3c0,0-7.1,1.1-5.7,1.7c10.1,5.1,17.1,13.1,25.9,16.8
		c0,0-10.7,5.5-7.5,7.2c8.6,4.7,20.1,16.2,26.7,22.2c0,0-24.4,10.1-19.3,13c16.2,9.1,54.2-0.4,72-1c30.3-1,38.2,14.5,49.2,22.3
		c7.1,5,17.7-1.7,33.2,9.1c26.6,18.4,34.4,77,74.2,69.3c0,0-19.8,23.3-63.3,8.7c-29.8-9.9-27.1-44.2-28.1-58.4
		c-0.4-5.4-2.3-11.2-4.6-14.4c-2.5-3.4-12.6-5.7-9.3,1.1c7,14.6,4.9,32.6,4.9,32.6c-1.7-28.7-50.2-50.3-74.3-52.2
		c-21.3-1.6-39.2,1.4-52.7,4.8c-35.3,8.9-53.9,29.2-53.9,29.2s6.8-21.1,14.9-39.6c10-22.9,1-40.1-12.4-50.9
		c-7.7-6.2-23.8-13-24.5-14.2c-5.4-8.8-9.7-13.3-14.9-13.2c-2,0-5.4,1.2-4,2.1c12.8,9.4,3.5,15.1-2.7,14.8c-5.7-0.3-8.1-2.2-13-3.3
		C-1942.5,88-1954,85.5-1963.2,91.1z"/>
	<linearGradient id="SVGID_3_" gradientUnits="userSpaceOnUse" x1="-1936.124" y1="276.0185" x2="-1882.781" y2="183.6256">
		<stop  offset="0" style="stop-color:#B36735"/>
		<stop  offset="1" style="stop-color:#321F0C"/>
	</linearGradient>
	<path class="st5" d="M-1902.6,172.2c0,0,4,19.4,24,23.3c0,0-10,5.2-9.8,13.1c0.3,9.4,12.5,15.7,12.5,15.7s-8.3,1-11.3,0.8
		c-3.3-0.2-9.9-2.2-13.3-2.7c-10.2-1.5-18-1-23.6,2.1c-24.7,13.7-4.8,55.8-4.8,55.8c-14.3-19.3-15.6-28.2-15.8-32.1
		c-0.1-3.9,0.7-11.1,2.6-14.5c2.6-4.7,7.9-12.2,10.5-16.4c4.7-7.6,10-7.1,13.3-7c3.7,0.1,12.7-1,12.7-1c0-4.8,0-11.6,0.5-15.5
		C-1904.4,188.4-1903.1,186.3-1902.6,172.2z"/>
	<linearGradient id="SVGID_4_" gradientUnits="userSpaceOnUse" x1="-1872.3976" y1="284.2388" x2="-1834.1929" y2="218.0664">
		<stop  offset="0" style="stop-color:#B36735"/>
		<stop  offset="1" style="stop-color:#321F0C"/>
	</linearGradient>
	<path class="st6" d="M-1874.8,195.6c27.1,18.1,19,41.3,19.6,41.9c20.1,23.2,20.4,32.3,24.5,44.3c1.2,3.4,0.9,12.1,0.2,15.9
		c-0.7,4.2-3.7,8.7-3.7,8.7s3.9,0.1,7-8.3c3.5-9.6,2-22.7,0.6-28.6c-6.3-27.2-14.5-27.9-17.6-36.3
		C-1857.3,198.2-1874.8,195.6-1874.8,195.6z"/>
	<linearGradient id="SVGID_5_" gradientUnits="userSpaceOnUse" x1="-1799.2295" y1="310.8797" x2="-1739.2142" y2="206.9302">
		<stop  offset="0" style="stop-color:#B36735"/>
		<stop  offset="1" style="stop-color:#321F0C"/>
	</linearGradient>
	<path class="st7" d="M-1750.4,200.5c0,0-11.4,10.1-13.4,18c-2.3,9.4-0.2,25-2.5,36.8c-2.2,11.6-18.5,30.6-26.9,39
		c-3.4,3.4-15.7,11-15.7,11s14.7,1.2,22.2-4.4c12.2-9,13.4-17.4,18.3-22.9c4.1-4.7,12.3-10.7,15.5-15.4
		C-1749.1,257.2-1760.6,231.5-1750.4,200.5z"/>
	<linearGradient id="SVGID_6_" gradientUnits="userSpaceOnUse" x1="-1704.6202" y1="270.6178" x2="-1684.5769" y2="235.9019">
		<stop  offset="0" style="stop-color:#B36735"/>
		<stop  offset="1" style="stop-color:#321F0C"/>
	</linearGradient>
	<path class="st8" d="M-1747.6,204.5c3,9.2,18.5,22.9,26.4,28.6c9.4,6.8,32.5,19.4,37.9,29.7c10.8,20.5,4,25.7,21.6,31.5
		c5.8,1.9,24.6,0,24.6,0c-23.2-4.8-27.8-11.3-30.6-18.7c-2.1-5.6-4.5-13.3-6.6-17.5c-2.1-4-8.4-10.6-10-14.7c-0.7-1.8,0-6.4-1.3-7.8
		c-2.9-3.5-14.3-2-21.9-5.1C-1739.4,217.8-1747.6,204.5-1747.6,204.5z"/>
	
		<image style="overflow:visible;" width="838" height="579" xlink:href="2CBAEE6B.jpg"  transform="matrix(0.5838 0 0 0.5838 -1525.4589 -0.8423)">
	</image>
	<g>
		<path class="st9" d="M-784.1,199.2v1.6h-61.8c-11.9,0-22.2-1.3-31.1-3.8c-8.9-2.6-18-7.4-27.2-14.6c-9.3-7.2-16.7-16.1-22.5-26.8
			c-5.7-10.7-8.6-21.6-8.6-32.8c0-12.2,3.6-24.4,10.8-36.5c7.2-12.1,17.4-22,30.6-29.6c13.2-7.6,28.3-11.4,45-11.4
			c15,0,23.5,9.9,40.3,16.6l4.9,6.2l0,0c-5.3-6.8-5.3-7.6-14.5-12c-9.3-4.5-19.6-6.7-30.9-6.7c-19.7,0-35.9,7.4-48.5,22.3
			c-12.6,14.9-18.9,33.3-18.9,55.4c0,9.2,1,17.3,3.1,24.5c2.1,7.2,6,14.2,11.7,21.2c5.7,7,11.9,12.1,18.4,15.4
			c6.6,3.3,13.9,5.6,22,6.9c8.1,1.3,14.6,1.9,19.3,1.7l8.2-0.2c9.3-0.3,15.1-1.2,17.4-2.6c2.3-1.4,3.5-4.9,3.5-10.6v-23.2
			c0-4.5-0.9-7.5-2.8-9.1c-1.9-1.6-4.5-2.2-8-2v-1.6h39.6v1.6c-4.4,0-7.4,0.9-8.9,2.6c-1.5,1.7-2.2,5.1-2.2,10v24.1
			c0,4.8,0.6,8.3,1.9,10.4c1.3,2.1,3.6,3.2,7,3.2H-784.1z"/>
		<path class="st9" d="M-687.7,45.3c21.5,0,39.1,6.5,52.7,19.6c13.7,13.1,20.5,29.4,20.5,48.9c0,25.2-7.9,46.4-23.7,63.5
			c-15.8,17.2-36.8,25.8-62.9,25.8c-21.2,0-38.6-6.9-52.1-20.8c-13.5-13.9-20.3-30.5-20.3-49.9c0-13.1,3.3-26.6,9.8-40.4
			c6.5-13.8,16.3-25,29.4-33.7C-721.2,49.6-705.6,45.3-687.7,45.3z M-688.3,195c10.5,0,20.9-2.8,31.2-8.5
			c10.3-5.7,18.3-13.4,24.2-23.3c5.9-9.9,8.8-20.1,8.8-30.6c0-14.8-4-28.3-11.9-40.5c-7.9-12.1-18.2-21.6-30.9-28.5
			c-12.7-6.9-24.4-10.3-35.1-10.3c-15.2,0-29,5.7-41.3,17.2c-12.4,11.4-18.6,25.7-18.6,42.6c0,21.7,7.6,40.8,22.7,57.2
			C-724,186.8-707.1,195-688.3,195z"/>
	</g>
	<text transform="matrix(1 0 0 1 -939.1376 293.6349)" class="st9" style="font-family:'FelixTitlingMT'; font-size:85.2506px;">Horses</text>
	<rect x="-936.2" y="209.7" class="st9" width="322.7" height="13.2"/>
	<path class="st9" d="M-824.7,71.9c0,0-24.1,13-5.1,28.9c0.6,0.5-1.1,8.5,4.5,19c0.5,0.9-5.8,2.3,0.6,8.8c0.8,0.8-0.3,3.5,3.5,2.6
		c1.5-0.4,1.3,2.9,5.6,2.3c1.8-0.2,4.9,1.7,7.1-1c0.7-0.8,8,1.9,7-6.8c-0.5-4.2,3.6-12.8,4-18.7c0.2-3.6,4.3-13.9,4.3-13.9
		s4.1-1.9,2.9-8c-0.4-2.1,2.5-4.1,1.6-15.1c-0.1-1.4-5.7-9-5.7-9s-0.2-1.3,0.3-5.8c0.1-0.9-3.2-1.9-6.9,1.9l0,0
		c-67.2-36.3-132,21.7-129.6,56.4c6.8,100.8,117.6,85.5,117.6,85.5C-943,209.8-911.7,73.8-836.1,92.4l0,0
		C-840.2,84.9-830.8,75.2-824.7,71.9"/>
	<text transform="matrix(1 0 0 1 -639.8221 310.799)" class="st9" style="font-family:'FelixTitlingMT'; font-size:14.9933px;">Aps</text>
	<path class="st9" d="M-775.6,60.7c-2-0.5-5.3,1.1-7.4,1.5c-2.1,0.4-7.8,1.7-8.4,1c-0.6-0.7-3.2-2.1-3.2-2.1s-0.2-1.2,0.3-5.5
		c0.1-0.8-3-1.8-6.4,1.8c-1.4-0.7-2.8-1.5-4.1-2.1c0,0.1,0,0.2-0.1,0.3c-1.4,4.7-4.6,8.9-4.6,13.9c0,3.1,0,6.4-1.3,9.2
		c7,0.6,14,2.2,20,5.2c0,0,0,0,0,0c-0.4-2,1.6-0.8,1.2-11.1c-0.1-1.2,5.8-5,7.5-6.4C-775.6,60.7-772.8,61.5-775.6,60.7z"/>
	<g>
		<path class="st10" d="M-828.4,76c-1.5,1.7-2.8,3.5-4,5.4c-1.1,1.9-2,3.8-2.5,5.9c-0.5,2-0.4,4.2,0.2,6.2c0.6,2,1.7,4,3,5.9
			c-1.9-1.3-3.5-3.1-4.5-5.3c-0.5-1.1-0.8-2.3-0.9-3.5c-0.1-1.2,0-2.5,0.2-3.7c0.5-2.4,1.7-4.6,3.1-6.4
			C-832.1,78.7-830.4,77.1-828.4,76z"/>
	</g>
	
		<text transform="matrix(0.5643 0 0 1 -236.7733 241.1847)" class="st9" style="font-family:'FelixTitlingMT'; font-size:84.4514px;">Horses</text>
	<rect x="-468.5" y="177.1" class="st9" width="228.2" height="97.7"/>
	<g>
		<path class="st11" d="M-459.7,214.4"/>
		<path class="st10" d="M-406.6,259.4"/>
		<g>
			<path class="st10" d="M-376.6,114.7c-7.3,6.4-14.4,14.5-15.3,20.9c-2.6,18.3-18.5,30.8-18.5,30.8l-10.3,10.8c0,0-8.3-15.3-3-36.1
				c6-23.8,3.1-31.6-6-48.6C-448.5,57.4-363.7,103.4-376.6,114.7z"/>
			<path class="st10" d="M-376.6,114.7c-3.9,3.5-7.7,7.2-10.8,11.5c-1.5,2.1-2.9,4.4-3.8,6.8c-0.2,0.6-0.4,1.2-0.5,1.9l-0.3,1.9
				c-0.2,1.3-0.5,2.6-0.9,3.8c-1.4,5.1-3.9,9.8-6.9,14.1c-3,4.3-6.5,8.3-10.6,11.7l0,0l-10.2,10.8l-0.2,0.2l-0.1-0.2
				c-1.6-3.2-2.7-6.7-3.5-10.1c-0.8-3.5-1.2-7.1-1.3-10.6c-0.1-3.6,0.1-7.2,0.7-10.7c0.5-3.5,1.6-7,2.3-10.5
				c1.4-6.9,2.5-14.1,1.3-21.1c-1.1-7.1-4.3-13.5-7.6-19.8c-0.8-1.6-1.7-3.1-2.4-4.8c-0.7-1.7-1.3-3.4-1.3-5.2
				c0-0.9,0.2-1.8,0.6-2.6c0.5-0.8,1.2-1.4,2.1-1.7c1.7-0.7,3.6-0.6,5.3-0.4c3.6,0.4,7,1.5,10.3,2.7c3.3,1.3,6.6,2.7,9.8,4.4
				c6.4,3.2,12.5,7,18.1,11.4c2.8,2.2,5.5,4.5,7.8,7.3c1.1,1.4,2.2,2.8,2.8,4.5c0.3,0.8,0.5,1.7,0.3,2.6
				C-375.5,113.3-375.9,114.1-376.6,114.7z M-376.6,114.7c0.7-0.6,1.2-1.4,1.3-2.3c0.1-0.9,0-1.8-0.4-2.6c-0.6-1.7-1.7-3.1-2.8-4.5
				c-2.3-2.7-5-5.1-7.8-7.2c-5.7-4.3-11.8-8.1-18.1-11.3c-3.2-1.6-6.4-3.1-9.8-4.3c-3.3-1.2-6.8-2.3-10.3-2.7
				c-1.8-0.2-3.6-0.2-5.2,0.4c-0.8,0.3-1.5,0.9-2,1.6c-0.4,0.7-0.6,1.6-0.6,2.5c0,1.8,0.6,3.5,1.3,5.1c0.7,1.6,1.6,3.2,2.4,4.8
				c3.3,6.3,6.6,12.8,7.8,19.9c1.2,7.1,0.2,14.4-1.3,21.3c-0.7,3.5-1.8,6.9-2.3,10.4c-0.6,3.5-0.9,7.1-0.8,10.6
				c0.1,3.6,0.5,7.1,1.3,10.6c0.8,3.5,1.8,6.9,3.4,10.1l-0.2,0l10.3-10.7l0,0l0,0c4-3.3,7.6-7.3,10.6-11.6c3-4.3,5.4-9,6.9-14.1
				c0.4-1.3,0.7-2.5,0.9-3.8l0.3-1.9c0.1-0.6,0.3-1.3,0.5-1.9c0.9-2.5,2.3-4.7,3.9-6.9C-384.3,121.9-380.6,118.1-376.6,114.7z"/>
		</g>
		<g>
			<path class="st10" d="M-437.2,154.6l-2.1-2.4c0,0-0.2,38.2,2.1,47.9c6.8,28.6-10.8,54.9,8.8,50.1c2-0.5-2.8,6.4-0.8,8.3
				c4.9,4.6,25.4,3,27.6,1c2.9-2.8-4.5-10.8-8-16.5c-1.2-1.9-7.5-1.8-8-4c-1.3-5.3-4.5-8.6-5.3-11.8c-2.2-9.5,3.3-48.6,3.3-48.6
				L-437.2,154.6z"/>
			<path class="st10" d="M-437.2,154.6l-2.2-2.3l0,0c0,9.8,0.1,19.5,0.5,29.2c0.2,4.9,0.5,9.7,1,14.6c0.1,1.2,0.3,2.4,0.6,3.6
				c0.3,1.2,0.5,2.4,0.7,3.6c0.4,2.4,0.7,4.8,0.9,7.3c0.3,4.9,0.1,9.8-0.4,14.6c-0.4,4.9-1.2,9.7-1.7,14.5c-0.2,2.4-0.4,4.9,0.2,7.2
				c0.3,1.1,0.8,2.3,1.8,2.9c1,0.7,2.2,0.8,3.4,0.8c1.2,0,2.4-0.2,3.6-0.5c0.1,0,0.3-0.1,0.5-0.1c0.1,0,0.3,0.1,0.3,0.2
				c0.1,0.1,0.1,0.2,0.1,0.3c0,0.4-0.1,0.7-0.2,1c-0.2,0.6-0.4,1.2-0.6,1.7c-0.4,1.1-0.9,2.3-1,3.5c-0.1,0.6,0,1.2,0.3,1.6
				c0.4,0.4,0.9,0.7,1.4,1c2.1,1.1,4.6,1.5,7,1.7c2.4,0.2,4.8,0.3,7.3,0.3c2.4-0.1,4.9-0.2,7.3-0.6c1.2-0.2,2.4-0.4,3.5-0.8
				c0.3-0.1,0.6-0.2,0.8-0.4c0.2-0.1,0.4-0.3,0.5-0.6c0.3-0.5,0.3-1.1,0.2-1.6c-0.2-1.2-0.7-2.3-1.3-3.3c-0.6-1.1-1.2-2.1-1.9-3.1
				c-1.4-2-2.8-4-4.2-6c-0.3-0.5-0.7-1-1-1.5c-0.3-0.6-0.7-0.9-1.3-1.1c-1.1-0.5-2.3-0.8-3.5-1.1c-0.6-0.2-1.2-0.3-1.8-0.6
				c-0.6-0.2-1.2-0.5-1.5-1.1c-0.2-0.3-0.2-0.6-0.3-0.9c-0.1-0.3-0.2-0.6-0.3-0.9c-0.2-0.6-0.4-1.1-0.6-1.7
				c-0.9-2.2-2.3-4.3-3.4-6.5c-0.3-0.5-0.5-1.1-0.7-1.7c-0.2-0.6-0.3-1.2-0.4-1.8c-0.2-1.2-0.2-2.4-0.3-3.7
				c-0.1-4.9,0.2-9.8,0.6-14.6c0.8-9.7,1.9-19.4,3.3-29.1l0,0L-437.2,154.6z M-437.2,154.6l17.6,24l0,0l0,0
				c-1.3,9.7-2.4,19.4-3.2,29.1c-0.4,4.9-0.6,9.7-0.5,14.6c0.1,1.2,0.1,2.4,0.3,3.6c0.1,0.6,0.2,1.2,0.4,1.8
				c0.2,0.6,0.4,1.1,0.7,1.7c1.1,2.2,2.5,4.2,3.4,6.5c0.2,0.6,0.5,1.1,0.6,1.7c0.1,0.3,0.2,0.6,0.3,0.9c0.1,0.3,0.1,0.6,0.3,0.8
				c0.3,0.5,0.9,0.7,1.4,1c0.6,0.2,1.1,0.4,1.7,0.6c1.2,0.3,2.4,0.6,3.5,1.1c0.3,0.1,0.6,0.3,0.8,0.5c0.3,0.2,0.5,0.5,0.6,0.8
				c0.3,0.5,0.7,1,1,1.5c1.4,2,2.8,4,4.2,6c0.7,1,1.4,2,2,3.1c0.6,1.1,1.1,2.2,1.4,3.5c0.1,0.6,0.1,1.3-0.3,1.9
				c-0.2,0.3-0.4,0.6-0.7,0.7c-0.3,0.2-0.6,0.3-0.9,0.4c-1.2,0.4-2.4,0.6-3.6,0.8c-2.4,0.4-4.9,0.6-7.3,0.6c-2.4,0.1-4.9,0-7.3-0.3
				c-2.4-0.3-4.9-0.7-7.1-1.8c-0.6-0.3-1.1-0.6-1.5-1.1c-0.5-0.6-0.4-1.3-0.4-1.9c0.2-1.3,0.6-2.4,1-3.6c0.2-0.6,0.4-1.1,0.6-1.7
				c0.1-0.3,0.2-0.6,0.1-0.8c0-0.1,0-0.1-0.1-0.1c-0.1,0-0.2,0-0.4,0.1c-1.2,0.3-2.4,0.5-3.7,0.5c-1.2,0-2.5-0.2-3.6-0.9
				c-1.1-0.7-1.7-1.9-2-3.1c-0.6-2.4-0.3-4.9-0.1-7.3c0.5-4.9,1.3-9.7,1.8-14.5c0.5-4.8,0.7-9.7,0.4-14.6c-0.1-2.4-0.4-4.9-0.9-7.2
				c-0.2-1.2-0.5-2.4-0.7-3.6c-0.2-1.2-0.4-2.4-0.6-3.6c-0.5-4.9-0.8-9.7-1-14.6c-0.4-9.7-0.5-19.5-0.4-29.3l0,0l0,0L-437.2,154.6z"
				/>
		</g>
		<g>
			<path class="st10" d="M-299.5,113.6l-190.1-59c0,0,1.9,27.1,22.2,47.3c4.6,4.6,1.1,11,9.9,22.3c6.4,8.2,10.8,22.8,18.3,37.4
				c2.5,4.9,1.1,16.2,2.2,21.9c1.2,6,4,10.2,14.3,21.3c5.5,6,11.3,22,12.8,30.1c0.7,3.8-0.4,11.3,7.9,13.3c4,1,0.6,5.8,1.1,8.1
				c0.6,2.5,3.9,7.3,6.4,8.3c4.9,1.8,16,3.1,22.9-0.6c2.5-1.3-3.6-7.7-5.6-12c-1.7-3.5-10.5-7.2-10.9-11.1
				c-0.1-0.8-6.3-13.5-9.8-15.8c-6-3.9-9.7-19.2-12-25.9c-1.2-3.6-2.5-11.2-2.6-15c-0.4-12.2-7.9-14.6-7.9-19.9
				c0-34.2-5.5-32.1-4.5-42.8c1.9-20.3-6-37.2-6-37.2S-399.4,132.4-299.5,113.6z"/>
			<path class="st10" d="M-299.5,113.6l-190.1-58.9l0.2-0.1c0.5,4.7,1.5,9.4,2.8,13.9c1.4,4.6,3.1,9,5.2,13.3
				c2.1,4.3,4.6,8.4,7.4,12.2c1.4,1.9,2.9,3.7,4.5,5.5c0.8,0.9,1.6,1.7,2.5,2.6c0.8,0.9,1.5,2,1.9,3.1c0.8,2.3,1.1,4.7,1.7,6.9
				c0.6,2.3,1.4,4.5,2.6,6.6c1.1,2.1,2.5,4,3.9,5.9c1.4,1.9,2.7,4,3.8,6.1c2.2,4.2,4.1,8.6,6,13c1.9,4.4,3.8,8.7,5.8,13
				c0.5,1.1,1,2.1,1.6,3.2c0.5,1.1,1.1,2.1,1.5,3.3c0.7,2.3,0.8,4.7,1,7.1c0.1,2.4,0.1,4.8,0.2,7.1c0.1,2.4,0.1,4.8,0.7,7
				c0.3,1.1,0.6,2.3,1.1,3.4c0.5,1.1,1,2.1,1.6,3.1c1.2,2,2.7,3.9,4.2,5.7c1.5,1.8,3.1,3.6,4.7,5.4l2.4,2.6c0.8,0.9,1.5,1.9,2.2,2.9
				c2.6,4,4.6,8.4,6.3,12.8c1.7,4.5,3.2,9,4.2,13.7c0.5,2.4,0.4,4.8,1,7.1c0.5,2.3,1.7,4.4,3.8,5.6c1,0.6,2.1,1,3.2,1.3
				c0.6,0.2,1.2,0.5,1.6,1c0.4,0.6,0.5,1.2,0.5,1.9c-0.1,1.2-0.5,2.4-0.7,3.5c-0.1,0.6-0.2,1.1-0.2,1.7c0.1,0.5,0.3,1.1,0.6,1.6
				c1,2.1,2.4,4.1,4.1,5.6c0.4,0.4,0.9,0.7,1.4,0.9c0.5,0.2,1.1,0.4,1.7,0.6c1.1,0.3,2.3,0.6,3.5,0.8c4.7,0.7,9.5,0.8,14.1-0.4
				c1.1-0.3,2.3-0.7,3.3-1.2c0.3-0.1,0.5-0.2,0.7-0.4c0.1-0.2,0.2-0.4,0.2-0.7c0-0.5-0.3-1.1-0.5-1.6c-1.1-2.1-2.5-4-3.8-6
				c-0.7-1-1.3-2-1.8-3.1c-0.5-1-1.4-1.8-2.3-2.6c-1.8-1.5-3.8-2.8-5.6-4.4c-0.9-0.8-1.8-1.6-2.5-2.7c-0.2-0.3-0.3-0.5-0.4-0.8
				c0-0.2-0.1-0.3-0.1-0.5c0-0.2,0-0.3-0.1-0.4c-0.2-0.5-0.4-1.1-0.7-1.6c-1-2.1-2.1-4.3-3.3-6.3c-1.2-2.1-2.4-4.1-3.9-5.9
				c-0.4-0.5-0.8-0.9-1.2-1.3c-0.4-0.4-1-0.7-1.4-1.1c-0.9-0.8-1.7-1.7-2.4-2.7c-1.4-2-2.4-4.2-3.3-6.3c-0.9-2.2-1.7-4.4-2.5-6.7
				c-0.7-2.3-1.4-4.5-2.1-6.8l-1.1-3.4c-0.3-1.1-0.6-2.3-0.9-3.5c-0.5-2.3-0.9-4.7-1.2-7c-0.1-1.2-0.3-2.4-0.3-3.6
				c0-1.2-0.1-2.4-0.3-3.5c-0.4-2.3-1.1-4.6-2.2-6.7c-1.1-2.1-2.6-3.9-4-5.9c-0.7-1-1.2-2.1-1.4-3.3c-0.1-1.2-0.1-2.4-0.1-3.6
				c0-2.4-0.1-4.8-0.2-7.1c-0.2-4.8-0.5-9.5-1.2-14.2c-0.3-2.4-0.8-4.7-1.4-7c-0.6-2.3-1.3-4.6-1.6-7c-0.3-2.4,0-4.8,0.1-7.1
				c0.1-1.2,0.1-2.4,0.1-3.6c0-1.2,0-2.4-0.1-3.6c-0.4-9.5-2.5-18.9-6.2-27.7l-0.3-0.7l0.5,0.6c3.4,4.8,7.9,8.7,12.5,12.3
				c4.7,3.5,9.8,6.5,15.1,9.1c10.6,5.1,22,8.4,33.6,10.3c11.6,1.9,23.4,2.3,35.2,1.9C-322.7,117.3-311,115.8-299.5,113.6z
				 M-299.5,113.6c-11.6,2.2-23.3,3.7-35,4.2c-11.8,0.5-23.6,0-35.2-1.8c-11.6-1.9-23.1-5.1-33.7-10.2c-5.3-2.6-10.4-5.6-15.1-9.1
				c-4.7-3.6-9.1-7.5-12.6-12.3l0.2-0.1c3.7,8.8,5.8,18.2,6.2,27.8c0.1,1.2,0.1,2.4,0.1,3.6c0,1.2,0,2.4-0.1,3.6
				c-0.1,2.4-0.4,4.7-0.1,7.1c0.3,2.4,1,4.6,1.6,6.9c0.6,2.3,1.1,4.6,1.4,7c0.7,4.7,1.1,9.5,1.3,14.2c0.1,2.4,0.2,4.8,0.2,7.1
				c0,1.2,0,2.4,0.1,3.5c0.2,1.2,0.7,2.2,1.3,3.2c1.3,2,2.9,3.8,4,5.9c1.1,2.1,1.9,4.4,2.2,6.8c0.2,1.2,0.3,2.4,0.3,3.6
				c0.1,1.2,0.2,2.4,0.3,3.5c0.3,2.4,0.7,4.7,1.2,7c0.3,1.2,0.5,2.3,0.9,3.4l1.1,3.4c0.7,2.3,1.4,4.5,2.1,6.8
				c0.7,2.3,1.6,4.5,2.5,6.7c0.9,2.2,2,4.3,3.3,6.3c0.7,1,1.4,1.9,2.3,2.6c0.4,0.4,0.9,0.7,1.4,1.1c0.5,0.4,0.9,0.8,1.3,1.3
				c1.5,1.9,2.8,3.9,4,6c1.2,2.1,2.3,4.2,3.3,6.3c0.2,0.5,0.5,1.1,0.7,1.7c0.1,0.2,0.1,0.3,0.1,0.5c0,0.1,0.1,0.3,0.1,0.4
				c0.1,0.3,0.2,0.5,0.4,0.8c0.6,1,1.5,1.8,2.4,2.6c1.8,1.5,3.8,2.8,5.6,4.4c0.9,0.8,1.8,1.6,2.4,2.7c0.5,1.1,1.2,2.1,1.8,3
				c1.3,2,2.8,3.9,3.9,6c0.3,0.5,0.5,1.1,0.6,1.8c0,0.3,0,0.7-0.3,1c-0.2,0.3-0.6,0.4-0.8,0.5c-1.1,0.5-2.2,0.9-3.4,1.3
				c-4.7,1.2-9.5,1.1-14.3,0.4c-1.2-0.2-2.4-0.4-3.5-0.8c-0.6-0.2-1.1-0.3-1.7-0.6c-0.6-0.2-1.1-0.6-1.5-1c-1.8-1.6-3.2-3.6-4.3-5.8
				c-0.3-0.6-0.5-1.1-0.6-1.7c-0.1-0.7,0-1.3,0.2-1.9c0.3-1.2,0.7-2.3,0.7-3.4c0-0.6-0.1-1.1-0.4-1.6c-0.3-0.4-0.8-0.7-1.4-0.8
				c-1.2-0.3-2.3-0.7-3.4-1.4c-1-0.6-1.9-1.5-2.6-2.6c-0.7-1-1.1-2.2-1.4-3.4c-0.6-2.4-0.5-4.8-1-7.1c-1-4.6-2.5-9.2-4.2-13.6
				c-1.7-4.4-3.7-8.8-6.2-12.8c-1.3-2-3-3.7-4.6-5.4c-1.6-1.8-3.2-3.6-4.7-5.4c-1.5-1.8-3-3.7-4.2-5.8c-0.6-1-1.2-2.1-1.7-3.2
				c-0.5-1.1-0.8-2.3-1.1-3.4c-0.6-2.3-0.6-4.8-0.7-7.1c-0.1-2.4-0.1-4.8-0.2-7.1c-0.1-2.4-0.3-4.8-0.9-7c-0.3-1.1-0.9-2.1-1.4-3.2
				c-0.5-1.1-1-2.1-1.6-3.2c-2-4.3-3.9-8.7-5.8-13.1c-1.9-4.4-3.7-8.8-6-12.9c-1.1-2.1-2.3-4.1-3.7-6c-1.4-1.9-2.8-3.9-3.9-6
				c-1.1-2.1-2-4.4-2.6-6.7c-0.6-2.3-0.9-4.7-1.7-6.9c-0.4-1.1-1-2.1-1.8-3c-0.8-0.9-1.7-1.7-2.5-2.6c-1.6-1.8-3.1-3.6-4.6-5.5
				c-2.8-3.8-5.3-7.9-7.4-12.2c-2.1-4.3-3.8-8.8-5.2-13.3c-1.3-4.6-2.4-9.2-2.8-14l0-0.2l0.2,0.1L-299.5,113.6z"/>
		</g>
	</g>
	
		<text transform="matrix(0.9387 0 0 1 -471.3925 165.6105)" class="st9" style="font-family:'FelixTitlingMT'; font-size:128.7116px;">Go</text>
	<rect x="-280.3" y="69.1" class="st9" width="228.2" height="97.7"/>
	<g>
		<g>
			<path class="st10" d="M-89.9,81c0,0,5.1-23.3-7.5-41c-1.8-2.5-2.8-19.3-5.1-34.4c-11-0.4-22.1-1.2-33.1-1.2c-0.3,0-1.2,0-2,0
				c-0.5,0-1.1,0.1-1.7,0.1c1.9,2.2,3.9,4.3,6,6.2c-2.1-1.8-4.1-3.9-6.1-6.2c-0.9,0.1-1.7,0.1-2,0.1c-3.5,0.3-7.1,0.5-10.6,0.8
				c-7.1,0.5-14.1,1-21.2,1.4c-4.9,0.3-9.8,0.7-14.7,1c9.4,6.8,34.7,7.8,37.6,17.5c2.6,8.6,8.3,16.2,8.3,16.2s1.7,16.9,0,22.2
				c-5.8,17.8-0.3,15.8,0,21c0.4,7.7-4.9,7.5-6.8,9.8c-2.9,3.4-4.9,14.5-1.9,17.7c15.2,15.8,24.8,8.1,24.8,8.1
				c2-2.8,1-14.7,0.6-15.9c-2.6-7.3-4.3-10.9-3.2-14.4c4.5-15.4,0.9-21,0.4-24c-1.2-7.1-0.6-25.1,0.6-28.4c0.5-1.5,1-2.8,1.3-4.1
				c0,0,0,0,0,0c0,0,13.9,15.7,14.8,16.9c2.3,2.8,5.1,20.9,8.3,30.2c1.9,5.5,1.1,17.6,0,23.3c-0.8,4.3-4.5,11.5-2.1,17.3
				c0.8,1.9-1,6.5-2.4,8.1c-1.1,1.3-4.7,2-6,3.2c-2.6,2.3-5.4,7.3-5.3,10.8c0,6.3,11.3,22.8,20.9,15.3c2.7-2.1,3-10.6,3.6-14.3
				c0.7-4.3,0.7-13.1,2.1-17.3c1.6-5.1,6.2-11.5,2.6-21C-92.1,100.2-89.9,81-89.9,81z M-125.4,29.1c-0.1,1-0.3,2-0.6,3.1
				C-125.8,31.1-125.6,30-125.4,29.1z"/>
			<g>
				<path class="st10" d="M-89.9,81c0.6-3.2,0.9-6.4,1-9.6c0.1-3.2,0-6.5-0.5-9.7c-0.8-6.4-2.7-12.7-5.9-18.3l-1.3-2
					c-0.4-0.7-0.9-1.3-1.2-2.1c-0.5-1.5-0.8-3.1-1-4.7c-0.5-3.2-0.9-6.4-1.2-9.6c-0.7-6.4-1.5-12.8-2.5-19.2l0.1,0
					c-6.1-0.2-12.3-0.5-18.4-0.8c-3.1-0.1-6.1-0.2-9.2-0.3c-3.1,0-6.2-0.2-9.2,0l0.1-0.1c1.9,2.2,3.8,4.3,5.9,6.2l-0.1,0.1
					c-2.2-1.9-4.2-4-6.1-6.2l0.1,0c-4,0.2-8.1,0.6-12.1,0.9l-12.1,0.8l-24.2,1.7l0.1-0.2c2.1,1.4,4.4,2.4,6.8,3.3
					c2.4,0.9,4.8,1.6,7.2,2.3c4.9,1.4,9.8,2.6,14.5,4.5c2.3,1,4.7,2.1,6.6,3.7c1,0.8,1.8,1.8,2.3,3c0.5,1.2,0.8,2.4,1.3,3.6
					c1.8,4.7,4.3,9.1,7.3,13.2l0,0l0,0c0.4,4.3,0.7,8.6,0.8,13c0,2.2,0,4.3-0.2,6.5c-0.1,0.5-0.2,1.1-0.2,1.6
					c-0.1,0.5-0.3,1.1-0.4,1.6c-0.3,1-0.7,2.1-0.9,3.1c-0.6,2.1-1.1,4.2-1.4,6.3c-0.1,0.5-0.1,1.1-0.1,1.6c0,0.5,0,1.1,0,1.6
					c0.1,1.1,0.3,2.1,0.7,3.1c0.4,1,1.1,1.8,1.5,2.9c0.4,1,0.4,2.2,0.4,3.3c-0.1,1.1-0.2,2.2-0.6,3.2c-0.4,1-1.1,1.9-2,2.6
					c-0.9,0.7-1.9,1.2-2.8,1.7c-0.4,0.3-0.9,0.6-1.2,0.9c-0.3,0.4-0.6,0.8-0.9,1.3c-1,1.9-1.6,4-2,6.1c-0.4,2.1-0.6,4.3-0.4,6.4
					c0.1,1,0.3,2.1,0.8,3c0.3,0.4,0.6,0.8,1,1.2l1.2,1.1c3.1,3,6.6,5.6,10.6,7.1c2,0.7,4.1,1.2,6.2,1.1c2.1-0.1,4.3-0.6,6-1.8l0,0
					c0.5-0.7,0.6-1.6,0.8-2.5c0.1-0.9,0.2-1.8,0.3-2.7c0.1-1.8,0.1-3.7,0-5.5c0-0.9-0.1-1.8-0.2-2.7c-0.1-0.9-0.1-1.8-0.5-2.6
					l-1.9-5.2c-0.6-1.7-1.2-3.5-1.4-5.4c-0.1-0.9-0.1-1.9,0.1-2.8c0.2-0.9,0.5-1.8,0.7-2.7c0.9-3.5,1.6-7.2,1.7-10.8
					c0-1.8-0.1-3.7-0.4-5.5c-0.2-0.9-0.4-1.8-0.6-2.7c-0.2-0.9-0.5-1.7-0.8-2.7c-0.6-3.7-0.7-7.4-0.7-11c0-3.7,0.1-7.4,0.3-11.1
					c0.1-1.8,0.3-3.7,0.6-5.5c0.2-0.9,0.5-1.8,0.8-2.7l0.9-2.6l0.3,0.1l0,0l0-0.2l9.6,11l4.8,5.5c0.4,0.4,0.8,1,1,1.5
					c0.3,0.6,0.5,1.1,0.7,1.7c0.4,1.2,0.7,2.3,1,3.5c1.2,4.7,2.2,9.5,3.3,14.2c0.6,2.4,1.1,4.7,1.8,7c0.3,1.2,0.7,2.3,1.1,3.5
					c0.3,1.2,0.5,2.4,0.7,3.6c0.5,4.8,0.3,9.7-0.2,14.6c-0.3,2.4-0.6,4.8-1.3,7.2c-0.7,2.3-1.5,4.6-1.9,7c-0.2,1.2-0.3,2.4-0.3,3.6
					c0,1.2,0.2,2.4,0.6,3.5c0.1,0.3,0.2,0.6,0.3,0.9c0.1,0.3,0.1,0.6,0.1,0.9c0,0.6-0.1,1.2-0.3,1.8c-0.3,1.2-0.8,2.3-1.3,3.4
					c-0.3,0.5-0.6,1.1-1,1.5c-0.4,0.5-1,0.8-1.5,1.1c-1.1,0.5-2.3,0.9-3.3,1.5c-1.1,0.5-1.9,1.4-2.7,2.3c-0.8,0.9-1.4,2-2,3
					c-1.1,2.1-2,4.5-1.8,6.9c0.3,2.4,1.4,4.6,2.6,6.7c1.2,2.1,2.7,4,4.5,5.7c1.7,1.7,3.8,3.1,6.1,3.7c1.2,0.3,2.4,0.4,3.6,0.2
					c1.2-0.2,2.3-0.7,3.3-1.4c1.1-0.6,1.7-1.7,2.1-2.8c0.4-1.1,0.7-2.3,0.9-3.5c0.5-2.4,0.7-4.8,0.9-7.2c0.4-2.4,0.6-4.8,0.7-7.2
					c0.2-2.4,0.4-4.8,0.7-7.2c0.2-1.2,0.4-2.4,0.7-3.6c0.3-1.2,0.8-2.3,1.3-3.4c0.9-2.2,1.8-4.5,2.3-6.9c0.5-2.4,0.6-4.8,0.2-7.2
					c-0.3-2.4-1.6-4.6-1.7-7.1c-0.3-2.4-0.3-4.8-0.3-7.3C-90.8,90.7-90.5,85.9-89.9,81z M-89.9,81c-0.5,4.8-0.9,9.7-0.9,14.5
					c0,2.4,0,4.9,0.3,7.3c0.2,2.4,1.4,4.6,1.7,7.1c0.4,2.4,0.4,4.9-0.1,7.2c-0.5,2.4-1.4,4.7-2.3,6.9c-0.5,1.1-0.9,2.2-1.3,3.4
					c-0.3,1.2-0.5,2.4-0.7,3.6c-0.3,2.4-0.5,4.8-0.7,7.2c-0.2,2.4-0.4,4.8-0.7,7.2c-0.3,2.4-0.5,4.8-0.9,7.2
					c-0.2,1.2-0.5,2.4-0.9,3.5c-0.4,1.1-1.1,2.3-2.2,2.9c-1,0.7-2.1,1.2-3.4,1.4c-1.2,0.2-2.5,0.1-3.6-0.2c-2.4-0.6-4.4-2.1-6.2-3.7
					c-1.8-1.7-3.3-3.6-4.5-5.7c-1.2-2.1-2.3-4.3-2.7-6.8c-0.2-2.5,0.7-4.9,1.8-7c0.6-1.1,1.2-2.1,2-3.1c0.8-0.9,1.6-1.9,2.8-2.4
					c1.1-0.5,2.3-0.9,3.3-1.5c0.5-0.3,1.1-0.6,1.5-1c0.4-0.5,0.7-1,1-1.5c0.6-1.1,1-2.2,1.3-3.4c0.3-1.2,0.5-2.4-0.1-3.5
					c-0.4-1.1-0.6-2.4-0.7-3.6c0-1.2,0.1-2.4,0.3-3.6c0.4-2.4,1.2-4.7,1.9-7c0.8-2.3,1-4.7,1.3-7.1c0.5-4.8,0.7-9.7,0.2-14.5
					c-0.1-1.2-0.3-2.4-0.7-3.6c-0.3-1.2-0.8-2.3-1.1-3.5c-0.7-2.3-1.3-4.7-1.8-7.1c-1.1-4.7-2.1-9.5-3.3-14.2
					c-0.3-1.2-0.6-2.3-1-3.5c-0.4-1.1-0.8-2.3-1.6-3.2l-4.8-5.5l-9.6-10.9l-0.1-0.1l0-0.1l0,0l0.3,0.1l-0.9,2.6
					c-0.3,0.9-0.6,1.7-0.8,2.6c-0.3,1.8-0.5,3.6-0.6,5.5c-0.2,3.7-0.4,7.3-0.3,11c0.1,3.7,0.1,7.4,0.7,11c0.2,0.9,0.5,1.8,0.8,2.6
					c0.2,0.9,0.5,1.8,0.6,2.7c0.3,1.8,0.4,3.7,0.4,5.5c-0.1,3.7-0.7,7.4-1.7,10.9c-0.2,0.9-0.5,1.8-0.7,2.7
					c-0.2,0.9-0.2,1.8-0.1,2.7c0.2,1.8,0.8,3.5,1.4,5.3l1.9,5.2c0.2,0.4,0.3,0.9,0.4,1.4c0.1,0.5,0.1,0.9,0.2,1.4
					c0.1,0.9,0.2,1.8,0.2,2.8c0.1,1.8,0.1,3.7,0,5.5c0,0.9-0.1,1.9-0.3,2.8c-0.2,0.9-0.3,1.9-0.9,2.7l0,0l0,0
					c-1.9,1.3-4.1,1.8-6.3,1.9c-2.2,0.1-4.4-0.4-6.4-1.1c-4.1-1.6-7.6-4.3-10.8-7.3l-1.2-1.1c-0.4-0.4-0.8-0.8-1.1-1.3
					c-0.6-1-0.7-2.1-0.9-3.2c-0.2-2.2,0-4.4,0.4-6.5c0.5-2.1,1-4.3,2.1-6.2c0.3-0.5,0.6-0.9,0.9-1.4c0.4-0.4,0.9-0.7,1.3-1
					c0.9-0.6,1.9-1,2.7-1.7c0.8-0.6,1.5-1.5,1.9-2.4c0.4-1,0.5-2,0.6-3.1c0-1.1,0-2.1-0.4-3.1c-0.4-1-1-1.8-1.5-2.9
					c-0.5-1-0.7-2.1-0.7-3.2c0-0.5,0-1.1,0-1.6c0.1-0.5,0.1-1.1,0.2-1.6c0.3-2.2,0.8-4.3,1.4-6.4c0.3-1,0.6-2.1,0.9-3.1
					c0.2-0.5,0.3-1,0.4-1.5c0.1-0.5,0.2-1.1,0.2-1.6c0.2-2.1,0.3-4.3,0.2-6.5c-0.1-4.3-0.3-8.6-0.7-12.9l0,0.1
					c-2.9-4.1-5.4-8.6-7.3-13.3c-0.5-1.2-0.8-2.4-1.3-3.6c-0.5-1.1-1.3-2.1-2.2-2.9c-1.9-1.6-4.2-2.7-6.5-3.7
					c-4.7-1.9-9.6-3.1-14.5-4.5c-2.4-0.7-4.9-1.4-7.2-2.3c-2.4-0.9-4.7-1.9-6.8-3.4l-0.3-0.2l0.4,0l24.2-1.6l12.1-0.8
					c4-0.3,8.1-0.6,12.1-0.9l0,0l0,0c1.9,2.2,3.9,4.3,6.1,6.2l-0.1,0.1c-2.1-2-4.1-4.1-6-6.2l-0.1-0.1l0.2,0c3.1-0.2,6.2-0.1,9.2,0
					c3.1,0.1,6.1,0.2,9.2,0.3c6.1,0.3,12.3,0.6,18.4,0.8l0,0l0,0c1,6.4,1.7,12.8,2.5,19.2c0.4,3.2,0.7,6.4,1.2,9.6
					c0.3,1.6,0.5,3.2,1,4.7c0.3,0.8,0.8,1.4,1.2,2.1l1.3,2c3.2,5.6,5.1,11.9,5.9,18.4c0.4,3.2,0.5,6.4,0.5,9.7
					C-89.1,74.6-89.3,77.9-89.9,81z"/>
				<path class="st10" d="M-125.4,29.1c-0.1,0.5-0.2,1-0.2,1.5c0,0.5,0,1.1-0.2,1.7l-0.5-0.1c0.1-0.6,0.3-1.1,0.5-1.6
					C-125.6,30-125.5,29.6-125.4,29.1z M-125.4,29.1c-0.1,0.5-0.2,1.1-0.2,1.7c0,0.6,0,1-0.1,1.5l-0.5-0.1c0.1-0.5,0.3-0.9,0.4-1.4
					C-125.6,30.2-125.5,29.6-125.4,29.1z"/>
			</g>
		</g>
	</g>
	
		<text transform="matrix(1.2215 0 0 1 -111.5946 274.8546)" class="st9" style="font-family:'FelixTitlingMT'; font-size:28.5846px;">APS</text>
	<rect x="-280.8" y="257.3" class="st9" width="165.2" height="17.5"/>
	<g>
		<path class="st9" d="M2826.5,185.7c7.8,8,15.1,16.4,22.2,24.8l10.7,12.7c1.8,2.1,3.5,4.2,5.3,6.3l0.7,0.8l0.2,0.2l0.3,0.4
			c0.2,0.2,0.3,0.5,0.5,0.8c0.3,0.5,0.4,0.9,0.7,1.4c0.2,0.4,0.3,0.8,0.4,1.2c0.5,1.6,0.8,3.1,1,4.6c0.8,5.9,0.6,11.6,0.3,17.2
			c-0.4,5.6-1.1,11.2-2,16.7l-0.3,2.1c0,0.2,0,0.3-0.1,0.6l-0.2,0.8c-0.1,0.5-0.4,0.9-0.5,1.4c-0.8,1.7-1.9,2.8-3,3.9
			c-2.1,2.1-4.4,3.8-6.6,5.4l-3.3,2.5l-1.6,1.3l-0.8,0.6l-0.4,0.3c-0.2,0.1-0.4,0.3-0.6,0.4c-0.8,0.4-1.5,0.6-2.2,0.7
			c-0.7,0.2-1.4,0.3-2.1,0.4c-1.4,0.2-2.8,0.3-4.2,0.3c1.3-0.4,2.7-0.8,4-1.3c0.6-0.2,1.3-0.5,1.9-0.8c0.6-0.3,1.2-0.6,1.6-0.9
			c0.1-0.1,0.1-0.2,0.2-0.2l0.3-0.4l0.7-0.8l1.4-1.6c1-1,1.9-2,2.9-3c1.9-2,3.9-3.9,5.5-5.9c0.8-1,1.5-2,1.8-2.9
			c0-0.2,0.2-0.4,0.1-0.6c0-0.1,0-0.2,0-0.3c0-0.1,0-0.3,0-0.5l0.1-2.1c0.4-5.5,0.7-10.9,0.8-16.4c0.1-2.7,0.1-5.4,0-8.1
			c0-2.7-0.2-5.3-0.6-7.8c-0.2-1.3-0.4-2.5-0.7-3.5c-0.1-0.2-0.2-0.5-0.2-0.7l-0.2-0.5c0,0-0.1-0.1-0.1-0.1l0-0.1
			c0,0-0.1-0.1-0.1-0.2l-0.7-0.8c-1.8-2.2-3.5-4.4-5.2-6.6c-3.4-4.4-6.7-8.9-9.9-13.5C2838.1,204.8,2832,195.5,2826.5,185.7z"/>
	</g>
	<g>
		<path class="st9" d="M2868,167.3c1.8,0.2,3.6,0.6,5.4,1c1.8,0.4,3.6,0.9,5.3,1.4c3.5,1.1,7,2.4,10.4,4.2c1.7,0.9,3.4,1.9,5,3.4
			c0.8,0.8,1.7,1.6,2.3,2.9c0.2,0.3,0.3,0.7,0.5,1.1c0.1,0.4,0.2,0.9,0.3,1.3c0.1,0.4,0,1,0,1.4l0,0.5l0,0.3
			c-0.2,1.8-0.5,3.5-0.7,5.2l-0.3,2.6l-0.2,2.6c-0.3,3.5-0.5,6.9-0.5,10.4c0,1.8,0,3.5,0,5.4c0,1.9-0.2,4-0.9,6.2
			c-0.3,1.1-0.9,2-1.4,2.9c-0.3,0.4-0.6,0.9-0.9,1.3c-0.4,0.5-0.9,1-1.3,1.4c-1.7,1.4-3.4,2.2-5.2,2.9c-1.7,0.7-3.5,1.3-5.2,1.9
			c-1.8,0.5-3.5,1-5.4,1.3c3-2.1,6.1-4,8.9-6.1c1.4-1,2.8-2.2,3.7-3.2c0.3-0.3,0.3-0.5,0.4-0.7l0.5-1c0.3-0.7,0.5-1.4,0.6-2.1
			c0.5-2.6-0.2-6.2-0.3-9.9c-0.1-0.9-0.1-1.9-0.1-2.8c0-0.9,0-1.9,0-2.8c0-0.9,0-1.9,0.1-2.8c0.1-0.9,0.1-1.9,0.2-2.8
			c0.3-3.7,0.9-7.4,1.6-11l0.1-0.3c0-0.1,0.1-0.3,0-0.2c0,0,0,0.1,0,0.1c0,0,0,0,0,0c0-0.1,0-0.1,0-0.2c-0.1-0.3-0.5-0.9-0.9-1.4
			c-1-1-2.2-2.1-3.6-3.1c-2.7-2-5.8-3.8-8.8-5.7C2874.3,171,2871.1,169.2,2868,167.3z"/>
	</g>
	<g>
		<path class="st9" d="M2684.5,239.5c0.3,1.8-0.1,3.7-0.6,5.5c-0.4,1.8-1,3.5-1.6,5.2c-0.6,1.7-1.1,3.4-1.5,5
			c-0.2,0.8-0.3,1.6-0.4,2.3c-0.1,0.7,0,1.3,0.2,1.3c-0.7-0.6,1.8,0.9,3.2,1.8c0.8,0.5,1.6,1.1,2.3,1.6c0.7,0.6,1.5,1.1,2.2,1.7
			c2.9,2.4,5.6,5.2,7.9,8.2c2.3,3,4.2,6.4,5.8,9.7c1.6,3.3,2.9,6.7,4.3,9.6l0.6,1.1c0.2,0.4,0.4,0.7,0.6,1c0.4,0.7,0.9,1.3,1.3,2
			l0.2,0.2c0.1,0.1,0.1,0.1,0.1,0.1c0,0.1,0.1,0.1,0.2,0.2c0.2,0.2,0.5,0.3,0.8,0.5c0.6,0.3,1.5,0.6,2.3,0.9
			c1.7,0.6,3.6,1.3,5.2,2.5c0.8,0.6,1.5,1.3,2,2.1c0.3,0.4,0.5,0.8,0.7,1.2c0.2,0.4,0.3,0.9,0.5,1.3c-1.2-1.4-2.6-2.4-4.2-2.9
			c-1.6-0.5-3.2-0.7-5-0.8c-0.9-0.1-1.8-0.1-2.9-0.4c-0.5-0.1-1.1-0.3-1.7-0.6c-0.5-0.2-1.4-0.9-1.6-1.1c-0.7-0.7-1.5-1.4-2.1-2.1
			c-0.3-0.4-0.7-0.8-1-1.1l-0.8-1.2c-2.2-3.2-3.8-6.4-5.5-9.4c-0.9-1.5-1.7-3-2.6-4.4l-1.4-2.1l-1.5-2c-1-1.3-2-2.6-3.2-3.8
			c-1.1-1.3-2.3-2.4-3.5-3.6c-0.6-0.6-1.3-1.1-1.9-1.7c-0.6-0.6-1.2-1.2-1.9-1.7l-2-1.6c-0.4-0.3-0.5-0.4-1.4-1.1
			c-0.7-0.7-1.2-1.6-1.4-2.4c-0.4-1.7-0.2-2.9,0.1-4c0.3-1.1,0.6-2,1.1-2.9c0.8-1.8,1.8-3.3,2.7-4.9l2.9-4.5
			c0.5-0.7,0.9-1.5,1.3-2.3C2684,241.2,2684.3,240.4,2684.5,239.5z"/>
	</g>
	<g>
		<path class="st9" d="M2734.8,280.4c4.4,2.3,8.4,5,12.3,7.8c3.8,2.8,7.6,5.8,11.2,8.5l0.7,0.5c0.1,0.1,0.3,0.2,0.3,0.2c0,0,0,0,0,0
			l0,0l0.1,0c0,0,0.1,0,0.1,0.1c0.1,0,0.3,0.1,0.4,0.1c0.7,0.2,1.8,0.2,3,0.2c2.3,0.1,4.9,0.1,7.6,0.7c0.7,0.2,1.4,0.4,2,0.7
			c0.3,0.1,0.7,0.3,1,0.4l0.5,0.3c0.2,0.1,0.3,0.2,0.6,0.3c0.2,0.2,0.5,0.3,0.6,0.5l0.5,0.5c0.3,0.3,0.5,0.6,0.7,0.9
			c0.4,0.6,0.7,1.2,1,1.7c0.6,1.2,1,2.3,1.4,3.5c0.4,1.2,0.7,2.4,0.9,3.6c-1.8-1.8-3.4-3.6-5-5.1c-0.4-0.4-0.8-0.7-1.2-1
			c-0.2-0.1-0.4-0.3-0.6-0.4l-0.2-0.1c-0.1,0-0.1,0-0.1,0c0,0-0.1,0-0.2,0l-0.3-0.1c-0.2-0.1-0.5-0.1-0.7-0.1
			c-0.5-0.1-1-0.1-1.5-0.1c-2,0-4.2,0.3-6.7,0.5c-1.2,0.1-2.6,0.2-4.2,0c-0.4-0.1-0.8-0.1-1.3-0.3l-0.7-0.2l-0.4-0.1l-0.4-0.2
			c-0.3-0.1-0.5-0.3-0.8-0.4c-0.2-0.1-0.3-0.2-0.4-0.3l-0.8-0.6c-4-3-7.5-6.4-10.7-10C2740.2,288.6,2737.2,284.8,2734.8,280.4z"/>
	</g>
	<g>
		<path class="st9" d="M2715.5,172.6c2.9,3.2,6.2,5.7,9.7,7.9c3.5,2.2,7.1,4,10.9,5.5c3.8,1.5,7.6,2.7,11.6,3.7c4,1,8,1.7,12,2.2
			c8.1,1,16.4,1.4,24.7,1.3c8.3-0.1,16.7-0.6,25.3-0.9c-8,3.1-16.4,5.2-25,6.3c-8.6,1.1-17.3,1.2-26,0.2c-4.3-0.6-8.7-1.5-12.9-2.8
			c-4.2-1.3-8.3-3-12.2-5.1c-3.9-2.1-7.5-4.8-10.7-7.8c-1.6-1.5-3-3.2-4.3-5C2717.5,176.5,2716.3,174.6,2715.5,172.6z"/>
	</g>
	<g>
		<path class="st9" d="M2725.6,274.9c-3-1-6.2-1.7-9.3-2.5c-1.6-0.4-3.1-0.9-4.6-1.6c-0.8-0.3-1.5-0.7-2.3-1.1
			c-0.7-0.5-1.5-1-2.1-1.8c-0.3-0.4-0.5-0.9-0.7-1.4c-0.1-0.3-0.1-0.5-0.1-0.8c0-0.3,0-0.6,0-0.7l0.1-2.4c0-1.6,0.1-3.2,0.1-4.8
			c0-3.2,0-6.4-0.1-9.5c-0.1-3.2-0.4-6.3-0.8-9.4c-0.4-3.1-1.1-6.1-2.2-8.8l-0.4-1c-0.1-0.3-0.3-0.6-0.5-0.9
			c-0.2-0.3-0.3-0.6-0.5-0.8l-0.6-0.7c-0.9-0.9-2-1.8-3.3-2.6c-2.5-1.6-5.3-2.9-8.2-4.2c-2.9-1.3-5.8-2.5-8.8-3.9
			c-1.5-0.7-3-1.5-4.5-2.4l-1.1-0.7c-0.4-0.2-0.8-0.6-1.2-0.8l-0.6-0.4l-0.5-0.4l-1-0.9c-2.5-2.4-4.6-5.1-6.5-7.9
			c-1.9-2.8-3.6-5.7-5-8.7c-2.9-6-4.9-12.5-5.9-19.3c-0.9-6.7-0.6-13.8,1.5-20.5c1.1-3.3,2.5-6.6,4.5-9.5c0.9-1.5,2-2.8,3.1-4.2
			c0.5-0.7,1.2-1.3,1.8-1.9c0.6-0.6,1.2-1.3,1.8-1.8c5.1-4.7,11.1-8.1,17.4-10.5c0.8-0.3,1.6-0.6,2.3-0.9l2.4-0.8l2.4-0.8
			c0.8-0.2,1.6-0.4,2.4-0.6c1.6-0.4,3.2-0.9,4.8-1.1l2.5-0.5l2.5-0.4c3.3-0.5,6.5-0.7,9.8-1c3.2-0.2,6.5-0.3,9.6-0.5
			c12.8-0.5,25.4-1.2,37.7-4.3l2.3-0.6c0.8-0.2,1.5-0.4,2.3-0.7c1.5-0.4,3.1-0.9,4.4-1.4c2.8-1.3,5.5-3,8.1-4.7
			c2.6-1.8,5.2-3.6,7.8-5.6c2.6-1.9,5.1-3.9,7.6-5.9c-4.5,4.6-9.2,8.9-14.3,13c-2.5,2-5.1,4-8.1,5.6c-1.6,0.8-3.1,1.3-4.6,1.9
			c-0.8,0.3-1.5,0.6-2.3,0.8l-2.3,0.7c-6.2,2-12.6,3.3-19,4.4c-6.4,1-12.9,1.5-19.3,2.1c-6.4,0.6-12.7,1-18.8,2
			c-3.1,0.5-6,1.2-9,2.1c-0.7,0.2-1.5,0.4-2.2,0.6l-2.2,0.8l-2.2,0.8c-0.7,0.3-1.4,0.6-2.1,0.9c-5.6,2.3-10.9,5.4-15.2,9.4
			c-0.6,0.5-1,1-1.5,1.6c-0.5,0.5-1,1-1.5,1.6c-0.9,1.2-1.8,2.3-2.5,3.5c-1.6,2.4-2.8,5.1-3.6,7.9c-1.8,5.5-2.1,11.6-1.4,17.5
			c0.4,3,1.1,5.9,1.9,8.8c0.9,2.9,2,5.7,3.2,8.5c1.2,2.8,2.7,5.5,4.4,8c1.6,2.5,3.5,5,5.5,7l0.8,0.8l0.4,0.4l0.4,0.3
			c0.3,0.2,0.5,0.4,0.8,0.6l0.9,0.6c0.6,0.4,1.3,0.8,1.9,1.1l2,1.1c2.8,1.4,5.7,2.8,8.6,4.3c2.9,1.5,5.8,3,8.7,5
			c1.4,1,2.8,2.1,4.1,3.5l0.9,1.2c0.3,0.4,0.5,0.8,0.7,1.2c0.2,0.4,0.5,0.8,0.6,1.3l0.5,1.3c1.2,3.4,1.6,6.7,1.9,10
			c0.3,3.3,0.3,6.5,0.2,9.8c-0.1,3.2-0.3,6.5-0.6,9.7c-0.1,1.6-0.3,3.2-0.5,4.8l-0.3,2.4c0,0.2,0,0.3,0,0.5c0,0.1,0,0.3,0,0.4
			c0.1,0.3,0.1,0.5,0.3,0.8c0.7,1.1,2,2,3.3,2.7c1.4,0.7,2.8,1.3,4.3,1.9C2719.6,272.6,2722.7,273.6,2725.6,274.9z"/>
	</g>
	<g>
		<path class="st9" d="M2698.8,76c0.4,2,0.6,4,0.6,6.1c0.1,2.1,0,4.1-0.3,6.2c-0.5,4.2-1.8,8.4-4.1,12.1c-2.3,3.8-5.5,7.1-9.2,9.5
			c-3.7,2.4-7.7,4.1-11.8,5.3c-1,0.3-2.1,0.6-3,0.8c-0.9,0.2-1.8,0.5-2.7,0.8c-1.8,0.5-3.6,1.1-5.2,1.9c-3.4,1.4-6.4,3.3-8.7,5.8
			c-2.3,2.5-3.7,5.8-3.9,9.4c-0.1,1.8,0.1,3.7,0.6,5.6c0.5,1.9,1.2,3.7,2,5.6c-3-2.8-5.3-6.6-6-10.9c-0.4-2.2-0.4-4.5,0.2-6.7
			c0.5-2.2,1.5-4.4,2.8-6.3c5.4-7.7,14.7-10.7,22.1-12.6c7.3-2.1,13.9-5.4,18.4-11.1c2.3-2.8,4-6.2,5.3-9.9
			C2697.2,83.9,2698,80,2698.8,76z"/>
	</g>
	<g>
		<path class="st9" d="M2649.4,160.2c-7.3-0.3-14.7-3.9-19.7-9.8c-5.1-5.8-7.8-13.6-8.1-21.4c-0.3-7.8,2.1-15.8,6.4-22.4
			c2.1-3.3,4.8-6.3,7.7-8.9c0.7-0.6,1.4-1.3,2.3-1.9l1.2-0.9l1.2-0.8c1.7-1.1,3.4-2,5.1-2.9c7-3.3,14.1-5.2,20.8-7.6
			c6.7-2.4,13.1-5.2,18.6-9.2c2.8-2,5.2-4.4,7.5-7.1l1.6-2c0.5-0.7,1-1.4,1.5-2.1c0.8-1.3,1.5-2.9,2.1-4.6c1.2-3.3,2-6.8,2.5-10.3
			c0.3-1.8,0.4-3.6,0.4-5.4c0-1.8-0.1-3.6-0.5-5.4c0.9,1.6,1.3,3.5,1.6,5.3c0.3,1.8,0.4,3.7,0.4,5.6c0,3.7-0.4,7.4-1.2,11.2
			c-0.4,1.9-1,3.7-1.9,5.6c-0.5,0.9-0.9,1.7-1.4,2.5L2696,70c-2.2,3.2-4.8,6-7.7,8.6c-1.5,1.3-3,2.4-4.6,3.5c-1.6,1.1-3.2,2.1-4.9,3
			c-3.3,1.8-6.8,3.3-10.3,4.7c-3.5,1.4-6.9,2.5-10.3,3.8c-3.4,1.2-6.7,2.5-9.8,3.9c-1.6,0.7-3,1.5-4.4,2.4l-1,0.7l-1,0.7
			c-0.6,0.5-1.3,1.1-1.9,1.6c-2.6,2.2-4.8,4.7-6.7,7.4c-3.8,5.5-6.1,12-6.4,18.7c-0.1,3.4,0.3,6.7,1.1,10c0.8,3.3,2.3,6.4,4.2,9.3
			C2636.1,154.1,2642.3,158.4,2649.4,160.2z"/>
	</g>
	<g>
		<path class="st9" d="M2859,168.7c1-4.5,1.8-9,2.1-13.4c0.3-4.4,0.3-8.9-0.5-13c-0.7-4.2-2.2-8.1-4.4-11.4
			c-2.5-3.6-5.3-7.3-7.8-11.3c-2.5-4-4.8-8.2-6.5-12.8c-1.6-4.6-2.7-9.7-1.8-14.9c0.4-2.6,1.3-5.1,2.7-7.3c1.3-2.2,3.1-4.1,4.9-5.6
			c1.9-1.5,4-2.8,6.1-3.8c2.1-1,4.3-1.8,6.6-2.3c-3.9,2.5-7.5,5.3-10.2,8.6c-2.8,3.3-4.4,7.1-4.5,11c-0.2,3.9,0.9,8,2.5,11.9
			c1.6,3.9,3.8,7.7,6.2,11.5c1.2,1.9,2.4,3.7,3.6,5.6c1.2,1.9,2.5,3.8,3.7,5.9c2.7,4.4,3.9,9.4,4.2,14.3c0.3,4.9-0.4,9.7-1.6,14.2
			c-0.6,2.3-1.3,4.5-2.2,6.6C2861.3,164.6,2860.3,166.7,2859,168.7z"/>
	</g>
	<g>
		<path class="st9" d="M2846.1,182.7c0.7-4.6,0.9-9.3,0.2-13.9c-0.6-4.6-2.2-8.9-4.5-12.9c-4.5-8-11.3-14.3-17.7-21.2
			c-6.5-6.8-12.8-14.1-17.2-22.8c-2.2-4.3-4-8.9-5.1-13.7c-1.1-4.8-1.6-9.9-1-14.9c0.5-5,2-9.9,4.3-14.4c2.2-4.5,5.2-8.6,8.6-12.1
			c1.7-1.8,3.5-3.5,5.4-5c1.9-1.5,3.9-3,6-4.3c4.1-2.7,8.5-4.9,13.1-6.6c2.3-0.9,4.7-1.6,7.3-2.1c2.5-0.4,4.9-0.7,7.4-0.8
			c2.5-0.1,5,0,7.5,0.2c2.5,0.2,4.9,0.7,7.4,1.3c4.8,1.1,9.5,2.9,13.9,5.1c2.2,1.1,4.3,2.4,6.4,3.7c1,0.7,2,1.4,3,2.1
			c1,0.8,1.9,1.5,3,2.4l-5.7,2.7c-0.2-3.8,0.6-7.5,1.9-10.9c0.6-1.7,1.5-3.3,2.3-4.8c0.4-0.8,0.9-1.5,1.4-2.3
			c0.3-0.4,0.5-0.7,0.8-1.1c0.3-0.4,0.5-0.7,0.9-1.1l4.3-5.1l1.3,6.5c1.2,5.7,2.1,11.4,3,17.1c0.8,5.7,1.6,11.5,1.7,17.4
			c0,1.5,0,3,0,4.5c0,0.8-0.1,1.5-0.2,2.3l-0.3,2.2c-0.4,2.9-0.8,5.7-1.2,8.6c-0.8,5.7-1.6,11.3-2.2,16.9c-0.1,1.4-0.3,2.8-0.3,4.2
			c0,0.7,0,1.4-0.1,2c0,0.5,0.1,1.1,0.2,1.8c0.5,2.7,1.3,5.5,1.6,8.5c0.1,1.5,0.3,3.2-0.4,5.1c-0.1,0.2-0.2,0.5-0.3,0.7
			c-0.1,0.2-0.2,0.3-0.3,0.5l-0.6,0.9c-0.4,0.6-0.9,1.2-1.3,1.8c-1.8,2.4-4,4.6-6.7,6.1c-1.4,0.8-2.8,1.4-4.4,1.6
			c-1.6,0.3-3.2,0.2-4.8-0.4c-1.5-0.5-2.9-1.5-3.9-2.7c-0.3-0.3-0.5-0.7-0.7-0.9c-0.2-0.3-0.4-0.5-0.6-0.8c-0.4-0.5-0.9-1-1.5-1.4
			c-2.1-1.8-4.8-3.4-6.3-6c-0.4-0.8-0.3-1.6-0.3-2.3c0.1-0.7,0.2-1.4,0.4-2.1c0.3-1.4,0.8-2.8,1.3-4.1c-0.4,1.4-0.7,2.8-0.9,4.2
			c-0.1,0.7-0.2,1.4-0.2,2.1c0,0.7,0,1.4,0.3,1.9c1.6,2.3,4.2,3.5,6.5,5.3c0.6,0.4,1.2,0.9,1.7,1.4c0.3,0.3,0.5,0.5,0.8,0.8
			c0.3,0.3,0.4,0.5,0.7,0.7c0.9,0.9,2,1.6,3.2,1.9c2.4,0.6,5.1-0.1,7.2-1.5c2.2-1.4,4-3.5,5.5-5.7c0.4-0.6,0.7-1.1,1.1-1.7l0.5-0.9
			c0.1-0.1,0.2-0.3,0.2-0.4c0-0.1,0.1-0.2,0.1-0.3c0.2-0.8,0.2-2.2,0-3.4c-0.4-2.6-1.3-5.3-2-8.2c-0.2-0.8-0.3-1.5-0.4-2.5
			c0-0.8-0.1-1.5,0-2.2c0-1.5,0.1-2.9,0.1-4.4c0.3-5.8,0.9-11.5,1.5-17.2c0.3-2.8,0.6-5.7,0.9-8.5l0.2-2.1c0-0.6,0.1-1.3,0.1-2
			c0-1.3,0-2.7-0.1-4.1c-0.4-5.5-1.2-11.1-2.1-16.7c-0.9-5.6-2-11.2-3.3-16.7l5.6,1.4c-0.1,0.2-0.4,0.5-0.6,0.8
			c-0.2,0.3-0.4,0.6-0.6,0.9c-0.4,0.6-0.8,1.2-1.1,1.9c-0.7,1.3-1.3,2.6-1.8,3.9c-1,2.7-1.5,5.4-1.4,8.1l0.5,8.1l-6.1-5.4
			c-0.7-0.6-1.6-1.3-2.5-2c-0.9-0.6-1.8-1.3-2.7-1.9c-1.9-1.2-3.8-2.3-5.8-3.3c-4-2-8.1-3.5-12.4-4.5c-2.1-0.5-4.3-0.8-6.4-1.1
			c-2.2-0.2-4.3-0.3-6.5-0.2c-2.2,0.1-4.3,0.3-6.5,0.7c-2,0.4-4.1,1-6.2,1.7c-8.2,3-16,8-22.2,14.1c-3.1,3.1-5.8,6.6-7.8,10.4
			c-2,3.8-3.4,8-3.9,12.2c-0.5,4.3-0.4,8.7,0.5,13c0.9,4.3,2.4,8.6,4.3,12.6c1.9,4.1,4.3,7.9,6.9,11.7c2.6,3.7,5.6,7.3,8.6,10.8
			c3,3.5,6.2,7,9.1,10.7c2.9,3.7,5.7,7.6,7.8,12c2.1,4.3,3.4,9,3.7,13.8C2847.8,173.4,2847.2,178.1,2846.1,182.7z"/>
	</g>
</g>
<g id="Layer_3">
</g>
<g id="Layer_2">
</g>
</svg>
