<svg id="Layer_1" data-name="Layer 1" xmlns="http://www.w3.org/2000/svg" viewBox="0 0 177.49041 135.24725">
  <defs>
    <style>
      .cls-1 {
        fill: #000018;
      }
    </style>
  </defs>
  <title>signature</title>
  <path class="cls-1" d="M16.58653,139.562a218.942,218.942,0,0,1-9.43579-38.61658,113.99573,113.99573,0,0,1-1.10144-19.863A60.63074,60.63074,0,0,1,9.77305,61.57464a35.13078,35.13078,0,0,1,4.87366-8.69824,30.19162,30.19162,0,0,1,3.43078-3.64673,26.04622,26.04622,0,0,1,4.08033-2.9093,23.74538,23.74538,0,0,1,9.52233-2.969,26.23764,26.23764,0,0,1,9.92432,1.10547A27.73175,27.73175,0,0,1,57.07469,56.57733,32.23856,32.23856,0,0,1,60.633,65.91387,73.03558,73.03558,0,0,1,62.234,75.76605a68.61294,68.61294,0,0,1,.25427,9.98071,34.44,34.44,0,0,1-1.76709,9.84668,12.64029,12.64029,0,0,1-2.56641,4.36707,7.16461,7.16461,0,0,1-2.08911,1.52368,4.20875,4.20875,0,0,1-2.61413.45715,1.82742,1.82742,0,0,1-1.14392-.8927,3.54089,3.54089,0,0,1-.38465-1.30371,10.24474,10.24474,0,0,1,.09351-2.56043,34.79608,34.79608,0,0,1,1.14734-4.88525c.963-3.19226,2.14111-6.30261,3.35193-9.39392,1.18689-3.09045,2.55139-6.15332,3.58435-9.24658.84777-3.15308,1.22961-6.48755,2.13623-9.7107a16.15107,16.15107,0,0,1,1.96948-4.66894A5.39107,5.39107,0,0,1,66.12608,57.48a4.28228,4.28228,0,0,1,2.63525-.37915,4.79833,4.79833,0,0,1,2.40955,1.10144,6.4376,6.4376,0,0,1,1.54321,2.11291,15.66114,15.66114,0,0,1,1.21606,4.92432c.17872,1.67053.2096,3.34424.2212,5.00354.01049,1.64685.07714,3.31909.02905,4.98535a43.02148,43.02148,0,0,1-.36035,5.00378,14.99936,14.99936,0,0,1-.54077,2.492,5.3157,5.3157,0,0,1-.54737,1.21838,2.56421,2.56421,0,0,1-1.07458.9342,1.98533,1.98533,0,0,1-1.481.22278A1.75825,1.75825,0,0,1,69.125,83.99005a7.05628,7.05628,0,0,1-.32459-2.60364,25.29591,25.29591,0,0,1,.74671-4.9906,46.01173,46.01173,0,0,1,1.44653-4.80176c.2804-.78381.59046-1.57068.89746-2.33215.29737-.7544.545-1.53687.78064-2.32581.47217-1.57886.87964-3.19214,1.43164-4.78284a14.98844,14.98844,0,0,1,1.01331-2.3435,5.36388,5.36388,0,0,1,1.75671-1.9989,3.20467,3.20467,0,0,1,4.72327,1.50427,12.25036,12.25036,0,0,1,.847,5.047,47.75226,47.75226,0,0,1-1.28161,9.9458l-.81446-.17823A67.13029,67.13029,0,0,1,83.10264,64.11a17.68158,17.68158,0,0,1,1.11243-2.40051,6.35,6.35,0,0,1,.80542-1.12586,1.96743,1.96743,0,0,1,1.423-.73291,1.111,1.111,0,0,1,.51257.12281,1.03374,1.03374,0,0,1,.38452.4049,2.16831,2.16831,0,0,1,.21119.77954,6.93674,6.93674,0,0,1-.02515,1.37732A19.54257,19.54257,0,0,1,87.055,65.138l-.8374-.22071A35.66418,35.66418,0,0,1,87.51,61.09271a17.18348,17.18348,0,0,1,.87317-1.84851,4.90356,4.90356,0,0,1,1.38342-1.69239,1.3636,1.3636,0,0,1,1.39111-.103,2.40974,2.40974,0,0,1,.82727.89062,13.40992,13.40992,0,0,1,.8534,1.879,18.67469,18.67469,0,0,0,1.61767,3.523,2.90537,2.90537,0,0,0,1.25965,1.13537,2.05035,2.05035,0,0,0,1.593-.1228,7.9639,7.9639,0,0,0,2.82532-2.42529,24.50817,24.50817,0,0,0,3.42285-6.9895,86.86279,86.86279,0,0,0,3.28528-15.48133c.70032-5.25,1.13831-10.53735,1.44458-15.83178.16895-5.269,1.01465-10.70008-.61474-15.63648a5.13019,5.13019,0,0,0-1.98218-2.90844c-.93054-.51587-2.07154.20068-2.8822,1.12585a23.12836,23.12836,0,0,0-3.65479,6.82678,51.36407,51.36407,0,0,0-3.439,15.33875,28.26228,28.26228,0,0,0,.67956,7.7799,19.077,19.077,0,0,0,3.21314,7.02283,15.35292,15.35292,0,0,0,5.96167,4.79822,14.6139,14.6139,0,0,0,3.69079,1.10058,9.67608,9.67608,0,0,0,3.76758-.32788,34.81659,34.81659,0,0,1,3.942-.88964,3.37463,3.37463,0,0,1,2.21411.39575,2.912,2.912,0,0,1,1.16394,1.95923c.28369,2.76733.28308,5.35608.30542,8.04834-.041,2.66772-.1388,5.33874-.44116,7.996a53.0673,53.0673,0,0,1-1.38672,7.90161,35.08514,35.08514,0,0,1-2.802,7.54211,22.11546,22.11546,0,0,1-4.89039,6.42517,15.538,15.538,0,0,1-7.21923,3.65027,12.29374,12.29374,0,0,1-4.10132.12,7.13616,7.13616,0,0,1-2.02112-.571,6.86764,6.86764,0,0,1-1.71265-1.23413,8.26479,8.26479,0,0,1-2.22595-3.48962A10.03044,10.03044,0,0,1,93.4647,82.9,18.21924,18.21924,0,0,1,96.25,75.316a20.81987,20.81987,0,0,1,5.43432-5.9707,6.91137,6.91137,0,0,1,3.89234-1.47082,2.84356,2.84356,0,0,1,1.10913.24646,3.9476,3.9476,0,0,1,.93225.58837,3.06131,3.06131,0,0,1,1.04138,1.954,7.56919,7.56919,0,0,1-.94812,4.03846,24.55467,24.55467,0,0,1-2.11426,3.446,58.38431,58.38431,0,0,1-5.18518,6.11072,124.02506,124.02506,0,0,1-25.03418,19.73511,135.99785,135.99785,0,0,1-14.09228,7.508,70.79875,70.79875,0,0,1-15.1117,5.18885,26.92018,26.92018,0,0,1-3.99633.49523,13.308,13.308,0,0,1-4.04712-.3728,5.75366,5.75366,0,0,1-3.40515-2.30115,7.01574,7.01574,0,0,1-.96387-3.9862,16.21046,16.21046,0,0,1,2.366-7.67664,37.48915,37.48915,0,0,1,4.76562-6.44629A88.14312,88.14312,0,0,1,52.77671,85.73748c4.23194-3.23034,8.64124-6.21606,13.137-9.05652A316.05106,316.05106,0,0,1,93.78709,61.19622q14.28331-7.08928,29.03967-13.156c9.8241-4.05359,19.7771-7.79908,29.86694-11.13575a237.53043,237.53043,0,0,1,30.77185-8.23168A237.44967,237.44967,0,0,0,152.74,37.04364c-10.07031,3.38159-20.00122,7.17114-29.80066,11.26745q-14.696,6.15216-28.95569,13.27869C84.50132,66.366,75.17234,71.46307,66.19676,77.129c-4.481,2.84094-8.87329,5.82556-13.08265,9.04932A87.59077,87.59077,0,0,0,41.32493,96.7901a36.91658,36.91658,0,0,0-4.68152,6.35058,15.62607,15.62607,0,0,0-2.27661,7.391,6.42527,6.42527,0,0,0,.8689,3.64295,5.13909,5.13909,0,0,0,3.059,2.04248,18.08723,18.08723,0,0,0,7.75952-.14575,70.21058,70.21058,0,0,0,14.9591-5.16614,135.34145,135.34145,0,0,0,14.01038-7.49292A123.31709,123.31709,0,0,0,99.884,83.75335a57.67348,57.67348,0,0,0,5.10925-6.03869,23.82755,23.82755,0,0,0,2.04419-3.34058,6.90062,6.90062,0,0,0,.87317-3.60974,2.29219,2.29219,0,0,0-.78857-1.481,3.1965,3.1965,0,0,0-.74719-.46875,2.08231,2.08231,0,0,0-.82349-.17883,6.2258,6.2258,0,0,0-3.427,1.33887,20.0694,20.0694,0,0,0-5.21106,5.75195,17.45545,17.45545,0,0,0-2.65991,7.251,9.23681,9.23681,0,0,0,.35742,3.7749,7.45714,7.45714,0,0,0,2.01892,3.15185,6.12,6.12,0,0,0,1.50183,1.08728,6.3464,6.3464,0,0,0,1.8.50147,11.4882,11.4882,0,0,0,3.825-.12,14.71655,14.71655,0,0,0,6.828-3.4707c3.902-3.483,6.13318-8.49524,7.41382-13.55713a52.21274,52.21274,0,0,0,1.35279-7.78113c.29479-2.623.38757-5.26745.42431-7.91-.02331-1.32214-.00183-2.64478-.06164-3.96655l-.08631-1.98267a13.338,13.338,0,0,0-.15173-1.91687,2.04434,2.04434,0,0,0-.78137-1.38965,2.5297,2.5297,0,0,0-1.636-.25159,34.94431,34.94431,0,0,0-3.82153.87537,10.53221,10.53221,0,0,1-4.11756.34827,15.52872,15.52872,0,0,1-3.924-1.1626,16.27655,16.27655,0,0,1-6.32922-5.07434,20.00932,20.00932,0,0,1-3.38684-7.3595,29.20539,29.20539,0,0,1-.71851-8.04211A52.31433,52.31433,0,0,1,98.23509,13.088,23.93436,23.93436,0,0,1,102.06944,5.94a5.53044,5.53044,0,0,1,1.71423-1.34449,2.63574,2.63574,0,0,1,2.35217-.00708,4.14538,4.14538,0,0,1,1.59229,1.57105,9.43508,9.43508,0,0,1,.88049,1.90649,24.25386,24.25386,0,0,1,1.02112,8.03821c-.096,2.67652-.22607,5.31714-.38025,7.978-.31555,5.31116-.76318,10.61951-1.47571,15.901a87.74434,87.74434,0,0,1-3.34912,15.648,25.34781,25.34781,0,0,1-3.57593,7.24988,8.81178,8.81178,0,0,1-3.17956,2.6947,2.94577,2.94577,0,0,1-2.27649.13489,3.76464,3.76464,0,0,1-1.67407-1.46912A19.28768,19.28768,0,0,1,92.014,60.54a12.71018,12.71018,0,0,0-.78577-1.74792,1.64212,1.64212,0,0,0-.49353-.57141.47765.47765,0,0,0-.49255.06982,4.20663,4.20663,0,0,0-1.09558,1.38245,16.30727,16.30727,0,0,0-.82947,1.75085,34.88821,34.88821,0,0,0-1.26319,3.71851l-.83752-.22071a18.74732,18.74732,0,0,0,.45251-2.47375,6.14434,6.14434,0,0,0,.02747-1.19971,1.404,1.404,0,0,0-.11218-.46228c-.08106-.09179.01086-.05237-.15882-.07727a1.17292,1.17292,0,0,0-.77954.4596,5.54149,5.54149,0,0,0-.69238.97046,16.88207,16.88207,0,0,0-1.05859,2.27929A66.37494,66.37494,0,0,0,81.166,74.2901l-.81445-.17811a46.99688,46.99688,0,0,0,1.27393-9.75085,11.5465,11.5465,0,0,0-.759-4.69434,2.40187,2.40187,0,0,0-3.571-1.17309c-1.24.809-1.89734,2.41931-2.44165,3.92212C74.315,63.95867,73.906,65.564,73.426,67.16155c-.24023.7992-.49414,1.59913-.80615,2.38746-.31409.776-.613,1.53186-.89282,2.30908a45.27238,45.27238,0,0,0-1.42944,4.718,24.56944,24.56944,0,0,0-.733,4.83129,6.39163,6.39163,0,0,0,.26868,2.3053,1.0208,1.0208,0,0,0,.57.663,1.26943,1.26943,0,0,0,.91125-.17359,1.76991,1.76991,0,0,0,.78247-.6676,4.60743,4.60743,0,0,0,.46741-1.04565,14.31361,14.31361,0,0,0,.51465-2.363A42.35227,42.35227,0,0,0,73.44,75.21185c.0503-1.65015-.01306-3.29383-.02112-4.96326-.00854-1.656-.03723-3.30359-.20886-4.93262a14.987,14.987,0,0,0-1.14294-4.69445,5.73355,5.73355,0,0,0-1.36157-1.88074A4.08133,4.08133,0,0,0,68.65244,57.8a3.56648,3.56648,0,0,0-2.20385.30518,4.703,4.703,0,0,0-1.66687,1.57056,15.51789,15.51789,0,0,0-1.87964,4.45813c-.89868,3.16748-1.27637,6.45971-2.15442,9.71423-1.07385,3.19739-2.42493,6.2-3.61963,9.29858-1.21313,3.0813-2.3916,6.17871-3.35,9.337a34.22916,34.22916,0,0,0-1.13488,4.78979,9.65508,9.65508,0,0,0-.09571,2.3971c.07691.771.39051,1.51941,1.06287,1.66662a3.675,3.675,0,0,0,2.19189-.415,6.54419,6.54419,0,0,0,1.90845-1.38953,12.04632,12.04632,0,0,0,2.43982-4.15112A33.87248,33.87248,0,0,0,61.8961,85.715a68.00437,68.00437,0,0,0-.23682-9.89477,72.46849,72.46849,0,0,0-1.57251-9.77649,31.68625,31.68625,0,0,0-3.48108-9.18726A27.203,27.203,0,0,0,41.451,44.94805a25.78644,25.78644,0,0,0-9.72766-1.10131A23.26858,23.26858,0,0,0,22.38,46.71405a25.612,25.612,0,0,0-4.01941,2.8385A29.77744,29.77744,0,0,0,14.96641,53.128a34.74784,34.74784,0,0,0-4.8573,8.58044A60.32112,60.32112,0,0,0,6.32017,81.09417a113.779,113.779,0,0,0,1.00976,19.82715A218.84612,218.84612,0,0,0,16.58653,139.562Z" transform="translate(-5.97515 -4.31469)"/>
</svg>
