<svg id="Layer_1" data-name="Layer 1" xmlns="http://www.w3.org/2000/svg" viewBox="0 0 33.62267 33.62267">
  <defs>
    <style>
      .cls-1 {
        fill: #f5fafd;
      }
    </style>
  </defs>
  <title>some-03</title>
  <path class="cls-1" d="M29.85637,0H4.0459A4.04542,4.04542,0,0,0,.00047,4.04542V29.35477a4.26776,4.26776,0,0,0,4.26777,4.26777h3.0745V20.58578a.797.797,0,0,0-.797-.79707H5.28557a.797.797,0,0,1-.797-.797h0V15.818a.797.797,0,0,1,.797-.797H6.54571a.797.797,0,0,0,.797-.797V12.15045A6.61059,6.61059,0,0,1,8.7865,7.52532q1.44365-1.57042,4.75114-1.57013h3.01355a.797.797,0,0,1,.797.797h0V9.926a.797.797,0,0,1-.797.797H14.9643a4.06043,4.06043,0,0,0-1.04929.10921.92556.92556,0,0,0-.57069.39454,1.62138,1.62138,0,0,0-.22674.57908,5.2489,5.2489,0,0,0-.0502.83125V14.224a.797.797,0,0,0,.797.797h2.7207a.702.702,0,0,1,.71334.79267l-.33633,3.18259a.908.908,0,0,1-.88079.79261H13.86447a.797.797,0,0,0-.797.797h0V33.62267H28.95426a4.6679,4.6679,0,0,0,4.6679-4.6679V4.0334A4.02437,4.02437,0,0,0,29.85637,0Z"/>
</svg>
