<?xml version="1.0" encoding="utf-8"?>
<!-- Generator: Adobe Illustrator 22.1.0, SVG Export Plug-In . SVG Version: 6.00 Build 0)  -->
<svg version="1.1" id="Layer_1" xmlns="http://www.w3.org/2000/svg" xmlns:xlink="http://www.w3.org/1999/xlink" x="0px" y="0px"
	 viewBox="0 0 144.8 98.9" style="enable-background:new 0 0 144.8 98.9;" xml:space="preserve">
<style type="text/css">
	.st0{fill:#FFFFFF;stroke:#FFFFFF;stroke-miterlimit:10;}
	.st1{fill:#FFFFFF;stroke:#FFFFFF;stroke-width:3;stroke-miterlimit:10;}
	.st2{fill:#FFFFFF;}
</style>
<g>
	<g>
		<path class="st0" d="M37.7,61c-1.1,3.7,69.5-6.8,69.5-6.8l-68.7,3.5L37.7,61z"/>
		<path class="st0" d="M106.1,43.2c0,0,0.2-0.1,0.2-0.5c0-0.4-1-6.7-0.2-12c0.8-5.3-15.6-5.1-15.6-5.1s-17.5,0.3-20.6,1
			c-3.1,0.7-30.8,1.6-33.9,8.8c-1.5,3.5,0.7,15.1,0.7,15.1L106.1,43.2z"/>
		<path class="st0" d="M36.6,49.3c0,0,0,12,1.1,11.7c18.7-4.7,41.4-2.5,69.5-6.8c0.7-0.1-0.5-11.4-1.8-11.5
			c-7.9-0.9-23.1-0.1-38.1,1.8C51.7,46.5,37.5,46.1,36.6,49.3z"/>
		<path class="st0" d="M50.5,58.8c0,0,22.4,15.7,48.7,11.5c18.5-3,8-16,8-16L50.5,58.8z"/>
	</g>
	<path class="st1" d="M44.5,56.2c0,0,58.6-5.4,63.6-4.5"/>
	<ellipse class="st0" cx="107.8" cy="51.5" rx="0.9" ry="1.9"/>
	<g>
		<path class="st2" d="M91.6,29c-0.6,0-1.2,0-1.8,0c-0.2,0-0.4,0-0.6,0.1c-0.3,0.2-0.4,0.6-0.6,0.9c-0.3,0.5-0.9,0.7-1.4,0.8
			c-0.2,0.1-0.4,0.1-0.5,0.3c-0.1,0.1-0.1,0.2-0.2,0.4c-0.1,0.7,0.5,1.3,0.6,2c0.1,0.4,0,0.7-0.1,1.1c-0.1,0.4-0.2,0.8-0.3,1.3
			c0,0.1,0,0.2,0,0.2c0,0.1,0.1,0.2,0.2,0.3c0.8,0.7,1.1,1.9,1.4,2.9c0,0.1,0,0.2,0.1,0.2c0.1,0.1,0.2,0.1,0.3,0.1
			c0.7,0,1.5,0.2,2.2,0.5c0.6,0.3,1.2,0.6,1.9,0.6c0.9,0,1.6-0.8,2.5-1c0.3-0.1,0.5-0.1,0.8-0.2c0.2-0.2,0.4-0.4,0.5-0.7
			c0-0.1,0.1-0.2,0.1-0.4c0-0.2-0.1-0.3-0.2-0.5c-0.1-0.3,0.1-0.6,0.4-0.8s0.5-0.3,0.8-0.5c0.1-0.1,0.2-0.1,0.2-0.2
			c0-0.1-0.1-0.2-0.1-0.3c-0.4-0.5-1-0.9-1.1-1.5c-0.1-0.5,0.2-1,0.2-1.5c0-0.1,0-0.1,0-0.2c0-0.1-0.1-0.1-0.2-0.1
			c-0.4-0.2-0.6-0.7-0.7-1.1c-0.1-0.4-0.2-0.9-0.4-1.3c-0.2-0.4-0.6-0.8-1-0.8c-0.2,0-0.5,0-0.7-0.1c-0.3-0.2-0.3-0.7-0.6-0.7
			c-0.1,0-0.2,0-0.3,0c-0.3,0.1-0.7,0.3-1,0.4"/>
		<g>
			<path class="st2" d="M91.6,26.5c-0.6,0-1.8-0.3-2.4,0.1c-0.5,0.3-0.6,0.9-1,1.3c-0.9,0.7-1.5,0.4-1.7,1.7
				c-0.3,2.2-0.1,4.4,0.6,6.4c0-1.6,0-3.1,0-4.7c0,0.9-0.4,1.8-0.4,2.8c-0.1,1.2-0.1,2.6,0,3.7c0.1,1,0.5,1.1,1,2
				c0.3,0.5,0.3,1.5,0.6,1.9c0.4,0.4,0.9,0.3,1.5,0.4c1.8,0.4,2.4,1.2,4.2,0.5c1.1-0.4,2.3-0.5,2.6-1.8c0.3-1.4,0.3-4.1-0.2-5.5
				c0,1.7,0,3.3,0,5c0.1-0.9,0.9-0.9,1.3-1.5c0.4-0.5,0.3-4.4,0-5c-0.3-0.7-0.9-1.1-1.2-1.8c0,1.7,0,3.3,0,5
				c0.1-1.1,0.2-2.2,0.2-3.3c0-0.9,0.3-2.5,0-3.3c-0.2-0.5-0.7-0.8-0.9-1.4c-0.4-0.8-0.2-1.5-1.1-2c-0.2-0.1-0.4-0.2-0.7-0.2
				c-0.3,0-0.5-0.2-0.6-0.5c-0.7-0.2-0.7-0.2-1.6,0.1c-0.6,0.3,0.6,4.7,0,5c0.9-0.4,0.9-0.4,1.6-0.1c0.1,0.3,0.3,0.5,0.6,0.5
				c0.2,0,0.5,0,0.7,0.2c0.9,0.5,0.7,1.2,1.1,2c0.2,0.5,0.8,1,0.9,1.5c0-1.7,0-3.3,0-5c-0.3,1.5-0.2,3.1-0.2,4.6
				c0,0.5-0.1,1.2,0,1.7c0.2,0.8,0.9,1.2,1.2,1.9c0-1.7,0-3.3,0-5c-0.4,0.5-1,0.6-1.3,1.3c-0.2,0.4-0.1,1.1-0.1,1.5
				c0,1.4-0.3,3,0.2,4.3c0-1.7,0-3.3,0-5c-0.3,1.3-1.2,1.2-2.3,1.7c-1.5,0.7-2,0.6-3.5,0c-0.7-0.3-2.1-0.2-2.6-0.8
				c-0.3-0.4-0.4-1.4-0.6-1.9c-0.3-0.5-0.6-0.9-1-1.3c0,1.6,0,3.3,0,4.9c0.1-1.6,0.5-3,0.5-4.7c0-0.8,0.1-1.7,0-2.5
				c-0.1-0.8-0.5-1.5-0.6-2.3c0,1.7,0,3.3,0,5c0.3-0.8,1.4-0.9,2-1.5c0.2-0.2,0.3-0.7,0.6-0.9c0.5-0.3,1.9-0.1,2.4-0.1
				C91.6,31.5,91.6,26.5,91.6,26.5L91.6,26.5z"/>
		</g>
	</g>
	<g>
		<path class="st2" d="M91.7,30.4c-0.4,0-0.9,0-1.3,0c-0.2,0-0.3,0-0.5,0.1c-0.2,0.1-0.3,0.4-0.5,0.7c-0.2,0.3-0.6,0.5-1,0.6
			c-0.1,0.1-0.3,0.1-0.4,0.2C88,32.1,88,32.2,88,32.3c-0.1,0.5,0.4,1,0.4,1.5c0,0.3,0,0.5-0.1,0.8c-0.1,0.3-0.2,0.6-0.2,0.9
			c0,0.1,0,0.1,0,0.2c0,0.1,0.1,0.1,0.2,0.2c0.6,0.5,0.8,1.4,1,2.2c0,0.1,0,0.1,0.1,0.2c0.1,0,0.1,0.1,0.2,0.1
			c0.6,0,1.1,0.1,1.6,0.3c0.5,0.2,0.9,0.5,1.4,0.4c0.7,0,1.2-0.6,1.9-0.8c0.2,0,0.4,0,0.6-0.1c0.2-0.1,0.3-0.3,0.3-0.5
			c0-0.1,0.1-0.2,0.1-0.3c0-0.1-0.1-0.3-0.1-0.4c0-0.2,0.1-0.5,0.3-0.6c0.2-0.1,0.4-0.2,0.6-0.4c0.1,0,0.1-0.1,0.1-0.2
			c0-0.1,0-0.2-0.1-0.2c-0.3-0.4-0.7-0.7-0.8-1.1c-0.1-0.4,0.1-0.7,0.1-1.1c0,0,0-0.1,0-0.1c0,0-0.1-0.1-0.1-0.1
			c-0.3-0.2-0.4-0.5-0.5-0.8c-0.1-0.3-0.1-0.7-0.3-1c-0.1-0.3-0.4-0.6-0.8-0.6c-0.2,0-0.4,0-0.5-0.1c-0.2-0.1-0.2-0.5-0.5-0.5
			c-0.1,0-0.1,0-0.2,0c-0.3,0.1-0.5,0.2-0.8,0.3L91.7,30.4z"/>
		<g>
			<path class="st2" d="M91.7,29.8c-0.4,0-1.4-0.2-1.8,0.1c-0.3,0.2-0.4,0.7-0.7,1c-0.5,0.4-1,0.3-1.2,1c-0.2,0.8,0.2,1.9,0.4,2.6
				c0-0.4,0-0.8,0-1.2c0,0.9-0.6,2-0.3,2.9c0.1,0.4,0.5,0.7,0.7,1.1c0.2,0.4,0.2,1.1,0.4,1.4c0.3,0.3,0.7,0.2,1.1,0.3
				c1.3,0.3,1.8,0.9,3.2,0.3c0.8-0.3,1.7-0.4,1.9-1.4c0.1-0.5,0-1.2-0.1-1.6c0,0.4,0,0.8,0,1.3c0.1-0.7,0.6-0.7,1-1.1
				c0.1-0.1,0.1-1.1,0-1.3c-0.2-0.5-0.7-0.8-0.9-1.3c0,0.4,0,0.8,0,1.3c0.1-0.8,0.3-1.8,0.1-2.5c-0.2-0.1-0.3-0.3-0.4-0.4
				c-0.2-0.3-0.3-0.6-0.3-1c-0.3-0.8-0.5-0.8-1.2-1.1c-0.4-0.2-0.5-0.6-0.9-0.6C92.3,29.5,92.1,29.9,91.7,29.8c0.1,0-0.1,1.2,0,1.3
				c0.3,0.1,0.6-0.3,0.9-0.3c0.3,0,0.8,0.4,1.1,0.6c0.7,0.4,0.8,0.5,1.1,1.4c0.2,0.5,0.7,0.9,0.8,1.3c0-0.4,0-0.8,0-1.3
				c-0.1,0.6-0.2,1.3-0.2,1.9c0.1,0.8,0.6,1.1,0.9,1.8c0-0.4,0-0.8,0-1.3c-0.5,0.6-0.9,0.6-1,1.4c0,0.5,0,0.9,0.1,1.3
				c0-0.4,0-0.8,0-1.3c-0.2,0.9-0.9,0.9-1.7,1.2c-1.1,0.5-1.5,0.4-2.6,0c-0.6-0.2-1.6-0.1-1.9-0.6C89,37.2,89,36.4,88.8,36
				c-0.2-0.4-0.5-0.6-0.7-1c0,0.4,0,0.8,0,1.2c0.1-0.9,0.4-1.6,0.3-2.5c0-0.8-0.3-1.4-0.4-2.2c0,0.4,0,0.8,0,1.3
				c0.3-0.6,1.1-0.7,1.5-1.1c0.2-0.2,0.2-0.5,0.5-0.7c0.4-0.2,1.4-0.1,1.8-0.1C91.7,31,91.8,29.8,91.7,29.8z"/>
		</g>
	</g>
	<ellipse class="st0" cx="43.4" cy="56.2" rx="2.2" ry="3.1"/>
	<g>
		<path class="st2" d="M91.6,33.4c0-0.2,0-0.4-0.2-0.6s-0.3-0.3-0.4-0.4c0,0,0,0,0-0.1c0,0,0,0,0-0.1c0.1-0.2,0.3-0.2,0.5-0.2
			c0.2,0,0.3,0,0.5-0.1c0.2,0,0.3,0,0.5,0c0.2,0.1,0.3,0.4,0.3,0.7c0,0.3-0.1,0.5-0.2,0.8c0.2,0.1,0.3,0,0.5,0s0.3-0.2,0.4-0.2
			c0,0,0,0,0.1,0c0,0,0.1,0.1,0.1,0.1c0,0.5,0.1,0.9,0,1.4c0,0,0,0,0,0c0,0,0,0-0.1,0c-0.3-0.1-0.6-0.2-0.8-0.3
			c0,0.1,0.1,0.2,0.2,0.3c0.4,0.6,0.4,1.3,0.4,2c-0.6-0.2-1.3-0.2-2-0.1c0.4-0.6,0.6-1.3,0.5-2c-0.3,0.1-0.7,0.2-1.1,0.2
			c0,0-0.1,0-0.1,0c-0.1,0-0.1-0.1-0.1-0.2c0-0.4,0-0.8,0-1.1c0,0,0-0.1,0-0.1c0,0,0.1,0,0.2,0c0.3,0,0.6,0,0.9,0.1"/>
		<g>
			<path class="st2" d="M91.6,30.9c0-0.5-0.4-0.7-0.7-1.1c0,1.7,0,3.3,0,5c0.1-0.3,0.5-0.3,0.8-0.3c0.5-0.1,1-0.1,1,0.6
				c0-1.6,0-3.3,0-4.9c0,0.3-0.1,0.5-0.2,0.8c-0.2,0.4-0.1,5,0,5c0.3,0,0.9-0.1,1-0.2c0,0,0.1-3.4,0-3.5c-0.2-0.2-0.6-0.2-0.8-0.3
				c0.1,0,0,2.3,0,2.5c0,0.6,0,1.2,0,1.8c0,0.2-0.1,0.5,0,0.7c0.3,0.7,0.6,1.2,0.6,2c0-1.6,0-3.1,0-4.7c-0.7-0.1-1.3-0.2-2-0.1
				c0,1.7,0,3.3,0,5c0.4-0.5,0.5-1.1,0.5-1.7c0-1.3,0-2.6,0-3.9c0-0.3,0-0.6,0-0.9c0-0.6-0.3-0.3-0.8-0.2c-0.1,0-0.2,0-0.4,0
				c-1.3-0.2-1.3,0.9-0.1,3.6c0.3,0,0.7,0,1.1,0.1c-0.2,0,0.3-5,0-5c-0.2,0-0.8-0.2-1-0.1c-0.2,0.1-0.1,0.2-0.1,0.4
				c-0.2,0.9,0,2,0,3c0,0.6,0,1.2,0,1.8c0,0.2-0.1,0.8,0,1c0.1,0.2,0.1,0.2,0.2,0.3c0.4,0.3,1-0.6,1.1,0.1c0-0.2,0-0.5,0-0.7
				c0,0.1,0,0.2,0,0.3c0-1.4,0-2.8,0-4.3c-0.1,0.5-0.2,1-0.5,1.4c-0.3,0.4,0.2,5,0,5c0.7-0.1,1.3,0,2,0.1c-0.1,0,0-4.3,0-4.7
				c0-0.5,0-0.9-0.1-1.4c-0.1-0.5-0.3-0.8-0.5-1.3c0,1.7,0,3.3,0,5c0.6,0.2,0.9,0.6,0.9-0.2c0-1.1,0-2.2,0-3.3c0-0.8,0.1-1.6,0-2.4
				c-0.1-0.9-0.4-0.1-1.1-0.2c0,1.7,0,3.3,0,5c0.5-1.4,0.2-3.1,0.2-4.6c0-0.5,0.1-1.1,0-1.5c-0.2-0.6-0.6-0.5-1.1-0.4
				c-0.3,0.1-0.5,0.1-0.7,0.3c-0.1,0.2,0,0.5,0,0.7c0,0.6,0,1.2,0,1.8c0,0.5,0,1,0,1.5c0,0.3-0.1,0.7,0,0.9c0.2,0.5,0.6,0.6,0.7,1.2
				C91.4,34.2,91.7,32.5,91.6,30.9L91.6,30.9z"/>
		</g>
	</g>
</g>
</svg>
