<?xml version="1.0" encoding="utf-8"?>
<!-- Generator: Adobe Illustrator 22.1.0, SVG Export Plug-In . SVG Version: 6.00 Build 0)  -->
<svg version="1.1" id="Layer_1" xmlns="http://www.w3.org/2000/svg" xmlns:xlink="http://www.w3.org/1999/xlink" x="0px" y="0px"
	 viewBox="0 0 144.8 98.9" style="enable-background:new 0 0 144.8 98.9;" xml:space="preserve">
<style type="text/css">
	.st0{fill:#FFFFFF;}
	.st1{fill:#FFFFFF;stroke:#FFFFFF;stroke-width:0.25;stroke-miterlimit:10;}
</style>
<g>
	<path class="st0" d="M41.3,32.3C29.5,78.2,86.7,94.4,91.9,93.5l0,0C62.3,80.6,41.4,66.1,41.3,32.3L41.3,32.3L41.3,32.3z"/>
	<path class="st0" d="M71.4,3.9c0,0,18.1,66.8-13.1,61.9l0,0c-6.6-3.2-5.7-10.9-5.3-12.4C56,43.8,72.1,44,71.4,3.9z"/>
	<path class="st0" d="M63.5,67.6c8.2-6.1,12.2,8.2,23.4,11.3l0,0C59.5,80.2,62.5,69,63.5,67.6"/>
</g>
<rect x="83" y="54.7" transform="matrix(0.5524 -0.8336 0.8336 0.5524 -2.7085 108.74)" class="st0" width="33.7" height="4.4"/>
<polygon class="st0" points="88.4,70.2 92.1,72.7 86.5,77.3 86.3,77.2 "/>
<line class="st1" x1="86.4" y1="77.3" x2="86.1" y2="77.7"/>
</svg>
