<?xml version="1.0" encoding="utf-8"?>
<!-- Generator: Adobe Illustrator 22.1.0, SVG Export Plug-In . SVG Version: 6.00 Build 0)  -->
<svg version="1.1" id="Layer_1" xmlns="http://www.w3.org/2000/svg" xmlns:xlink="http://www.w3.org/1999/xlink" x="0px" y="0px"
	 viewBox="0 0 144.8 98.9" style="enable-background:new 0 0 144.8 98.9;" xml:space="preserve">
<style type="text/css">
	.st0{fill:#FFFFFF;}
	.st1{fill:#FFFFFF;stroke:#FFFFFF;stroke-width:0.25;stroke-miterlimit:10;}
</style>
<g>
	<path class="st0" d="M-991.4-16.6c-2.3-0.3-4.2,1.4-5.8,3.1c-2.7,2.9-4.5,5.7-6.9,8.9c-0.9,1.2-2.5,2.7-3.1,4.1
		c-0.5,1.4-0.4,2.9-0.9,4.3c-2.5,6.7-5.2,9.7-10.1,17.2c-0.6,0.9-1.9,1.6-2.3,2.6c-0.2,0.6-0.5,2.4-0.6,3c-0.2,2.1-0.4,4.2-0.6,6.3
		c-0.1,0.8-0.2,1.7,0,2.5c0.3,1.7,1.3,3.2,2.4,4.6c0.8,1.1,3.1,2.4,4.5,2.3c2.3-0.3,1.5,0.7,2.9,0.4c1.5-0.3,4.1-1.1,5.5-1.9
		c1.4-0.8,1.9-1.7,2.2-3.3c0.3-1.2-0.4-2.4,0.2-3.5c0.3-0.6,1-0.8,1.6-1.1c3.6-1.9,9.4-6.6,9.9-6.9c1.1-0.5,2.2-0.6,3.3-0.6
		c2.7,0,5.2-0.6,7.5-1.9c4.6-2.4,8.4-5.5,11.2-9.7c6.3-9.5-8.1-34.4-21-31.3"/>
</g>
<g>
	<path class="st0" d="M-996-14.7c-2.2-1.2-3.9-3.1-5.2-5.1c-1.3-2.1-2.4-4.3-3.4-6.6c2.6,1.6,5.6,2.4,8.3,3.6
		c2.8,1.2,5.5,3.1,6.7,5.8"/>
</g>
<g>
	<g>
		<path class="st0" d="M-955.2,46.4c0.1-8.8-2.7-17.6-8-25c-2-2.8-5-5.6-8.7-5.2l-19.5-34.4c34-10.7,72.2,13.1,76.3,20.8"/>
	</g>
</g>
<g>
	<g>
		<path class="st0" d="M-736.6-164.3c0-3.1-1.3-7.8-3.2-10.4c-0.7-1-3.3-3.2-4.6-3.1l-5.3-9.8c13-2.9,23.4,2.5,29.2,9"/>
	</g>
</g>
<g>
	<path class="st0" d="M-751.2-187.3c-0.7-0.1-1.4,0.5-1.9,1c-0.9,1-1.5,1.9-2.3,2.9c-0.3,0.4-0.8,0.9-1,1.3c-0.2,0.5-0.1,1-0.3,1.4
		c-0.8,2.2-1.7,3.2-3.3,5.6c-0.2,0.3-0.6,0.5-0.8,0.9c-0.1,0.2-0.2,0.8-0.2,1c-0.1,0.7-0.1,1.4-0.2,2.1c0,0.3-0.1,0.6,0,0.8
		c0.1,0.6,0.4,1,0.8,1.5c0.3,0.4,1,0.8,1.5,0.7c0.8-0.1,0.5,0.2,1,0.1c0.5-0.1,1.4-0.4,1.8-0.6c0.4-0.2,0.6-0.6,0.7-1.1
		c0.1-0.4-0.1-0.8,0.1-1.2c0.1-0.2,0.3-0.3,0.5-0.4c1.2-0.6,3.1-2.2,3.2-2.3c0.3-0.1,0.7-0.2,1.1-0.2c0.9,0,1.7-0.2,2.5-0.6
		c1.5-0.8,2.7-1.8,3.7-3.2c2.1-3.1-2.7-11.3-6.9-10.3"/>
</g>
<g>
	<path class="st0" d="M-752.7-186.6c-0.7-0.4-1.3-1-1.7-1.7c-0.4-0.7-0.8-1.4-1.1-2.2c0.9,0.5,1.8,0.8,2.7,1.2
		c0.9,0.4,1.8,1,2.2,1.9"/>
</g>
<g>
	<path class="st0" d="M-723.7-181.3c3.2,2.8,6.4,5.9,9,6.1c7.6,0.7,13.9-0.7,21.4-1.9c8.9-1.5,13.6,3.3,15.3,5.9s1.8,6.6,0.8,9.5
		c-1,2.9-1.4,3.5-3.5,6.6c-0.3,0.4-0.5,1.5-1,1.6c-0.5,0.1-0.9-0.1-1.4-0.2c-2.8-0.8-5.9-0.7-8.6,0.4c-0.5,0.2-1,0.4-1.5,0.3
		c-1.2-0.2-0.6-2.3-1.5-3.1c-1.6-1.2-4.9,0.5-6.7,1.4c-3.2,1.6-6.7,2.4-10.3,2.4c-3.8,0-7.6-0.8-11.3-0.1c-0.5,0.1-1,0.2-1.5,0.1
		c-0.4-0.2-0.5,0.9-0.8,0.6c-2.3-2.1-1.6,3.3-3.3,6c-1-6.3-5.6-6.5-6.9-13.4c-0.7-3.6-1.6-7.6,0.3-10.7"/>
</g>
<g>
	<path class="st0" d="M-730-151c-2,0.4,1.9,7.6,2.7,11.6c0.3,1.4,0.8,2.8,0.9,4.3c0.2,3.1,0.4,5.3,0.5,8.4c0,0.6-0.2,2.5-0.6,2.9
		c-0.2,0.3-0.9,1-1.2,1.2c-1.2,0.7-0.4,0.1-1.9,3c0,0.1-0.1,0.3,0,0.4l0,0h5.2l0,0c0.1-0.1,0.3-0.7,0.3-0.9c0.1-1.1-1.2-0.8,0.6-3.2
		c0.2-0.2,0.5-0.3,0.7-0.5c0.5-0.5,0.5-1.3,0.4-2c-0.3-2.7-1-5.4-1.2-8.2c-0.2-3.4,0.6-6.8,1-10.2c0.4-3.4,0.3-7.1-1.3-10"/>
</g>
<g>
	<path class="st0" d="M-696.4-157c0.2,1.5,1.6,2.4,2.2,3.7c0.5,1.1,4.3,4.9,4.9,5.9c1.5,2.4,3.3,4.4,4.9,6.7
		c0.3,0.4,0.6,0.9,0.8,1.4c0.2,0.8,0.1,1.5-0.1,2.2c-1.2,3.7-1.9,6.4-3.3,10.1c-0.1,0.2-0.8,1.3-0.9,1.5c-0.2,0.2-0.4,0.9-0.6,1.1
		c-2.9,2.4-0.9-0.3-3.3,4.3c-0.1,0.1-0.1,0.5-0.1,0.7l0,0h6c1.9-1.7-0.5-2.2,0.9-3.8c0.1-0.2,0.3-0.2,0.5-0.4
		c0.2-0.2,0.5-0.5,0.6-0.7c1.2-4,0.4-4.2,4-11.6c0.8-1.6,0.7-1.6,1.5-3.3c0.9-1.8-1.8-4.9-2.8-6.8c-3.8-7.4,7.7-16.2,3.1-18.7"/>
</g>
<g>
	<path class="st0" d="M-711.7-203.5c-1.4-0.3-2.7,0.1-3.6,1.2c-0.7,0.9-1.1,1.9-1.2,3c0,0.5-1.3,1-1.2,1.6c0.1,0.7,1.2,0.4,1.1,0.7
		c-0.1,0.9,0,1.1,0,2c0,0.3,0.1,0.6,0.4,0.8c0.2,0.2,0.7,0.2,1.1,0.2c2.1,0,3.3,0.3,4.7-1.1C-709.6-195.8-708.5-203.1-711.7-203.5"
		/>
</g>
<g>
	<g>
		<path class="st0" d="M-712.5-198.7c-1.2,2.3-1.1,5.4,0,7.7c0.8,1.8,3.4,0.2,2.6-1.5c-0.6-1.3-0.7-3.4,0-4.7
			C-709-198.9-711.6-200.4-712.5-198.7L-712.5-198.7z"/>
	</g>
</g>
<g>
	<g>
		<path class="st0" d="M-700-202c-0.6,2.7-0.7,5.4-0.3,8.1c0.3,1.9,3.2,1.1,2.9-0.8c-0.3-2.2-0.2-4.4,0.3-6.5
			C-696.7-203.1-699.6-203.9-700-202L-700-202z"/>
	</g>
</g>
<g>
	<path class="st0" d="M-711.8-191.3c-0.9-0.3-1.9,0.2-2.5,1c-0.5,0.8-0.9,2.2-1,3.1c-0.3,2.4,1.6,9.8,1.2,10.5
		c-0.3,0.5,1.6-1.1,2.2-1.1c1.1,0,2.1-0.8,2.6-1.8c0.5-1,1.6,0.8,1.7-0.3c0.2-2.2-0.6-7.4-0.7-9.6c-0.1-1.1-0.5-2.8-1.3-3.6
		c-2.3-2.4-2.4,0.1-3.4,0.9s-1.5,2.1-1.9,3.3"/>
</g>
<g>
	<g>
		<path class="st0" d="M-712.5-188.4c-1,1.8-2.4,3.4-3.7,5c-0.4,0.5-1.4,1.3-0.3,0.7c-0.4,0.2-0.8,0.3-1.2,0.4
			c-2.6,0.8-5.3,1.7-7.9,2.5c-1.8,0.6-1.1,3.5,0.8,2.9c2.9-0.9,5.9-1.6,8.7-2.7c2.6-1,4.8-4.9,6.1-7.2
			C-708.9-188.6-711.5-190.1-712.5-188.4L-712.5-188.4z"/>
	</g>
</g>
<g>
	<path class="st0" d="M-704.4-192c-0.4,0.9-0.6,3.1-0.6,4.1c0.1,1.9,0,2.5,0.4,4.9c0.4,2.5,1.2,4.4,0.9,5.5c0,0,1.4-0.7,2.9-1.1
		c1.5-0.4,3.6-1.4,3.7-2.9c0.3-2.7,1.4-5.7,1.3-8.7c-0.1-1.8-0.2-3.6-1.2-5.1c-1-1.5-2.3-3-4.7-0.5C-704.3-193-704.4-192-704.4-192z
		"/>
</g>
<g>
	<path class="st0" d="M-713.7-177.3c-2.5,4.1-4.5,8.6-5.9,13.2c-0.2,0.7-0.4,1.5-0.3,2.2c0.1,0.8,0.6,1.5,1,2.1
		c2.1,3.3,4.1,6.6,5.9,10.1c-1.7,0.5-3.1,1.7-3.9,3.3c-0.4,0.7-0.6,1.7-0.1,2.3c0.4,0.5,1.2,0.5,1.8,0.3c0.6-0.3,1-0.7,1.5-1.2
		c1.2-1.3,2.5-2.7,3.7-4c0.3-0.3,0.5-0.6,0.7-0.9c0.3-0.7,0-1.5-0.2-2.2c-0.8-2.1-1.5-4.3-2.2-6.5c-0.7-2.2-1.3-4.5-0.9-6.7
		c0.6-3.4,3.5-6,4.6-9.2c1.2-3.1,0.7-6.7-0.6-9.7"/>
</g>
<g>
	<path class="st0" d="M-702.6-179.9c-2.5,4.1-3.9,12.5-5.3,17.1c-0.2,0.7-0.4,1.5-0.3,2.2c0.1,0.8,0.6,1.5,1,2.1
		c2.1,3.3,4.1,6.6,5.9,10.1c-1.7,0.5-3.1,1.7-3.9,3.3c-0.4,0.7-0.6,1.7-0.1,2.3c0.4,0.5,1.2,0.5,1.8,0.3s1-0.7,1.5-1.2
		c1.2-1.3,2.5-2.7,3.7-4c0.3-0.3,0.5-0.6,0.7-0.9c0.3-0.7,0-1.5-0.2-2.2c-0.8-2.1-1.5-4.3-2.2-6.5c-0.7-2.2-1.3-4.5-0.9-6.7
		c0.6-3.4,3.5-6,4.6-9.2c1.2-3.1,0.7-6.7-0.6-9.7"/>
</g>
<g>
	<g>
		<path class="st0" d="M-699.7-192.3c-0.9,1.6-1.8,3.1-2.8,4.6c-0.5,0.7-1.1,1.4-1.5,2.1c0,0.1-0.7,0.9-0.4,0.6c0.2-0.2,0,0-0.2,0
			c-1.1,0.6-2.5,0.8-3.7,1.1c-0.8,0.2-1.6,0.5-2.4,0.7c-0.3,0.1-0.5,0.1-0.8,0.2c-0.6,0.1-0.6,0-0.1,0.2c-1.8-0.7-2.6,2.2-0.8,2.9
			c1,0.4,2.9-0.5,3.9-0.7c1.6-0.5,3.4-0.8,4.9-1.4c1.3-0.5,2-1.7,2.7-2.8c1.3-1.9,2.6-3.8,3.7-5.8
			C-696.2-192.5-698.8-194-699.7-192.3L-699.7-192.3z"/>
	</g>
</g>
<g>
	<path class="st0" d="M-682-174.4c3.6,0.5,6.1,3.7,7.7,7c6.7,13.9,1.9,31.4,9.1,45.1c-2.5,0.3-5.1-0.6-6.9-2.5c-2-2.1-2.6-5.2-3.1-8
		c-1.4-7.7-2.6-15.5-2.9-23.4c-0.1-3.8,0-7.7-0.9-11.4"/>
</g>
<g>
	<path class="st0" d="M-698.4-208.8c-1.6-0.4-2.9,0.1-4,1.3c-0.8,0.9-1.2,2.1-1.3,3.3c0,0.5-1.4,1.1-1.3,1.7
		c0.1,0.7,1.3,0.4,1.2,0.8c-0.1,1,0,1.2,0,2.2c0,0.3,0.2,0.6,0.4,0.9c0.3,0.3,0.8,0.2,1.2,0.2c2.3,0,3.7,0.3,5.2-1.2
		C-696.1-200.4-695-208.3-698.4-208.8"/>
</g>
<path class="st0" d="M-441.7,72.4h-16.8c-0.5,0-0.9-0.3-1-0.8l-5.2-26.6c-0.1-0.6,0.4-1.2,1-1.2h25.8c0.6,0,1.1,0.5,1,1.1l-3.8,26.6
	C-440.8,72-441.2,72.4-441.7,72.4z"/>
<path class="st0" d="M-437.3,44.7h-27.3c-0.6,0-1.1-0.5-1.1-1.1v-0.7c0-0.6,0.5-1.1,1.1-1.1h27.3c0.6,0,1.1,0.5,1.1,1.1v0.7
	C-436.1,44.2-436.6,44.7-437.3,44.7z"/>
<g>
	<g>
		<path class="st0" d="M-459.3,41.3c-2.6,2.1-15,12.7-8,15.8c3.3,1.5,7.6-1.7,10.2-3.3c4.8-2.9,9.9-6,14.4-9.4
			c1.5-1.2,0-3.8-1.5-2.6c-4.5,3.4-9.6,6.5-14.4,9.4c-1.7,1-7.9,4.3-6.2-0.1c1.1-2.9,5.3-5.9,7.7-7.8
			C-455.6,42.2-457.8,40.1-459.3,41.3L-459.3,41.3z"/>
	</g>
</g>
<g>
	<g>
		<path class="st0" d="M-437.3-0.8c3,21.5,4.9,43.1,5.8,64.8c0.1,1.9,3.1,1.9,3,0c-0.9-21.9-2.9-43.8-5.9-65.6
			C-434.7-3.5-437.6-2.7-437.3-0.8L-437.3-0.8z"/>
	</g>
</g>
<g>
	<path class="st0" d="M-453.6,82.1c-2.3,3.4,9.1,2.4,11.4,2.8c0.9,0.2,2,0.3,2.8-0.1c1.6-0.8,1.8-3.1,3-4.4c1.2-1.2,3-1.3,4.6-1.8
		c3.4-1,6.1-4.3,6.3-7.9c0.2-3.6-2.1-7.2-5.5-8.3l0.5,0.8c-2.3-0.8-4.8,0.7-6.2,2.7c-1.4,2-2,4.4-2.9,6.6c-0.9,2.2-2.4,4.5-4.7,5.2
		c-1.2,0.4-2.4,0.3-3.6,0.6C-449.8,78.6-452.5,80.6-453.6,82.1"/>
</g>
<g>
	<g>
		<path class="st0" d="M-162.4-210.2c-2.3-0.5-4.3,0.1-5.9,1.9c-1.2,1.4-1.8,3.1-1.9,4.9c-0.1,0.8-2,1.7-1.9,2.5
			c0.1,1.1,1.9,0.6,1.8,1.2c-0.1,1.5-0.1,1.7,0,3.3c0,0.5,0.2,1,0.6,1.3c0.4,0.4,1.2,0.3,1.8,0.3c3.4,0,5.4,0.5,7.7-1.8
			C-159-197.9-157.3-209.6-162.4-210.2"/>
	</g>
	<g>
		<g>
			<path class="st0" d="M-162.8-202.1c-1.8,3.4-1.6,8.1,0,11.5c0.8,1.8,3.4,0.2,2.6-1.5c-1.1-2.5-1.3-6.1,0-8.5
				C-159.4-202.2-161.9-203.8-162.8-202.1L-162.8-202.1z"/>
		</g>
	</g>
	<g>
		<path class="st0" d="M-162.5-190.6c-1.5-0.5-3.1,0.4-4,1.7c-0.8,1.3-1.5,3.5-1.7,5c-0.4,3.9,2.6,15.9,1.9,17
			c-0.5,0.8,2.6-1.8,3.6-1.8c1.8,0,3.4-1.3,4.2-2.9c0.8-1.6,2.5,1.2,2.7-0.5c0.4-3.6-0.9-11.9-1.2-15.5c-0.1-1.8-0.8-4.5-2.1-5.8
			c-3.8-4-3.9,0.1-5.5,1.4c-1.6,1.3-2.4,3.3-3,5.3"/>
	</g>
	<g>
		<g>
			<path class="st0" d="M-162.8-185.5c-1.7,3-3.9,5.6-6.1,8.3c-0.3,0.4-2,2.1-0.8,1.3c-0.5,0.3-1.4,0.4-1.9,0.6
				c-4.3,1.3-8.5,2.7-12.8,4c-1.8,0.6-1.1,3.5,0.8,2.9c4.6-1.4,9.6-2.5,14.1-4.4c3.9-1.7,7.3-7.6,9.4-11.2
				C-159.3-185.7-161.9-187.2-162.8-185.5L-162.8-185.5z"/>
		</g>
	</g>
	<g>
		<path class="st0" d="M-166.2-165.2c-0.9,3.6-2,7-3.3,11.2c-0.5,1.7-0.5,3.5-0.3,5.2c0.2,1.4,0.7,2.8,1.2,4.1
			c2.1,5,5.3,9.4,7.1,14.5c0.1,0.2,0.2,0.5,0.4,0.6c0.2,0.1,0.4,0.1,0.6,0.1c0.7,0,1.4,0,2,0c0.2,0,0.4,0,0.6-0.1
			c0.2-0.2,0.2-0.5,0.2-0.8c-0.2-3-1.4-5.8-2.4-8.6c-0.6-1.6-3.8-9-3.7-10.9c0.1-3.1,2.9-5.7,4.4-8.4c1.5-2.7,3-5.5,3.3-8.6
			c0.3-3.1-0.8-6.6-3.6-8c-0.8-0.4-1.6-0.6-2.5-0.4c-1.9,0.4-2.9,2.5-3.3,4.4C-165.9-169.1-166.1-167.1-166.2-165.2"/>
	</g>
	<g>
		<path class="st0" d="M-158.3-175.4c-1.4-0.1-2.8-0.2-4.1,0.4c-1.3,0.7-2.2,2-2.7,3.4c-1.3,3.3-1.2,7.1,0.2,10.4
			c0.5,1.1,1.1,2.1,1.7,3.2c4.1,7.4,5.9,15.8,8.8,23.8c0.5,1.3,1,2.6,1.2,3.9c0.7,0.3,5,0.1,4.7-0.7c-9.1-24.2-1.6-40.6-9.5-44.5"/>
	</g>
	<g>
		<g>
			<path class="st0" d="M-185.6-171.3c-1.4,0.1-2.7,0.1-4.1-0.1c-1.1-0.1-2.4-0.6-3.6-0.6c-1.2,0-1.9,0.4-2.5,1.5
				c-0.8,1.6-0.7,3.7-0.7,5.4c0,2.7,0,5.4,0,8c0,1.4,2.3,1.5,2.3,0c0-3.4-0.2-6.9,0-10.3c0.2-2.5,1.2-2.3,3.3-1.9
				c1.7,0.3,3.5,0.3,5.2,0.2C-184.1-169.1-184.1-171.4-185.6-171.3L-185.6-171.3z"/>
		</g>
	</g>
	<circle class="st0" cx="-201.7" cy="-144.9" r="18.4"/>
	<g>
		<path class="st0" d="M-212.5-134c4.4,0,1.7,0,6.1,0c-5.5,0-11.1,0-16.6,0l-24.1-1.2c0-4.2,14.2-11.8,14.2-11.8l39.8,0.1
			c-1-8.9-1.9-21.1-2.2-30.1"/>
	</g>
	<g>
		<path class="st0" d="M-200.7-187.4c-1.8-0.6-3.5-0.3-5,1c-1.1,1-1.8,2.4-2,3.8c-0.1,0.6-1.8,1.2-1.8,1.9c0,0.9,1.5,0.6,1.4,1.1
			c-0.2,1.2-0.2,1.4-0.3,2.7c0,0.4,0.1,0.8,0.3,1.1c0.3,0.4,1,0.3,1.4,0.4c2.8,0.3,4.4,0.9,6.4-0.8
			C-199.1-177.1-196.6-186.4-200.7-187.4"/>
	</g>
	<g>
		<g>
			<path class="st0" d="M-202.1-180.8c-1.7,2.6-2,6.4-1.1,9.3c0.6,1.8,3.5,1,2.9-0.8c-0.7-2.2-0.6-5.1,0.8-7
				C-198.4-180.9-201-182.4-202.1-180.8L-202.1-180.8z"/>
		</g>
	</g>
	<g>
		<path class="st0" d="M-202.6-171.4c-1.1-0.6-2.6,0-3.4,1c-0.8,1-1.6,2.7-1.8,4c-0.7,3.1,0.6,13.2,0,14.1c-0.5,0.6,2.3-1.2,3.1-1.1
			c1.5,0.2,2.9-0.7,3.7-1.9c0.8-1.2,2,1.2,2.3-0.2c0.6-2.9,0.4-9.8,0.5-12.8c0.1-1.5-0.3-3.8-1.2-4.9c-2.7-3.6-3.2-0.3-4.6,0.7
			c-1.4,0.9-2.3,2.5-2.9,4.1"/>
	</g>
	<g>
		<g>
			<path class="st0" d="M-202.3-163.5c-1.9,2.5-4.2,4.8-6.5,7c-0.4,0.4-2,1.5-0.8,1c-0.6,0.2-1.4,0.3-2,0.4c-4,0.8-8,1.5-12,2.3
				c-1.9,0.4-1.1,3.3,0.8,2.9c4.4-0.8,9.1-1.2,13.3-2.6c3.9-1.2,7.5-6.3,9.8-9.5C-198.5-163.5-201.1-165-202.3-163.5L-202.3-163.5z"
				/>
		</g>
	</g>
	<g>
		<path class="st0" d="M-206-155.6c-7.1,1.4-14.4,0.9-21.5,0.6c-0.7,0-1.5-0.1-2.2,0.1c-0.9,0.3-1.7,1-2.4,1.6
			c-3.4,3.1-6.8,6.2-10.2,9.3c-1.3,1.1-2.6,2.3-4.3,2.6c-1.3,0.2-2.7-0.2-4.1,0c-1.3,0.2-2.7,1.6-2,2.8c2.9,0.5,5.9,0.9,8.8,1.4
			c0.7,0.1,1.5,0.2,2.2,0.1c0.8-0.2,1.5-0.7,2.1-1.2c3.6-2.9,7.1-5.7,10.7-8.6c0.7-0.6,19,2.8,26.5-1.9"/>
	</g>
	<g>
		<path class="st0" d="M-158-130.8c-3.2-0.4-7,0.1-9.5,2.2c-0.2,0.2-0.2,0.8-0.2,1.1c0,0.3,0.6,0.5,0.9,0.6c0,0,5.2,0.1,7.9,0.2
			c0.4,0,0.8-0.2,1-0.5c0.6-0.7,0.1-1.8,0.3-2.7"/>
	</g>
	<g>
		<path class="st0" d="M-149.2-131.4c-3.2,0-6.8,1-8.9,3.4c-0.2,0.2-0.1,0.8-0.1,1c0.1,0.3,0.6,0.4,0.9,0.5c0,0,5.1-0.6,7.6-0.9
			c0.4,0,0.7-0.3,0.9-0.6c0.5-0.8-0.2-1.8-0.1-2.7"/>
	</g>
	<circle class="st0" cx="-236.2" cy="-132" r="4.8"/>
</g>
<g>
	<path class="st0" d="M317.5-194.7c-11.8,45.9,45.4,62.1,50.7,61.1l0,0C338.5-146.4,317.6-160.9,317.5-194.7L317.5-194.7
		L317.5-194.7z"/>
	<path class="st0" d="M347.7-223.1c0,0,18.1,66.8-13.1,61.9l0,0c-6.6-3.2-5.7-10.9-5.3-12.4C332.3-183.2,348.3-183,347.7-223.1z"/>
	<path class="st0" d="M339.8-159.4c8.2-6.1,12.2,8.2,23.4,11.3l0,0C335.7-146.8,338.8-158,339.8-159.4"/>
</g>
<rect x="359.3" y="-172.3" transform="matrix(0.5524 -0.8336 0.8336 0.5524 310.1754 237.4098)" class="st0" width="33.7" height="4.4"/>
<polygon class="st0" points="364.7,-156.8 368.3,-154.3 362.8,-149.7 362.6,-149.8 "/>
<line class="st1" x1="362.7" y1="-149.7" x2="362.4" y2="-149.3"/>
<text transform="matrix(1 0 0 1 -130.959 138.4674)" class="st0" style="font-family:'CenturyGothic'; font-size:6.6482px;">let mmdGraduation = awesomeJob();</text>
<rect x="-134.3" y="134.3" style="fill:none;" width="3" height="0.7"/>
<g>
	<path class="st0" d="M4.3,33.8H5v7.8H4.3V33.8z"/>
	<path class="st0" d="M11.3,39.8l0.6,0.3c-0.2,0.4-0.4,0.7-0.7,1c-0.3,0.2-0.6,0.4-0.9,0.6c-0.3,0.1-0.7,0.2-1.1,0.2
		c-0.9,0-1.6-0.3-2.2-0.9c-0.5-0.6-0.8-1.3-0.8-2c0-0.7,0.2-1.3,0.7-1.9c0.6-0.7,1.3-1.1,2.2-1.1c1,0,1.7,0.4,2.3,1.1
		c0.4,0.5,0.6,1.2,0.6,1.9H7c0,0.7,0.2,1.2,0.6,1.6c0.4,0.4,0.9,0.6,1.5,0.6c0.3,0,0.6,0,0.8-0.1c0.3-0.1,0.5-0.2,0.7-0.4
		C10.8,40.4,11,40.1,11.3,39.8z M11.3,38.2c-0.1-0.4-0.2-0.7-0.4-0.9c-0.2-0.2-0.4-0.4-0.7-0.6c-0.3-0.1-0.6-0.2-1-0.2
		c-0.6,0-1,0.2-1.4,0.5c-0.3,0.3-0.5,0.6-0.7,1.2H11.3z"/>
	<path class="st0" d="M14,33.9h0.7V36h1.1v0.6h-1.1v5H14v-5h-1V36h1V33.9z"/>
	<path class="st0" d="M19.9,36h0.7v1c0.3-0.4,0.5-0.6,0.8-0.8c0.4-0.2,0.8-0.3,1.2-0.3c0.3,0,0.5,0.1,0.8,0.2s0.4,0.2,0.6,0.4
		s0.3,0.4,0.4,0.8c0.2-0.4,0.5-0.8,0.9-1s0.7-0.3,1.2-0.3c0.4,0,0.7,0.1,1,0.3c0.3,0.2,0.5,0.5,0.7,0.8c0.1,0.4,0.2,0.9,0.2,1.6v3.1
		h-0.7v-3.1c0-0.6,0-1-0.1-1.2c-0.1-0.2-0.2-0.4-0.4-0.5c-0.2-0.1-0.5-0.2-0.7-0.2c-0.4,0-0.7,0.1-1,0.3c-0.3,0.2-0.5,0.5-0.6,0.8
		c-0.1,0.3-0.2,0.9-0.2,1.7v2.2h-0.7v-2.9c0-0.7,0-1.1-0.1-1.4c-0.1-0.2-0.2-0.4-0.4-0.6c-0.2-0.1-0.5-0.2-0.7-0.2
		c-0.3,0-0.6,0.1-0.9,0.3c-0.3,0.2-0.5,0.5-0.6,0.8c-0.1,0.3-0.2,0.9-0.2,1.6v2.4h-0.7V36z"/>
	<path class="st0" d="M29.9,36h0.7v1c0.3-0.4,0.5-0.6,0.8-0.8c0.4-0.2,0.8-0.3,1.2-0.3c0.3,0,0.5,0.1,0.8,0.2
		c0.2,0.1,0.4,0.2,0.6,0.4s0.3,0.4,0.4,0.8c0.2-0.4,0.5-0.8,0.9-1c0.4-0.2,0.7-0.3,1.2-0.3c0.4,0,0.7,0.1,1,0.3
		c0.3,0.2,0.5,0.5,0.7,0.8c0.1,0.4,0.2,0.9,0.2,1.6v3.1h-0.7v-3.1c0-0.6,0-1-0.1-1.2c-0.1-0.2-0.2-0.4-0.4-0.5
		c-0.2-0.1-0.5-0.2-0.7-0.2c-0.4,0-0.7,0.1-1,0.3c-0.3,0.2-0.5,0.5-0.6,0.8c-0.1,0.3-0.2,0.9-0.2,1.7v2.2h-0.7v-2.9
		c0-0.7,0-1.1-0.1-1.4c-0.1-0.2-0.2-0.4-0.4-0.6c-0.2-0.1-0.5-0.2-0.7-0.2c-0.3,0-0.6,0.1-0.9,0.3c-0.3,0.2-0.5,0.5-0.6,0.8
		c-0.1,0.3-0.2,0.9-0.2,1.6v2.4h-0.7V36z"/>
	<path class="st0" d="M45.4,33.8v7.8h-0.7v-1c-0.3,0.4-0.6,0.6-1,0.8s-0.8,0.3-1.2,0.3c-0.8,0-1.5-0.3-2-0.9
		c-0.6-0.6-0.8-1.3-0.8-2.1c0-0.8,0.3-1.5,0.9-2.1c0.6-0.6,1.3-0.9,2.1-0.9c0.5,0,0.9,0.1,1.3,0.3c0.4,0.2,0.7,0.5,1,0.9v-3.2H45.4z
		 M42.5,36.6c-0.4,0-0.8,0.1-1.1,0.3c-0.3,0.2-0.6,0.5-0.8,0.8c-0.2,0.4-0.3,0.7-0.3,1.1c0,0.4,0.1,0.8,0.3,1.1
		c0.2,0.4,0.5,0.6,0.8,0.8c0.3,0.2,0.7,0.3,1.1,0.3c0.4,0,0.8-0.1,1.1-0.3c0.4-0.2,0.6-0.5,0.8-0.8c0.2-0.3,0.3-0.7,0.3-1.2
		c0-0.7-0.2-1.2-0.6-1.6C43.7,36.8,43.1,36.6,42.5,36.6z"/>
	<path class="st0" d="M54.5,35.3l-0.6,0.6c-0.4-0.4-0.9-0.7-1.4-0.9c-0.5-0.2-1-0.3-1.5-0.3c-0.6,0-1.2,0.1-1.7,0.4
		c-0.5,0.3-1,0.7-1.3,1.2c-0.3,0.5-0.4,1-0.4,1.6c0,0.6,0.2,1.1,0.5,1.6c0.3,0.5,0.7,0.9,1.3,1.2c0.5,0.3,1.1,0.4,1.8,0.4
		c0.8,0,1.4-0.2,2-0.7c0.5-0.4,0.9-1,1-1.7h-2.4V38H55c0,1.2-0.4,2.1-1,2.8c-0.7,0.7-1.6,1-2.8,1c-1.4,0-2.5-0.5-3.3-1.4
		c-0.6-0.7-0.9-1.6-0.9-2.6c0-0.7,0.2-1.4,0.5-2c0.4-0.6,0.9-1.1,1.5-1.5c0.6-0.4,1.3-0.5,2.1-0.5c0.6,0,1.3,0.1,1.8,0.3
		C53.4,34.4,54,34.8,54.5,35.3z"/>
	<path class="st0" d="M56,36h0.7v0.8c0.2-0.3,0.5-0.6,0.7-0.7c0.2-0.2,0.5-0.2,0.8-0.2c0.2,0,0.4,0.1,0.6,0.2l-0.4,0.6
		c-0.2-0.1-0.3-0.1-0.4-0.1c-0.2,0-0.5,0.1-0.7,0.3c-0.2,0.2-0.4,0.5-0.5,0.9c-0.1,0.3-0.1,1-0.1,1.9v1.9H56V36z"/>
	<path class="st0" d="M65.1,36v5.6h-0.7v-1c-0.3,0.4-0.6,0.6-1,0.8s-0.8,0.3-1.2,0.3c-0.8,0-1.5-0.3-2-0.9c-0.6-0.6-0.8-1.3-0.8-2.1
		c0-0.8,0.3-1.5,0.9-2.1c0.6-0.6,1.3-0.9,2.1-0.9c0.5,0,0.9,0.1,1.3,0.3c0.4,0.2,0.7,0.5,1,0.9v-1H65.1z M62.2,36.6
		c-0.4,0-0.8,0.1-1.1,0.3c-0.3,0.2-0.6,0.5-0.8,0.8C60.1,38,60,38.4,60,38.8c0,0.4,0.1,0.8,0.3,1.1c0.2,0.4,0.5,0.6,0.8,0.8
		c0.3,0.2,0.7,0.3,1.1,0.3c0.4,0,0.8-0.1,1.1-0.3c0.4-0.2,0.6-0.5,0.8-0.8c0.2-0.3,0.3-0.7,0.3-1.2c0-0.7-0.2-1.2-0.6-1.6
		C63.3,36.8,62.8,36.6,62.2,36.6z"/>
	<path class="st0" d="M72.3,33.8v7.8h-0.7v-1c-0.3,0.4-0.6,0.6-1,0.8s-0.8,0.3-1.2,0.3c-0.8,0-1.5-0.3-2-0.9
		c-0.6-0.6-0.8-1.3-0.8-2.1c0-0.8,0.3-1.5,0.9-2.1c0.6-0.6,1.3-0.9,2.1-0.9c0.5,0,0.9,0.1,1.3,0.3c0.4,0.2,0.7,0.5,1,0.9v-3.2H72.3z
		 M69.4,36.6c-0.4,0-0.8,0.1-1.1,0.3c-0.3,0.2-0.6,0.5-0.8,0.8c-0.2,0.4-0.3,0.7-0.3,1.1c0,0.4,0.1,0.8,0.3,1.1
		c0.2,0.4,0.5,0.6,0.8,0.8c0.3,0.2,0.7,0.3,1.1,0.3c0.4,0,0.8-0.1,1.1-0.3c0.4-0.2,0.6-0.5,0.8-0.8c0.2-0.3,0.3-0.7,0.3-1.2
		c0-0.7-0.2-1.2-0.6-1.6C70.6,36.8,70.1,36.6,69.4,36.6z"/>
	<path class="st0" d="M73.9,36h0.7v2.6c0,0.6,0,1.1,0.1,1.3c0.1,0.3,0.3,0.6,0.6,0.8c0.3,0.2,0.6,0.3,1,0.3c0.4,0,0.7-0.1,1-0.3
		c0.3-0.2,0.5-0.5,0.6-0.8c0.1-0.2,0.1-0.7,0.1-1.4V36h0.7v2.8c0,0.8-0.1,1.4-0.3,1.8c-0.2,0.4-0.5,0.7-0.8,0.9
		c-0.4,0.2-0.8,0.3-1.4,0.3c-0.5,0-1-0.1-1.4-0.3c-0.4-0.2-0.6-0.5-0.8-0.9c-0.2-0.4-0.3-1-0.3-1.8V36z"/>
	<path class="st0" d="M86,36v5.6h-0.7v-1c-0.3,0.4-0.6,0.6-1,0.8s-0.8,0.3-1.2,0.3c-0.8,0-1.5-0.3-2-0.9c-0.6-0.6-0.8-1.3-0.8-2.1
		c0-0.8,0.3-1.5,0.9-2.1c0.6-0.6,1.3-0.9,2.1-0.9c0.5,0,0.9,0.1,1.3,0.3c0.4,0.2,0.7,0.5,1,0.9v-1H86z M83.1,36.6
		c-0.4,0-0.8,0.1-1.1,0.3c-0.3,0.2-0.6,0.5-0.8,0.8c-0.2,0.4-0.3,0.7-0.3,1.1c0,0.4,0.1,0.8,0.3,1.1c0.2,0.4,0.5,0.6,0.8,0.8
		c0.3,0.2,0.7,0.3,1.1,0.3c0.4,0,0.8-0.1,1.1-0.3c0.4-0.2,0.6-0.5,0.8-0.8c0.2-0.3,0.3-0.7,0.3-1.2c0-0.7-0.2-1.2-0.6-1.6
		C84.3,36.8,83.8,36.6,83.1,36.6z"/>
	<path class="st0" d="M88.3,33.9H89V36h1.1v0.6H89v5h-0.7v-5h-1V36h1V33.9z"/>
	<path class="st0" d="M91.5,33.7c0.2,0,0.3,0.1,0.4,0.2c0.1,0.1,0.2,0.3,0.2,0.4c0,0.2-0.1,0.3-0.2,0.4c-0.1,0.1-0.3,0.2-0.4,0.2
		c-0.2,0-0.3-0.1-0.4-0.2c-0.1-0.1-0.2-0.3-0.2-0.4c0-0.2,0.1-0.3,0.2-0.4C91.2,33.7,91.3,33.7,91.5,33.7z M91.1,36h0.7v5.6h-0.7V36
		z"/>
	<path class="st0" d="M96,35.9c0.9,0,1.6,0.3,2.2,0.9c0.5,0.6,0.8,1.3,0.8,2c0,0.8-0.3,1.5-0.8,2.1c-0.5,0.6-1.3,0.9-2.1,0.9
		c-0.9,0-1.6-0.3-2.1-0.9c-0.5-0.6-0.8-1.3-0.8-2.1c0-0.8,0.3-1.5,0.8-2C94.4,36.2,95.2,35.9,96,35.9z M96,36.6
		c-0.6,0-1.1,0.2-1.6,0.7c-0.4,0.4-0.6,1-0.6,1.6c0,0.4,0.1,0.8,0.3,1.1c0.2,0.4,0.5,0.6,0.8,0.8c0.3,0.2,0.7,0.3,1.1,0.3
		c0.4,0,0.8-0.1,1.1-0.3c0.3-0.2,0.6-0.5,0.8-0.8c0.2-0.4,0.3-0.7,0.3-1.1c0-0.6-0.2-1.2-0.7-1.6C97.1,36.8,96.6,36.6,96,36.6z"/>
	<path class="st0" d="M100.3,36h0.7v1c0.3-0.4,0.6-0.7,1-0.9c0.4-0.2,0.7-0.3,1.1-0.3c0.4,0,0.8,0.1,1.1,0.3
		c0.3,0.2,0.6,0.5,0.7,0.9c0.2,0.4,0.2,0.9,0.2,1.7v2.9h-0.7v-2.7c0-0.6,0-1.1-0.1-1.3c-0.1-0.4-0.2-0.7-0.5-0.8
		c-0.2-0.2-0.5-0.3-0.9-0.3c-0.4,0-0.8,0.1-1.2,0.4c-0.3,0.3-0.6,0.6-0.7,1.1c-0.1,0.3-0.1,0.8-0.1,1.5v2.1h-0.7V36z"/>
	<path class="st0" d="M114.7,36.3V37h-5.2v-0.7H114.7z M114.7,38.6v0.7h-5.2v-0.7H114.7z"/>
	<path class="st0" d="M36.1,48.7h0.7v6.5c0,0.5-0.1,0.8-0.3,1c-0.2,0.2-0.4,0.3-0.7,0.3c-0.2,0-0.5-0.1-0.8-0.2v-0.7
		c0.2,0.1,0.4,0.2,0.5,0.2c0.2,0,0.3-0.1,0.4-0.2c0.1-0.1,0.1-0.3,0.1-0.6V48.7z M36.4,46.4c0.2,0,0.3,0.1,0.4,0.2
		C37,46.7,37,46.8,37,47c0,0.2-0.1,0.3-0.2,0.4c-0.1,0.1-0.3,0.2-0.4,0.2s-0.3-0.1-0.4-0.2c-0.1-0.1-0.2-0.3-0.2-0.4
		c0-0.2,0.1-0.3,0.2-0.4C36.1,46.5,36.3,46.4,36.4,46.4z"/>
	<path class="st0" d="M41,48.6c0.9,0,1.6,0.3,2.2,0.9c0.5,0.6,0.8,1.3,0.8,2c0,0.8-0.3,1.5-0.8,2.1c-0.5,0.6-1.3,0.9-2.1,0.9
		c-0.9,0-1.6-0.3-2.1-0.9c-0.5-0.6-0.8-1.3-0.8-2.1c0-0.8,0.3-1.5,0.8-2C39.4,48.9,40.1,48.6,41,48.6z M41,49.3
		c-0.6,0-1.1,0.2-1.6,0.7c-0.4,0.4-0.6,1-0.6,1.6c0,0.4,0.1,0.8,0.3,1.1c0.2,0.4,0.5,0.6,0.8,0.8c0.3,0.2,0.7,0.3,1.1,0.3
		s0.8-0.1,1.1-0.3c0.3-0.2,0.6-0.5,0.8-0.8c0.2-0.4,0.3-0.7,0.3-1.1c0-0.6-0.2-1.2-0.7-1.6C42.1,49.5,41.6,49.3,41,49.3z"/>
	<path class="st0" d="M45.3,54.3v-7.8H46v3.1c0.3-0.4,0.6-0.7,1-0.8c0.4-0.2,0.8-0.3,1.2-0.3c0.8,0,1.5,0.3,2,0.9
		c0.6,0.6,0.8,1.3,0.8,2.1c0,0.8-0.3,1.5-0.9,2.1c-0.6,0.6-1.3,0.9-2.1,0.9c-0.5,0-0.9-0.1-1.2-0.3c-0.4-0.2-0.7-0.5-1-0.9v1H45.3z
		 M48.2,53.8c0.4,0,0.8-0.1,1.1-0.3c0.3-0.2,0.6-0.5,0.8-0.8c0.2-0.4,0.3-0.7,0.3-1.1c0-0.4-0.1-0.8-0.3-1.1
		c-0.2-0.4-0.5-0.6-0.8-0.8c-0.3-0.2-0.7-0.3-1.1-0.3c-0.4,0-0.8,0.1-1.1,0.3c-0.4,0.2-0.6,0.5-0.8,0.8c-0.2,0.3-0.3,0.7-0.3,1.2
		c0,0.7,0.2,1.2,0.6,1.6C47.1,53.6,47.6,53.8,48.2,53.8z"/>
	<path class="st0" d="M53.3,53.2c0.2,0,0.3,0.1,0.4,0.2c0.1,0.1,0.2,0.3,0.2,0.5c0,0.2-0.1,0.3-0.2,0.5c-0.1,0.1-0.3,0.2-0.4,0.2
		c-0.2,0-0.3-0.1-0.5-0.2c-0.1-0.1-0.2-0.3-0.2-0.5c0-0.2,0.1-0.3,0.2-0.5C53,53.3,53.1,53.2,53.3,53.2z"/>
	<path class="st0" d="M61,48.7v5.6h-0.7v-1c-0.3,0.4-0.6,0.6-1,0.8s-0.8,0.3-1.2,0.3c-0.8,0-1.5-0.3-2-0.9c-0.6-0.6-0.8-1.3-0.8-2.1
		c0-0.8,0.3-1.5,0.9-2.1c0.6-0.6,1.3-0.9,2.1-0.9c0.5,0,0.9,0.1,1.3,0.3c0.4,0.2,0.7,0.5,1,0.9v-1H61z M58.1,49.3
		c-0.4,0-0.8,0.1-1.1,0.3c-0.3,0.2-0.6,0.5-0.8,0.8c-0.2,0.4-0.3,0.7-0.3,1.1c0,0.4,0.1,0.8,0.3,1.1c0.2,0.4,0.5,0.6,0.8,0.8
		c0.3,0.2,0.7,0.3,1.1,0.3c0.4,0,0.8-0.1,1.1-0.3c0.4-0.2,0.6-0.5,0.8-0.8c0.2-0.3,0.3-0.7,0.3-1.2c0-0.7-0.2-1.2-0.6-1.6
		C59.3,49.5,58.8,49.3,58.1,49.3z"/>
	<path class="st0" d="M61.9,48.7h0.7l1.7,4.1l1.8-4.1h0.1l1.8,4.1l1.8-4.1h0.8l-2.4,5.6H68l-1.8-4l-1.8,4h-0.1L61.9,48.7z"/>
	<path class="st0" d="M74.3,49.3l-0.5,0.5c-0.4-0.4-0.8-0.6-1.1-0.6c-0.2,0-0.4,0.1-0.6,0.2c-0.2,0.2-0.3,0.3-0.3,0.5
		c0,0.2,0.1,0.4,0.2,0.5c0.1,0.2,0.4,0.4,0.9,0.6c0.5,0.3,0.9,0.5,1.1,0.8c0.2,0.3,0.3,0.6,0.3,0.9c0,0.5-0.2,0.9-0.5,1.2
		c-0.3,0.3-0.7,0.5-1.2,0.5c-0.3,0-0.6-0.1-0.9-0.2c-0.3-0.1-0.5-0.3-0.7-0.6l0.5-0.5c0.4,0.4,0.8,0.6,1.2,0.6
		c0.3,0,0.5-0.1,0.7-0.3c0.2-0.2,0.3-0.4,0.3-0.7c0-0.2-0.1-0.4-0.2-0.6c-0.1-0.2-0.4-0.4-0.9-0.6c-0.5-0.3-0.9-0.5-1-0.8
		c-0.2-0.3-0.3-0.5-0.3-0.9c0-0.4,0.1-0.8,0.4-1.1c0.3-0.3,0.7-0.4,1.1-0.4C73.3,48.6,73.8,48.8,74.3,49.3z"/>
	<path class="st0" d="M78.2,48.6c0.9,0,1.6,0.3,2.2,0.9c0.5,0.6,0.8,1.3,0.8,2c0,0.8-0.3,1.5-0.8,2.1c-0.5,0.6-1.3,0.9-2.1,0.9
		c-0.9,0-1.6-0.3-2.1-0.9c-0.5-0.6-0.8-1.3-0.8-2.1c0-0.8,0.3-1.5,0.8-2C76.7,48.9,77.4,48.6,78.2,48.6z M78.2,49.3
		c-0.6,0-1.1,0.2-1.6,0.7c-0.4,0.4-0.6,1-0.6,1.6c0,0.4,0.1,0.8,0.3,1.1c0.2,0.4,0.5,0.6,0.8,0.8c0.3,0.2,0.7,0.3,1.1,0.3
		s0.8-0.1,1.1-0.3c0.3-0.2,0.6-0.5,0.8-0.8c0.2-0.4,0.3-0.7,0.3-1.1c0-0.6-0.2-1.2-0.7-1.6C79.4,49.5,78.8,49.3,78.2,49.3z"/>
	<path class="st0" d="M82.5,48.7h0.7v1c0.3-0.4,0.5-0.6,0.8-0.8c0.4-0.2,0.8-0.3,1.2-0.3c0.3,0,0.5,0.1,0.8,0.2
		c0.2,0.1,0.4,0.2,0.6,0.4c0.2,0.2,0.3,0.4,0.4,0.8c0.2-0.4,0.5-0.8,0.9-1s0.7-0.3,1.2-0.3c0.4,0,0.7,0.1,1,0.3
		c0.3,0.2,0.5,0.5,0.7,0.8c0.1,0.4,0.2,0.9,0.2,1.6v3.1h-0.7v-3.1c0-0.6,0-1-0.1-1.2c-0.1-0.2-0.2-0.4-0.4-0.5
		c-0.2-0.1-0.5-0.2-0.7-0.2c-0.4,0-0.7,0.1-1,0.3c-0.3,0.2-0.5,0.5-0.6,0.8c-0.1,0.3-0.2,0.9-0.2,1.7v2.2h-0.7v-2.9
		c0-0.7,0-1.1-0.1-1.4c-0.1-0.2-0.2-0.4-0.4-0.6c-0.2-0.1-0.5-0.2-0.7-0.2c-0.3,0-0.6,0.1-0.9,0.3c-0.3,0.2-0.5,0.5-0.6,0.8
		c-0.1,0.3-0.2,0.9-0.2,1.6v2.4h-0.7V48.7z"/>
	<path class="st0" d="M97.2,52.5l0.6,0.3c-0.2,0.4-0.4,0.7-0.7,1c-0.3,0.2-0.6,0.4-0.9,0.6c-0.3,0.1-0.7,0.2-1.1,0.2
		c-0.9,0-1.6-0.3-2.2-0.9c-0.5-0.6-0.8-1.3-0.8-2c0-0.7,0.2-1.3,0.7-1.9c0.6-0.7,1.3-1.1,2.2-1.1c1,0,1.7,0.4,2.3,1.1
		c0.4,0.5,0.6,1.2,0.6,1.9h-5.1c0,0.7,0.2,1.2,0.6,1.6c0.4,0.4,0.9,0.6,1.5,0.6c0.3,0,0.6,0,0.8-0.1c0.3-0.1,0.5-0.2,0.7-0.4
		C96.8,53.1,97,52.8,97.2,52.5z M97.2,51c-0.1-0.4-0.2-0.7-0.4-0.9c-0.2-0.2-0.4-0.4-0.7-0.6c-0.3-0.1-0.6-0.2-1-0.2
		c-0.6,0-1,0.2-1.4,0.5C93.4,50,93.1,50.4,93,51H97.2z"/>
	<path class="st0" d="M101,46.4h0.8c-0.3,0.7-0.6,1.5-0.8,2.4c-0.2,0.9-0.3,1.9-0.3,2.9c0,0.9,0.1,1.8,0.2,2.6
		c0.2,0.8,0.4,1.6,0.6,2.2h-0.8c-0.3-0.6-0.5-1.3-0.6-2.2c-0.2-0.8-0.2-1.7-0.2-2.6c0-1,0.1-1.9,0.3-2.8
		C100.4,48,100.6,47.2,101,46.4z"/>
	<path class="st0" d="M103.3,48.9h-0.5l-0.1-2.4h0.8L103.3,48.9z M105.4,48.9h-0.5l-0.1-2.4h0.8L105.4,48.9z"/>
	<path class="st0" d="M112.1,51.2v0.6h-1.3l-0.4,2.6h-0.6l0.4-2.6h-1.7l-0.4,2.6h-0.6l0.4-2.6h-1.3v-0.6h1.4l0.3-1.7H107v-0.6h1.4
		l0.4-2.4h0.6l-0.4,2.4h1.7l0.4-2.4h0.6l-0.4,2.4h1.2v0.6h-1.2l-0.3,1.7H112.1z M110.6,49.5h-1.7l-0.3,1.7h1.7L110.6,49.5z"/>
	<path class="st0" d="M113.9,54.3l1.1-7.6h0.1l3.1,6.2l3.1-6.2h0.1l1.1,7.6h-0.7l-0.8-5.4l-2.7,5.4h-0.2l-2.7-5.5l-0.7,5.5H113.9z"
		/>
	<path class="st0" d="M124.1,46.4c0.2,0,0.3,0.1,0.4,0.2c0.1,0.1,0.2,0.3,0.2,0.4c0,0.2-0.1,0.3-0.2,0.4c-0.1,0.1-0.3,0.2-0.4,0.2
		c-0.2,0-0.3-0.1-0.4-0.2c-0.1-0.1-0.2-0.3-0.2-0.4c0-0.2,0.1-0.3,0.2-0.4C123.8,46.5,124,46.4,124.1,46.4z M123.8,48.7h0.7v5.6
		h-0.7V48.7z"/>
	<path class="st0" d="M131.6,48.7v5.6h-0.7v-1c-0.3,0.4-0.6,0.6-1,0.8s-0.8,0.3-1.2,0.3c-0.8,0-1.5-0.3-2-0.9
		c-0.6-0.6-0.8-1.3-0.8-2.1c0-0.8,0.3-1.5,0.9-2.1c0.6-0.6,1.3-0.9,2.1-0.9c0.5,0,0.9,0.1,1.3,0.3c0.4,0.2,0.7,0.5,1,0.9v-1H131.6z
		 M128.7,49.3c-0.4,0-0.8,0.1-1.1,0.3c-0.3,0.2-0.6,0.5-0.8,0.8c-0.2,0.4-0.3,0.7-0.3,1.1c0,0.4,0.1,0.8,0.3,1.1
		c0.2,0.4,0.5,0.6,0.8,0.8c0.3,0.2,0.7,0.3,1.1,0.3c0.4,0,0.8-0.1,1.1-0.3c0.4-0.2,0.6-0.5,0.8-0.8c0.2-0.3,0.3-0.7,0.3-1.2
		c0-0.7-0.2-1.2-0.6-1.6C129.9,49.5,129.4,49.3,128.7,49.3z"/>
	<path class="st0" d="M133.3,48.9h-0.5l-0.1-2.4h0.8L133.3,48.9z M135.4,48.9h-0.5l-0.1-2.4h0.8L135.4,48.9z"/>
	<path class="st0" d="M137.2,56.5h-0.8c0.3-0.7,0.6-1.5,0.8-2.4c0.2-0.9,0.3-1.9,0.3-2.9c0-0.9-0.1-1.8-0.2-2.6
		c-0.2-0.8-0.4-1.6-0.6-2.2h0.8c0.3,0.6,0.5,1.3,0.6,2.2c0.2,0.8,0.2,1.7,0.2,2.6c0,1-0.1,1.9-0.3,2.8
		C137.8,54.9,137.5,55.8,137.2,56.5z"/>
	<path class="st0" d="M141.2,52.9l0.7,0.3l-1,2l-0.5-0.2L141.2,52.9z M141.2,48.6c0.2,0,0.3,0.1,0.4,0.2c0.1,0.1,0.2,0.3,0.2,0.5
		c0,0.2-0.1,0.3-0.2,0.5c-0.1,0.1-0.3,0.2-0.4,0.2s-0.3-0.1-0.4-0.2c-0.1-0.1-0.2-0.3-0.2-0.5c0-0.2,0.1-0.3,0.2-0.5
		C140.9,48.6,141.1,48.6,141.2,48.6z"/>
</g>
</svg>
