<?xml version="1.0" encoding="utf-8"?>
<!-- Generator: Adobe Illustrator 22.1.0, SVG Export Plug-In . SVG Version: 6.00 Build 0)  -->
<svg version="1.1" id="Layer_1" xmlns="http://www.w3.org/2000/svg" xmlns:xlink="http://www.w3.org/1999/xlink" x="0px" y="0px"
	 viewBox="0 0 84.6 82.1" style="enable-background:new 0 0 84.6 82.1;" xml:space="preserve">
<style type="text/css">
	.st0{fill:#FFFFFF;}
</style>
<path class="st0" d="M74.5,59.6H11.3c-1,0-1.8-0.8-1.8-1.8V14c0-1,0.8-1.8,1.8-1.8h63.2c1,0,1.8,0.8,1.8,1.8v43.8
	C76.3,58.8,75.5,59.6,74.5,59.6z"/>
<path class="st0" d="M46.8,59.9l1.1,4c0,0,6.9,0,9.1,0c3.2,0,3.9,3.8,3.9,3.8c-3.6,0-18.4,0-18.4,0s-14.5,0-18.2,0
	c0,0,0.4-3.8,3.6-3.8c2.3,0,9.1,0,9.1,0l1.1-4H46.8z"/>
</svg>
