<?xml version="1.0" encoding="utf-8"?>
<!-- Generator: Adobe Illustrator 22.1.0, SVG Export Plug-In . SVG Version: 6.00 Build 0)  -->
<svg version="1.1" id="Layer_1" xmlns="http://www.w3.org/2000/svg" xmlns:xlink="http://www.w3.org/1999/xlink" x="0px" y="0px"
	 viewBox="0 0 144.8 98.9" style="enable-background:new 0 0 144.8 98.9;" xml:space="preserve">
<style type="text/css">
	.st0{fill:#FFFFFF;}
	.st1{fill:#FFFFFF;stroke:#FFFFFF;stroke-width:0.25;stroke-miterlimit:10;}
</style>
<g>
	<g>
		<path class="st0" d="M46.7,49.2c0-3.1-1.3-7.8-3.2-10.4c-0.7-1-3.3-3.2-4.6-3.1l-5.3-9.8c13-2.9,23.4,2.5,29.2,9"/>
	</g>
</g>
<g>
	<path class="st0" d="M32,26.2c-0.7-0.1-1.4,0.5-1.9,1c-0.9,1-1.5,1.9-2.3,2.9c-0.3,0.4-0.8,0.9-1,1.3c-0.2,0.5-0.1,1-0.3,1.4
		c-0.8,2.2-1.7,3.2-3.3,5.6c-0.2,0.3-0.6,0.5-0.8,0.9c-0.1,0.2-0.2,0.8-0.2,1c-0.1,0.7-0.1,1.4-0.2,2.1c0,0.3-0.1,0.6,0,0.8
		c0.1,0.6,0.4,1,0.8,1.5c0.3,0.4,1,0.8,1.5,0.7c0.8-0.1,0.5,0.2,1,0.1c0.5-0.1,1.4-0.4,1.8-0.6s0.6-0.6,0.7-1.1
		c0.1-0.4-0.1-0.8,0.1-1.2c0.1-0.2,0.3-0.3,0.5-0.4c1.2-0.6,3.1-2.2,3.2-2.3C32,40,32.4,40,32.7,40c0.9,0,1.7-0.2,2.5-0.6
		c1.5-0.8,2.7-1.8,3.7-3.2c2.1-3.1-2.7-11.3-6.9-10.3"/>
</g>
<g>
	<path class="st0" d="M30.5,26.9c-0.7-0.4-1.3-1-1.7-1.7c-0.4-0.7-0.8-1.4-1.1-2.2c0.9,0.5,1.8,0.8,2.7,1.2c0.9,0.4,1.8,1,2.2,1.9"
		/>
</g>
<g>
	<path class="st0" d="M59.6,32.2c3.2,2.8,6.4,5.9,9,6.1c7.6,0.7,13.9-0.7,21.4-1.9c8.9-1.5,13.6,3.3,15.3,5.9
		c1.6,2.7,1.8,6.6,0.8,9.5c-1,2.9-1.4,3.5-3.5,6.6c-0.3,0.4-0.5,1.5-1,1.6c-0.5,0.1-0.9-0.1-1.4-0.2c-2.8-0.8-5.9-0.7-8.6,0.4
		c-0.5,0.2-1,0.4-1.5,0.3c-1.2-0.2-0.6-2.3-1.5-3.1c-1.6-1.2-4.9,0.5-6.7,1.4c-3.2,1.6-6.7,2.4-10.3,2.4c-3.8,0-7.6-0.8-11.3-0.1
		c-0.5,0.1-1,0.2-1.5,0.1c-0.4-0.2-0.5,0.9-0.8,0.6c-2.3-2.1-1.6,3.3-3.3,6c-1-6.3-5.6-6.5-6.9-13.4c-0.7-3.6-1.6-7.6,0.3-10.7"/>
</g>
<g>
	<path class="st0" d="M53.3,62.5c-2,0.4,1.9,7.6,2.7,11.6c0.3,1.4,0.8,2.8,0.9,4.3c0.2,3.1,0.4,5.3,0.5,8.4c0,0.6-0.2,2.5-0.6,2.9
		c-0.2,0.3-0.9,1-1.2,1.2c-1.2,0.7-0.4,0.1-1.9,3c0,0.1-0.1,0.3,0,0.4l0,0h5.2l0,0c0.1-0.1,0.3-0.7,0.3-0.9c0.1-1.1-1.2-0.8,0.6-3.2
		c0.2-0.2,0.5-0.3,0.7-0.5c0.5-0.5,0.5-1.3,0.4-2c-0.3-2.7-1-5.4-1.2-8.2c-0.2-3.4,0.6-6.8,1-10.2c0.4-3.4,0.3-7.1-1.3-10"/>
</g>
<g>
	<path class="st0" d="M86.8,56.5c0.2,1.5,1.6,2.4,2.2,3.7c0.5,1.1,4.3,4.9,4.9,5.9c1.5,2.4,3.3,4.4,4.9,6.7c0.3,0.4,0.6,0.9,0.8,1.4
		c0.2,0.8,0.1,1.5-0.1,2.2c-1.2,3.7-1.9,6.4-3.3,10.1c-0.1,0.2-0.8,1.3-0.9,1.5c-0.2,0.2-0.4,0.9-0.6,1.1c-2.9,2.4-0.9-0.3-3.3,4.3
		c-0.1,0.1-0.1,0.5-0.1,0.7l0,0h6c1.9-1.7-0.5-2.2,0.9-3.8c0.1-0.2,0.3-0.2,0.5-0.4c0.2-0.2,0.5-0.5,0.6-0.7c1.2-4,0.4-4.2,4-11.6
		c0.8-1.6,0.7-1.6,1.5-3.3c0.9-1.8-1.8-4.9-2.8-6.8c-3.8-7.4,7.7-16.2,3.1-18.7"/>
</g>
<g>
	<path class="st0" d="M71.6,10c-1.4-0.3-2.7,0.1-3.6,1.2c-0.7,0.9-1.1,1.9-1.2,3c0,0.5-1.3,1-1.2,1.6c0.1,0.7,1.2,0.4,1.1,0.7
		c-0.1,0.9,0,1.1,0,2c0,0.3,0.1,0.6,0.4,0.8c0.2,0.2,0.7,0.2,1.1,0.2c2.1,0,3.3,0.3,4.7-1.1C73.7,17.7,74.7,10.4,71.6,10"/>
</g>
<g>
	<g>
		<path class="st0" d="M70.8,14.8c-1.2,2.3-1.1,5.4,0,7.7c0.8,1.8,3.4,0.2,2.6-1.5c-0.6-1.3-0.7-3.4,0-4.7
			C74.3,14.6,71.7,13.1,70.8,14.8L70.8,14.8z"/>
	</g>
</g>
<g>
	<g>
		<path class="st0" d="M83.2,11.5c-0.6,2.7-0.7,5.4-0.3,8.1c0.3,1.9,3.2,1.1,2.9-0.8c-0.3-2.2-0.2-4.4,0.3-6.5
			C86.5,10.4,83.6,9.6,83.2,11.5L83.2,11.5z"/>
	</g>
</g>
<g>
	<path class="st0" d="M71.5,22.2c-0.9-0.3-1.9,0.2-2.5,1c-0.5,0.8-0.9,2.2-1,3.1c-0.3,2.4,1.6,9.8,1.2,10.5
		c-0.3,0.5,1.6-1.1,2.2-1.1c1.1,0,2.1-0.8,2.6-1.8c0.5-1,1.6,0.8,1.7-0.3c0.2-2.2-0.6-7.4-0.7-9.6c-0.1-1.1-0.5-2.8-1.3-3.6
		c-2.3-2.4-2.4,0.1-3.4,0.9c-1,0.8-1.5,2.1-1.9,3.3"/>
</g>
<g>
	<g>
		<path class="st0" d="M70.8,25.1c-1,1.8-2.4,3.4-3.7,5c-0.4,0.5-1.4,1.3-0.3,0.7c-0.4,0.2-0.8,0.3-1.2,0.4
			c-2.6,0.8-5.3,1.7-7.9,2.5c-1.8,0.6-1.1,3.5,0.8,2.9c2.9-0.9,5.9-1.6,8.7-2.7c2.6-1,4.8-4.9,6.1-7.2
			C74.3,24.9,71.7,23.4,70.8,25.1L70.8,25.1z"/>
	</g>
</g>
<g>
	<path class="st0" d="M78.8,21.5c-0.4,0.9-0.6,3.1-0.6,4.1c0.1,1.9,0,2.5,0.4,4.9c0.4,2.5,1.2,4.4,0.9,5.5c0,0,1.4-0.7,2.9-1.1
		s3.6-1.4,3.7-2.9c0.3-2.7,1.4-5.7,1.3-8.7c-0.1-1.8-0.2-3.6-1.2-5.1c-1-1.5-2.3-3-4.7-0.5C78.9,20.5,78.8,21.5,78.8,21.5z"/>
</g>
<g>
	<path class="st0" d="M69.6,36.2c-2.5,4.1-4.5,8.6-5.9,13.2c-0.2,0.7-0.4,1.5-0.3,2.2c0.1,0.8,0.6,1.5,1,2.1
		c2.1,3.3,4.1,6.6,5.9,10.1c-1.7,0.5-3.1,1.7-3.9,3.3c-0.4,0.7-0.6,1.7-0.1,2.3c0.4,0.5,1.2,0.5,1.8,0.3c0.6-0.3,1-0.7,1.5-1.2
		c1.2-1.3,2.5-2.7,3.7-4c0.3-0.3,0.5-0.6,0.7-0.9c0.3-0.7,0-1.5-0.2-2.2c-0.8-2.1-1.5-4.3-2.2-6.5c-0.7-2.2-1.3-4.5-0.9-6.7
		c0.6-3.4,3.5-6,4.6-9.2c1.2-3.1,0.7-6.7-0.6-9.7"/>
</g>
<g>
	<path class="st0" d="M80.7,33.6c-2.5,4.1-3.9,12.5-5.3,17.1c-0.2,0.7-0.4,1.5-0.3,2.2c0.1,0.8,0.6,1.5,1,2.1
		c2.1,3.3,4.1,6.6,5.9,10.1c-1.7,0.5-3.1,1.7-3.9,3.3c-0.4,0.7-0.6,1.7-0.1,2.3c0.4,0.5,1.2,0.5,1.8,0.3c0.6-0.3,1-0.7,1.5-1.2
		c1.2-1.3,2.5-2.7,3.7-4c0.3-0.3,0.5-0.6,0.7-0.9c0.3-0.7,0-1.5-0.2-2.2c-0.8-2.1-1.5-4.3-2.2-6.5c-0.7-2.2-1.3-4.5-0.9-6.7
		c0.6-3.4,3.5-6,4.6-9.2c1.2-3.1,0.7-6.7-0.6-9.7"/>
</g>
<g>
	<g>
		<path class="st0" d="M83.5,21.2c-0.9,1.6-1.8,3.1-2.8,4.6c-0.5,0.7-1.1,1.4-1.5,2.1c0,0.1-0.7,0.9-0.4,0.6c0.2-0.2,0,0-0.2,0
			c-1.1,0.6-2.5,0.8-3.7,1.1c-0.8,0.2-1.6,0.5-2.4,0.7c-0.3,0.1-0.5,0.1-0.8,0.2c-0.6,0.1-0.6,0-0.1,0.2c-1.8-0.7-2.6,2.2-0.8,2.9
			c1,0.4,2.9-0.5,3.9-0.7c1.6-0.5,3.4-0.8,4.9-1.4c1.3-0.5,2-1.7,2.7-2.8c1.3-1.9,2.6-3.8,3.7-5.8C87.1,21,84.5,19.5,83.5,21.2
			L83.5,21.2z"/>
	</g>
</g>
<g>
	<path class="st0" d="M101.2,39.1c3.6,0.5,6.1,3.7,7.7,7c6.7,13.9,1.9,31.4,9.1,45.1c-2.5,0.3-5.1-0.6-6.9-2.5c-2-2.1-2.6-5.2-3.1-8
		c-1.4-7.7-2.6-15.5-2.9-23.4c-0.1-3.8,0-7.7-0.9-11.4"/>
</g>
<g>
	<path class="st0" d="M84.8,4.7c-1.6-0.4-2.9,0.1-4,1.3c-0.8,0.9-1.2,2.1-1.3,3.3c0,0.5-1.4,1.1-1.3,1.7c0.1,0.7,1.3,0.4,1.2,0.8
		c-0.1,1,0,1.2,0,2.2c0,0.3,0.2,0.6,0.4,0.9c0.3,0.3,0.8,0.2,1.2,0.2c2.3,0,3.7,0.3,5.2-1.2C87.1,13.1,88.3,5.2,84.8,4.7"/>
</g>
</svg>
