<?xml version="1.0" encoding="utf-8"?>
<!-- Generator: Adobe Illustrator 22.1.0, SVG Export Plug-In . SVG Version: 6.00 Build 0)  -->
<svg version="1.1" id="Layer_1" xmlns="http://www.w3.org/2000/svg" xmlns:xlink="http://www.w3.org/1999/xlink" x="0px" y="0px"
	 viewBox="0 0 144.8 98.9" style="enable-background:new 0 0 144.8 98.9;" xml:space="preserve">
<style type="text/css">
	.st0{fill:#FFFFFF;}
	.st1{fill:#FFFFFF;stroke:#FFFFFF;stroke-width:0.25;stroke-miterlimit:10;}
</style>
<g>
	<g>
		<path class="st0" d="M102.9,6.3c-2.3-0.5-4.3,0.1-5.9,1.9c-1.2,1.4-1.8,3.1-1.9,4.9c-0.1,0.8-2,1.7-1.9,2.5
			c0.1,1.1,1.9,0.6,1.8,1.2c-0.1,1.5-0.1,1.7,0,3.3c0,0.5,0.2,1,0.6,1.3c0.4,0.4,1.2,0.3,1.8,0.3c3.4,0,5.4,0.5,7.7-1.8
			C106.2,18.6,107.9,6.9,102.9,6.3"/>
	</g>
	<g>
		<g>
			<path class="st0" d="M102.4,14.4c-1.8,3.4-1.6,8.1,0,11.5c0.8,1.8,3.4,0.2,2.6-1.5c-1.1-2.5-1.3-6.1,0-8.5
				C105.9,14.3,103.3,12.7,102.4,14.4L102.4,14.4z"/>
		</g>
	</g>
	<g>
		<path class="st0" d="M102.7,25.9c-1.5-0.5-3.1,0.4-4,1.7c-0.8,1.3-1.5,3.5-1.7,5c-0.4,3.9,2.6,15.9,1.9,17
			c-0.5,0.8,2.6-1.8,3.6-1.8c1.8,0,3.4-1.3,4.2-2.9c0.8-1.6,2.5,1.2,2.7-0.5c0.4-3.6-0.9-11.9-1.2-15.5c-0.1-1.8-0.8-4.5-2.1-5.8
			c-3.8-4-3.9,0.1-5.5,1.4c-1.6,1.3-2.4,3.3-3,5.3"/>
	</g>
	<g>
		<g>
			<path class="st0" d="M102.4,31c-1.7,3-3.9,5.6-6.1,8.3c-0.3,0.4-2,2.1-0.8,1.3c-0.5,0.3-1.4,0.4-1.9,0.6c-4.3,1.3-8.5,2.7-12.8,4
				c-1.8,0.6-1.1,3.5,0.8,2.9c4.6-1.4,9.6-2.5,14.1-4.4c3.9-1.7,7.3-7.6,9.4-11.2C106,30.8,103.4,29.3,102.4,31L102.4,31z"/>
		</g>
	</g>
	<g>
		<path class="st0" d="M99.1,51.3c-0.9,3.6-2,7-3.3,11.2c-0.5,1.7-0.5,3.5-0.3,5.2c0.2,1.4,0.7,2.8,1.2,4.1c2.1,5,5.3,9.4,7.1,14.5
			c0.1,0.2,0.2,0.5,0.4,0.6c0.2,0.1,0.4,0.1,0.6,0.1c0.7,0,1.4,0,2,0c0.2,0,0.4,0,0.6-0.1c0.2-0.2,0.2-0.5,0.2-0.8
			c-0.2-3-1.4-5.8-2.4-8.6c-0.6-1.6-3.8-9-3.7-10.9c0.1-3.1,2.9-5.7,4.4-8.4s3-5.5,3.3-8.6c0.3-3.1-0.8-6.6-3.6-8
			c-0.8-0.4-1.6-0.6-2.5-0.4c-1.9,0.4-2.9,2.5-3.3,4.4C99.4,47.4,99.1,49.4,99.1,51.3"/>
	</g>
	<g>
		<path class="st0" d="M107,41.1c-1.4-0.1-2.8-0.2-4.1,0.4c-1.3,0.7-2.2,2-2.7,3.4c-1.3,3.3-1.2,7.1,0.2,10.4
			c0.5,1.1,1.1,2.1,1.7,3.2c4.1,7.4,5.9,15.8,8.8,23.8c0.5,1.3,1,2.6,1.2,3.9c0.7,0.3,5,0.1,4.7-0.7c-9.1-24.2-1.6-40.6-9.5-44.5"/>
	</g>
	<g>
		<g>
			<path class="st0" d="M79.7,45.2c-1.4,0.1-2.7,0.1-4.1-0.1c-1.1-0.1-2.4-0.6-3.6-0.6c-1.2,0-1.9,0.4-2.5,1.5
				c-0.8,1.6-0.7,3.7-0.7,5.4c0,2.7,0,5.4,0,8c0,1.4,2.3,1.5,2.3,0c0-3.4-0.2-6.9,0-10.3c0.2-2.5,1.2-2.3,3.3-1.9
				c1.7,0.3,3.5,0.3,5.2,0.2C81.1,47.4,81.1,45.1,79.7,45.2L79.7,45.2z"/>
		</g>
	</g>
	<circle class="st0" cx="63.5" cy="71.6" r="18.4"/>
	<g>
		<path class="st0" d="M52.7,82.5c4.4,0,1.7,0,6.1,0c-5.5,0-11.1,0-16.6,0l-24.1-1.2c0-4.2,14.2-11.8,14.2-11.8l39.8,0.1
			c-1-8.9-1.9-21.1-2.2-30.1"/>
	</g>
	<g>
		<path class="st0" d="M64.6,29.1c-1.8-0.6-3.5-0.3-5,1c-1.1,1-1.8,2.4-2,3.8c-0.1,0.6-1.8,1.2-1.8,1.9c0,0.9,1.5,0.6,1.4,1.1
			c-0.2,1.2-0.2,1.4-0.3,2.7c0,0.4,0.1,0.8,0.3,1.1c0.3,0.4,1,0.3,1.4,0.4c2.8,0.3,4.4,0.9,6.4-0.8C66.2,39.4,68.7,30.1,64.6,29.1"
			/>
	</g>
	<g>
		<g>
			<path class="st0" d="M63.1,35.7c-1.7,2.6-2,6.4-1.1,9.3c0.6,1.8,3.5,1,2.9-0.8c-0.7-2.2-0.6-5.1,0.8-7
				C66.8,35.6,64.2,34.1,63.1,35.7L63.1,35.7z"/>
		</g>
	</g>
	<g>
		<path class="st0" d="M62.7,45.1c-1.1-0.6-2.6,0-3.4,1c-0.8,1-1.6,2.7-1.8,4c-0.7,3.1,0.6,13.2,0,14.1c-0.5,0.6,2.3-1.2,3.1-1.1
			c1.5,0.2,2.9-0.7,3.7-1.9c0.8-1.2,2,1.2,2.3-0.2c0.6-2.9,0.4-9.8,0.5-12.8c0.1-1.5-0.3-3.8-1.2-4.9c-2.7-3.6-3.2-0.3-4.6,0.7
			s-2.3,2.5-2.9,4.1"/>
	</g>
	<g>
		<g>
			<path class="st0" d="M63,53c-1.9,2.5-4.2,4.8-6.5,7c-0.4,0.4-2,1.5-0.8,1c-0.6,0.2-1.4,0.3-2,0.4c-4,0.8-8,1.5-12,2.3
				c-1.9,0.4-1.1,3.3,0.8,2.9c4.4-0.8,9.1-1.2,13.3-2.6c3.9-1.2,7.5-6.3,9.8-9.5C66.7,53,64.1,51.5,63,53L63,53z"/>
		</g>
	</g>
	<g>
		<path class="st0" d="M59.3,60.9c-7.1,1.4-14.4,0.9-21.5,0.6c-0.7,0-1.5-0.1-2.2,0.1c-0.9,0.3-1.7,1-2.4,1.6
			c-3.4,3.1-6.8,6.2-10.2,9.3c-1.3,1.1-2.6,2.3-4.3,2.6c-1.3,0.2-2.7-0.2-4.1,0s-2.7,1.6-2,2.8c2.9,0.5,5.9,0.9,8.8,1.4
			c0.7,0.1,1.5,0.2,2.2,0.1c0.8-0.2,1.5-0.7,2.1-1.2c3.6-2.9,7.1-5.7,10.7-8.6c0.7-0.6,19,2.8,26.5-1.9"/>
	</g>
	<g>
		<path class="st0" d="M107.2,85.7c-3.2-0.4-7,0.1-9.5,2.2c-0.2,0.2-0.2,0.8-0.2,1.1c0,0.3,0.6,0.5,0.9,0.6c0,0,5.2,0.1,7.9,0.2
			c0.4,0,0.8-0.2,1-0.5c0.6-0.7,0.1-1.8,0.3-2.7"/>
	</g>
	<g>
		<path class="st0" d="M116,85.1c-3.2,0-6.8,1-8.9,3.4c-0.2,0.2-0.1,0.8-0.1,1c0.1,0.3,0.6,0.4,0.9,0.5c0,0,5.1-0.6,7.6-0.9
			c0.4,0,0.7-0.3,0.9-0.6c0.5-0.8-0.2-1.8-0.1-2.7"/>
	</g>
	<circle class="st0" cx="29" cy="84.5" r="4.8"/>
</g>
</svg>
