<?xml version="1.0" encoding="utf-8"?>
<!-- Generator: Adobe Illustrator 22.1.0, SVG Export Plug-In . SVG Version: 6.00 Build 0)  -->
<svg version="1.1" id="Layer_1" xmlns="http://www.w3.org/2000/svg" xmlns:xlink="http://www.w3.org/1999/xlink" x="0px" y="0px"
	 viewBox="0 0 84.6 82.1" style="enable-background:new 0 0 84.6 82.1;" xml:space="preserve">
<style type="text/css">
	.st0{fill:#FFFFFF;}
</style>
<path class="st0" d="M46,53.5l-28.1,5.8c-1,0.2-1.9-0.4-2.1-1.4L7,15.3c-0.2-1,0.4-1.9,1.4-2.1l28.1-5.8c1-0.2,1.9,0.4,2.1,1.4
	l8.8,42.6C47.6,52.3,46.9,53.3,46,53.5z"/>
<path class="st0" d="M50.6,75.4L26.7,59.6c-0.8-0.5-1.1-1.7-0.5-2.5l23.9-36.3c0.5-0.8,1.7-1.1,2.5-0.5L76.5,36
	c0.8,0.5,1.1,1.7,0.5,2.5L53.2,74.8C52.6,75.7,51.5,75.9,50.6,75.4z"/>
</svg>
