<?xml version="1.0" encoding="utf-8"?>
<!-- Generator: Adobe Illustrator 22.1.0, SVG Export Plug-In . SVG Version: 6.00 Build 0)  -->
<svg version="1.1" id="Layer_1" xmlns="http://www.w3.org/2000/svg" xmlns:xlink="http://www.w3.org/1999/xlink" x="0px" y="0px"
	 viewBox="0 0 144.8 98.9" style="enable-background:new 0 0 144.8 98.9;" xml:space="preserve">
<style type="text/css">
	.st0{fill:#FFFFFF;}
	.st1{fill:#FFFFFF;stroke:#FFFFFF;stroke-width:0.25;stroke-miterlimit:10;}
</style>
<g>
	<path class="st0" d="M50.6,21.4c-2.3-0.3-4.2,1.4-5.8,3.1c-2.7,2.9-4.5,5.7-6.9,8.9c-0.9,1.2-2.5,2.7-3.1,4.1
		c-0.5,1.4-0.4,2.9-0.9,4.3c-2.5,6.7-5.2,9.7-10.1,17.2c-0.6,0.9-1.9,1.6-2.3,2.6c-0.2,0.6-0.5,2.4-0.6,3c-0.2,2.1-0.4,4.2-0.6,6.3
		c-0.1,0.8-0.2,1.7,0,2.5c0.3,1.7,1.3,3.2,2.4,4.6c0.8,1.1,3.1,2.4,4.5,2.3c2.3-0.3,1.5,0.7,2.9,0.4c1.5-0.3,4.1-1.1,5.5-1.9
		c1.4-0.8,1.9-1.7,2.2-3.3c0.3-1.2-0.4-2.4,0.2-3.5c0.3-0.6,1-0.8,1.6-1.1c3.6-1.9,9.4-6.6,9.9-6.9c1.1-0.5,2.2-0.6,3.3-0.6
		c2.7,0,5.2-0.6,7.5-1.9c4.6-2.4,8.4-5.5,11.2-9.7c6.3-9.5-8.1-34.4-21-31.3"/>
</g>
<g>
	<path class="st0" d="M46,23.3c-2.2-1.2-3.9-3.1-5.2-5.1s-2.4-4.3-3.4-6.6c2.6,1.6,5.6,2.4,8.3,3.6c2.8,1.2,5.5,3.1,6.7,5.8"/>
</g>
<g>
	<g>
		<path class="st0" d="M86.8,84.4c0.1-8.8-2.7-17.6-8-25c-2-2.8-5-5.6-8.7-5.2L50.7,19.7C84.7,9,122.9,32.8,127,40.5"/>
	</g>
</g>
</svg>
