<?xml version="1.0" encoding="utf-8"?>
<!-- Generator: Adobe Illustrator 22.1.0, SVG Export Plug-In . SVG Version: 6.00 Build 0)  -->
<svg version="1.1" id="Layer_1" xmlns="http://www.w3.org/2000/svg" xmlns:xlink="http://www.w3.org/1999/xlink" x="0px" y="0px"
	 viewBox="0 0 144.8 98.9" style="enable-background:new 0 0 144.8 98.9;" xml:space="preserve">
<style type="text/css">
	.st0{fill:#FFFFFF;}
	.st1{fill:#FFFFFF;stroke:#FFFFFF;stroke-width:0.25;stroke-miterlimit:10;}
</style>
<path class="st0" d="M77.3,79.9H60.4c-0.5,0-0.9-0.3-1-0.8l-5.2-26.6c-0.1-0.6,0.4-1.2,1-1.2h25.8c0.6,0,1.1,0.5,1,1.1L78.3,79
	C78.2,79.5,77.8,79.9,77.3,79.9z"/>
<path class="st0" d="M81.7,52.2H54.5c-0.6,0-1.1-0.5-1.1-1.1v-0.7c0-0.6,0.5-1.1,1.1-1.1h27.3c0.6,0,1.1,0.5,1.1,1.1v0.7
	C82.9,51.7,82.4,52.2,81.7,52.2z"/>
<g>
	<g>
		<path class="st0" d="M59.7,48.8c-2.6,2.1-15,12.7-8,15.8c3.3,1.5,7.6-1.7,10.2-3.3c4.8-2.9,9.9-6,14.4-9.4c1.5-1.2,0-3.8-1.5-2.6
			c-4.5,3.4-9.6,6.5-14.4,9.4c-1.7,1-7.9,4.3-6.2-0.1c1.1-2.9,5.3-5.9,7.7-7.8C63.4,49.7,61.2,47.6,59.7,48.8L59.7,48.8z"/>
	</g>
</g>
<g>
	<g>
		<path class="st0" d="M81.7,6.7c3,21.5,4.9,43.1,5.8,64.8c0.1,1.9,3.1,1.9,3,0c-0.9-21.9-2.9-43.8-5.9-65.6
			C84.3,4,81.4,4.8,81.7,6.7L81.7,6.7z"/>
	</g>
</g>
<g>
	<path class="st0" d="M65.4,89.6c-2.3,3.4,9.1,2.4,11.4,2.8c0.9,0.2,2,0.3,2.8-0.1c1.6-0.8,1.8-3.1,3-4.4c1.2-1.2,3-1.3,4.6-1.8
		c3.4-1,6.1-4.3,6.3-7.9c0.2-3.6-2.1-7.2-5.5-8.3l0.5,0.8c-2.3-0.8-4.8,0.7-6.2,2.7c-1.4,2-2,4.4-2.9,6.6c-0.9,2.2-2.4,4.5-4.7,5.2
		c-1.2,0.4-2.4,0.3-3.6,0.6C69.2,86.1,66.5,88.1,65.4,89.6"/>
</g>
</svg>
