<?xml version="1.0" encoding="utf-8"?>
<!-- Generator: Adobe Illustrator 22.1.0, SVG Export Plug-In . SVG Version: 6.00 Build 0)  -->
<svg version="1.1" id="Layer_1" xmlns="http://www.w3.org/2000/svg" xmlns:xlink="http://www.w3.org/1999/xlink" x="0px" y="0px"
	 viewBox="0 0 144.8 98.9" style="enable-background:new 0 0 144.8 98.9;" xml:space="preserve">
<style type="text/css">
	.st0{fill:#FFFFFF;}
	.st1{fill:#FFFFFF;stroke:#FFFFFF;stroke-width:0.25;stroke-miterlimit:10;}
</style>
<path class="st0" d="M153.4-82.4H93.8c-1,0-1.8-0.8-1.8-1.8v-41.2c0-1,0.8-1.8,1.8-1.8h59.6c1,0,1.8,0.8,1.8,1.8v41.2
	C155.2-83.2,154.4-82.4,153.4-82.4z"/>
<path class="st0" d="M127.3-82.1l1,3.8c0,0,6.5,0,8.7,0c3,0,3.6,3.6,3.6,3.6c-3.4,0-17.4,0-17.4,0s-13.7,0-17.2,0
	c0,0,0.4-3.6,3.4-3.6c2.2,0,8.7,0,8.7,0l1-3.8H127.3z"/>
<path class="st0" d="M782.2-85.9h-75c-1,0-1.8-0.8-1.8-1.8v-47.8c0-1,0.8-1.8,1.8-1.8h75c1,0,1.8,0.8,1.8,1.8v47.8
	C784-86.7,783.2-85.9,782.2-85.9z"/>
<path class="st0" d="M748.7-85.9l1,3.8c0,0,6.4,0,8.6,0c3,0,3.6,3.5,3.6,3.5c-3.4,0-17.3,0-17.3,0s-13.6,0-17,0c0,0,0.4-3.5,3.4-3.5
	c2.1,0,8.6,0,8.6,0l1-3.8H748.7z"/>
<path class="st0" d="M76.2,64.4l-28.1,5.8c-1,0.2-1.9-0.4-2.1-1.4l-8.8-42.6c-0.2-1,0.4-1.9,1.4-2.1l28.1-5.8c1-0.2,1.9,0.4,2.1,1.4
	l8.8,42.6C77.8,63.2,77.2,64.2,76.2,64.4z"/>
<path class="st0" d="M80.9,86.3L56.9,70.5c-0.8-0.5-1.1-1.7-0.5-2.5l23.9-36.3c0.5-0.8,1.7-1.1,2.5-0.5l23.9,15.7
	c0.8,0.5,1.1,1.7,0.5,2.5L83.4,85.8C82.8,86.6,81.7,86.8,80.9,86.3z"/>
<rect x="729.4" y="-73.3" transform="matrix(1 -2.026482e-03 2.026482e-03 1 0.1452 1.5156)" class="st0" width="37.2" height="4.9"/>
<polygon class="st0" points="728.7,-73.3 728.7,-68.4 721.1,-70.7 721.1,-71 "/>
<line class="st1" x1="721" y1="-70.8" x2="720.4" y2="-70.8"/>
</svg>
