<?xml version="1.0" encoding="utf-8"?>
<!-- Generator: Adobe Illustrator 22.1.0, SVG Export Plug-In . SVG Version: 6.00 Build 0)  -->
<svg version="1.1" id="Layer_1" xmlns="http://www.w3.org/2000/svg" xmlns:xlink="http://www.w3.org/1999/xlink" x="0px" y="0px"
	 viewBox="0 0 144.8 98.9" style="enable-background:new 0 0 144.8 98.9;" xml:space="preserve">
<style type="text/css">
	.st0{fill:#FFFFFF;}
	.st1{fill:#FFFFFF;stroke:#FFFFFF;stroke-width:0.25;stroke-miterlimit:10;}
</style>
<path class="st0" d="M109.9,68.2h-75c-1,0-1.8-0.8-1.8-1.8V18.6c0-1,0.8-1.8,1.8-1.8h75c1,0,1.8,0.8,1.8,1.8v47.8
	C111.7,67.4,110.9,68.2,109.9,68.2z"/>
<path class="st0" d="M76.4,68.2l1,3.8c0,0,6.4,0,8.6,0c3,0,3.6,3.5,3.6,3.5c-3.4,0-17.3,0-17.3,0s-13.6,0-17,0c0,0,0.4-3.5,3.4-3.5
	c2.1,0,8.6,0,8.6,0l1-3.8H76.4z"/>
<rect x="57.1" y="80.8" transform="matrix(1 -2.026482e-03 2.026482e-03 1 -0.1684 0.1535)" class="st0" width="37.2" height="4.9"/>
<polygon class="st0" points="56.4,80.8 56.4,85.7 48.8,83.4 48.8,83.1 "/>
<line class="st1" x1="48.7" y1="83.3" x2="48.2" y2="83.3"/>
</svg>
