<?xml version="1.0" encoding="utf-8"?>
<!-- Generator: Adobe Illustrator 22.1.0, SVG Export Plug-In . SVG Version: 6.00 Build 0)  -->
<svg version="1.1" id="Layer_1" xmlns="http://www.w3.org/2000/svg" xmlns:xlink="http://www.w3.org/1999/xlink" x="0px" y="0px"
	 viewBox="0 0 144.8 98.9" style="enable-background:new 0 0 144.8 98.9;" xml:space="preserve">
<style type="text/css">
	.st0{fill:#FFFFFF;}
	.st1{fill:#FFFFFF;stroke:#FFFFFF;stroke-width:0.25;stroke-miterlimit:10;}
</style>
<path class="st0" d="M102.2,68H42.6c-1,0-1.8-0.8-1.8-1.8V25c0-1,0.8-1.8,1.8-1.8h59.6c1,0,1.8,0.8,1.8,1.8v41.2
	C104,67.2,103.2,68,102.2,68z"/>
<path class="st0" d="M76.1,68.3l1,3.8c0,0,6.5,0,8.7,0c3,0,3.6,3.6,3.6,3.6c-3.4,0-17.4,0-17.4,0s-13.7,0-17.2,0
	c0,0,0.4-3.6,3.4-3.6c2.2,0,8.7,0,8.7,0l1-3.8H76.1z"/>
</svg>
