<?xml version="1.0" encoding="utf-8"?>
<!-- Generator: Adobe Illustrator 22.1.0, SVG Export Plug-In . SVG Version: 6.00 Build 0)  -->
<svg version="1.1" id="Layer_1" xmlns="http://www.w3.org/2000/svg" xmlns:xlink="http://www.w3.org/1999/xlink" x="0px" y="0px"
	 viewBox="0 0 144.8 98.9" style="enable-background:new 0 0 144.8 98.9;" xml:space="preserve">
<style type="text/css">
	.st0{fill:#FFFFFF;}
	.st1{fill:#FFFFFF;stroke:#FFFFFF;stroke-width:0.25;stroke-miterlimit:10;}
</style>
<g>
	<path class="st0" d="M62,43.7c-1.6,1.9-1.9,4.5-1.7,6.9c0.2,2.4,1,4.7,1.6,7.1c1.5,6.3,1.3,12.8,1.1,19.3
		c-0.1,3.9-0.2,7.7-0.4,11.6c0,0.2-0.3,1.7-0.1,1.9c0.1,0.1,1.6-1.2,6.1,0.6c0.8,0.3,0.9-4.3,0.7-5.1c-0.8-3.3-1.1-6.7-0.9-10.1
		c0.1-1.8,0.4-3.6,0.6-5.4c0.5-5.3,0.2-10.9,2-15.9c0.7,1.4,1.4,2.9,2.1,4.3c2.7,6.5,3.9,13.5,5,20.4c0.7,4.1,1.3,8.3,2,12.4
		c1-0.4,1.7-1.5,2.7-2c1.2-0.7,2.5-0.2,3.3,0.9c0.6-0.1-1.1-6.8-1.8-10.1c-0.5-2.1-1-4.2-1.4-6.3c-2.2-9.7-4.4-19.6-3.9-29.6
		L62,43.7z"/>
</g>
<g>
	<path class="st0" d="M80.6,91.3c0.6-0.7,0.9-1,1.5-1.7c0.2-0.2,0.4-0.5,0.7-0.6c0.2-0.1,0.5-0.1,0.7-0.1c0.7,0.1,1.4,0.5,1.8,1.1
		c0.5,0.6,0.8,1.2,1,1.9c0.1,0.3,0.2,0.6,0.1,0.8c-0.1,0.3-0.4,0.4-0.7,0.5c-0.9,0.3-1.8,0.2-2.8,0.2c-0.6,0-1.3-0.1-1.9-0.4
		C80.6,92.6,80.5,91.9,80.6,91.3"/>
</g>
<g>
	<path class="st0" d="M67.9,91.3c-0.2-0.7-0.7-1.3-1.5-1.7c-0.7-0.3-1.7-0.4-2.4,0c-0.3,0.1-0.4,0.5-0.7,0.8
		c-0.3,0.3-0.8,1.9-0.5,2.2c0.2,0.2,4.7,0.1,4.7,0.1C67.9,92.4,68,92.2,67.9,91.3"/>
</g>
<g>
	<path class="st0" d="M63.4,27.2c0,2.3-1.1,15.6-2.3,18.4c-0.1,0.3,0,0.6,0.1,0.9c0.1,0.3,0.3,0.5,0.5,0.6c0.8,0.6,1.5,1.2,2.3,1.7
		c4.9,2.6,10.2-1.7,15.3-0.9"/>
</g>
<g>
	<path class="st0" d="M63.6,29.6c-0.2,1.5-0.4,3-0.5,4.5c0,0.3-0.1,0.6,0,0.9c0.1,0.3,0.3,0.5,0.5,0.7c2.3,2.4,4.7,4.6,7.3,6.6
		c-0.7,0.2-1.5,0.4-2.2,0.6c-0.7,0.2-1.5,0.4-2.1,0.8c-0.6,0.4-1.1,1.1-1.1,1.8l0.9-0.3c-1.9-2-3.9-4-6.3-5.4c-1-0.6-2.1-1.1-2.8-2
		c-0.7-1-0.8-2.3-0.6-3.5c0.2-1.2,0.6-2.3,0.9-3.5c0.5-2.1,0.4-4.2,0.6-6.4c0.1-0.8,0.2-1.6,0.7-2.1c0.5-0.5,1.2-0.7,1.9-0.8
		c1.1-0.2,2.3-0.5,3.4-0.7l0,0c0.3-0.2,0.5-1,0.7-1.2c1.5,1.1,1.3,3.4,2.3,5c0.7,1,1.6,1.9,2.2,3c1.5,2.5,1.5,5.5,1.6,8.4l-0.5-5.4
		c-0.5-1.9,0.1-3.9,0.7-5.7c0.6-1.9,0.1-4.2-0.3-6.1l0,0c3.2,2,4.2,1.5,5.8,2.1c0.3,0.1,0.7,0.2,1,0.4c0.5,0.3,0.8,0.8,1.1,1.4
		c4.4,7.9,2.9,17.7,5.8,26.2c-1.1,0.2-1.1,0.2-2.3,0.5c-0.6,0.1-3-0.3-3.2-0.8L63.6,29.6z"/>
</g>
<g>
	<g>
		<path class="st0" d="M76.9,33.4c1.3,5.6-0.2,11.5,1.4,17.1c-0.4-1.5,0.4-3.4,0-5c-0.5-1.7-0.7-3.1-0.8-4.8c0.1,1,0,2,0-0.1
			c0-1.2,0-2.3,0-3.5c0-2.9,0-5.8-0.7-8.7C77.2,30,76.5,31.8,76.9,33.4L76.9,33.4z"/>
	</g>
</g>
<g>
	<path class="st0" d="M79.7,47.7c-0.4,0.7-0.3,1.2-0.3,2c0,0.7,0.1,1.9,1,2.3c0.1,0.1,0.1-0.2,0.2-0.3c0.5,0.5,0.9,1,1.4,1.5
		c0.1,0.1,0.3,0.3,0.5,0.3c1.1,0,0.6-2.9,0.6-4.1s-0.4-2.5-1.7-3.2"/>
</g>
<g>
	<path class="st0" d="M58.4,10.6c1.3,0.5,1.6,0.5,3,0.8c4,0.8,8.2,1.1,12.2,0.1c1.4-0.4,2.9-0.9,3.8-2.1c0.1-0.1,0.2-0.3,0.2-0.5
		c0-0.1-0.2-0.2-0.3-0.3c-1.2-0.7-2.7-0.8-4-0.5c-1.3,0.4-2.5,1.2-3.4,2.2c-0.4,0.5-0.7,1-1.2,1.3c-0.5,0.4-1.2,0.5-1.8,0.6
		c-0.8,0.2-1.7,0.3-2.5,0.1c-0.6-0.2-1.1-0.7-1.6-1.1c-1.3-1.3-2.7-2.7-4.5-3.1c-0.2,0-0.4-0.1-0.6,0c-0.4,0.2-0.4,0.7-0.3,1.1
		C57.3,9.8,57.8,10.3,58.4,10.6"/>
</g>
<g>
	<path class="st0" d="M62.2,10.9c0.2-0.7,0.6-2.9,0.8-3.6c0-0.1,0.1-0.3,0.1-0.4c0.1-0.1,0.2-0.3,0.3-0.4c0.5-0.4,1.1-0.9,1.6-1.3
		C65.4,5,65.7,4.8,66,5c0.3,0.2,0.3,0.7,0.6,0.7c0.3,0.1,0.5-0.3,0.8-0.5c0.3-0.1,0.7,0.1,1,0.4c0.6,0.5,1.1,1.1,1.7,1.6
		c0.1,0.1,0.2,0.2,0.2,0.3c0.1,0.1,0.1,0.3,0.1,0.5c0,0.4,0.3,2.8,0.4,3.2c0,0-2.4,1.3-4.8,1.2C63.4,12.4,62.2,10.9,62.2,10.9z"/>
</g>
<g>
	<path class="st0" d="M62.8,11.1c-0.3,1.7,0.3,4.5,1.1,5.9c0.3,0.5,0.5,0.9,0.9,1.2c0.5,0.4,1.1,0.5,1.6,0.5
		c0.6,0.1,1.2,0.1,1.7-0.2c0.4-0.2,0.7-0.5,1-0.9c0.8-1,1.2-2.2,1.2-3.5c0-1.2-0.1-2.3-0.4-3.5"/>
</g>
<g>
	<path class="st0" d="M74.1,33.6c-0.3-0.5-1.6-7.7-1.9-8.2c-0.7-1.2,1.4-2.3,1-3.6c-0.8-2.5-4,0.4-4.1-4.8l-3.6,0.4
		c0.2,4.6-1.3,4.3-3.3,5.4"/>
</g>
</svg>
